<?xml version="1.0" encoding="UTF-8"?>
<svg xmlns="http://www.w3.org/2000/svg" version="1.1" viewBox="0 0 269 88">
  <defs>
    <style>
      .cls-1 {
        fill: #fff;
      }

      .cls-2 {
        fill: #f47521;
      }

      .cls-2, .cls-3 {
        fill-rule: evenodd;
      }

      .cls-4, .cls-3 {
        fill: #58585a;
      }
    </style>
  </defs>
  <!-- Generator: Adobe Illustrator 28.6.0, SVG Export Plug-In . SVG Version: 1.2.0 Build 709)  -->
  <g>
    <g id="Layer_1">
      <g id="Layer_1-2" data-name="Layer_1">
        <rect class="cls-1" x="-15.5" y="-13.9" width="303.1" height="109.3"/>
        <g>
          <path class="cls-2" d="M24,28.5l5.8,17.8,1.6,6.6,1.5-6.6,5.5-17.8h6.1l3.7,31.1h-4.6l-1.9-19.3-.6-8.4-2.1,8.3-6.5,19.4h-2.5l-6.8-19.4-2.3-8.3-.6,8.4-1.7,19.3h-4.4l3.1-31.1h6.7ZM59.7,28.5v31.1h-4.6v-31.1s4.6,0,4.6,0ZM65.3,32v-3.5h24v3.5h-9.7v27.6h-4.6v-27.6s-9.7,0-9.7,0Z"/>
          <path class="cls-3" d="M112.6,38.8c.3.2.8.4,1.3.5s1.1.2,1.6.2c.8,0,1.5-.2,1.9-.5.5-.3.7-.8.7-1.4s0-.8-.3-1c-.2-.3-.5-.5-.9-.7s-.9-.5-1.6-.8c-2-.9-3-2-3-3.4s.2-1.2.5-1.6c.4-.4.8-.7,1.4-.9.6-.2,1.2-.3,1.8-.3s1.2,0,1.7.2c.5.1.8.3,1.1.4l-.3,1.1c-.3-.2-.7-.4-1.1-.5s-.9-.2-1.4-.2-.8,0-1.2.2c-.4.1-.7.3-.9.6-.2.3-.4.6-.4.9s0,.8.3,1c.2.3.5.5.8.8.3.2.8.5,1.5.8s1.2.6,1.7.9c.4.3.8.6,1.1,1,.3.4.5.9.5,1.5s-.2,1.2-.5,1.7-.8.8-1.3,1c-.6.2-1.2.3-2,.3s-.9,0-1.4,0c-.4,0-.8-.2-1.2-.3-.3,0-.6-.2-.7-.3,0,0,.3-1.1.3-1.1ZM125,31.8c.5,0,.9,0,1.3.1.4,0,.7.2.8.3l-.2,1.1c-.2-.2-.5-.3-.8-.4-.3,0-.7,0-1.1,0s-1,0-1.4.4c-.4.3-.8.6-1,1.2-.3.5-.4,1.1-.4,1.9s0,1.3.4,1.8.6.9,1,1.1c.4.3.9.4,1.4.4s.9,0,1.3-.2c.4,0,.7-.3.9-.4l.3.7c-.3.3-.6.5-1.1.6s-1,.2-1.5.2c-.8,0-1.5-.2-2-.5-.6-.4-1-.9-1.3-1.5s-.4-1.4-.4-2.2.2-1.6.5-2.3.8-1.2,1.4-1.6c.6-.4,1.4-.6,2.2-.6h-.3ZM133.8,31.8c.6,0,1.1.1,1.5.4.4.2.7.6.8,1.1.2.5.3,1.2.3,2.1v5.1h-1.3v-5.2c0-.6,0-1.1-.2-1.5-.1-.4-.3-.6-.6-.8s-.7-.2-1.2-.2-.9,0-1.3.3c-.5.2-.9.5-1.3.7v6.6h-1.3v-12.6h1.3v5.1c.3-.3.8-.6,1.4-.8.6-.2,1.2-.4,1.8-.4h.1ZM138.6,36.2c0-.9.2-1.7.5-2.3s.8-1.1,1.4-1.5c.6-.3,1.3-.5,2-.5s1.6.2,2.1.6c.6.4,1,.9,1.2,1.6.3.7.4,1.4.4,2.2s-.2,1.7-.5,2.3-.8,1.2-1.4,1.5c-.6.3-1.3.5-2,.5s-1.6-.2-2.2-.6-1-.9-1.2-1.6c-.3-.7-.4-1.4-.4-2.2h0ZM145.1,36.3c0-.7,0-1.3-.3-1.8-.2-.5-.5-.9-.9-1.2s-.9-.5-1.4-.5-1,0-1.4.4c-.4.3-.7.6-.9,1.1s-.3,1.1-.3,1.8,0,1.3.3,1.8c.2.5.5,1,.9,1.3s.9.5,1.4.5,1,0,1.4-.4c.4-.3.7-.7.9-1.2s.3-1.1.3-1.8ZM148,36.2c0-.9.2-1.7.5-2.3s.8-1.1,1.4-1.5c.6-.3,1.3-.5,2-.5s1.6.2,2.1.6c.6.4,1,.9,1.3,1.6.3.7.4,1.4.4,2.2s-.2,1.7-.5,2.3-.8,1.2-1.4,1.5c-.6.3-1.3.5-2,.5s-1.6-.2-2.2-.6-1-.9-1.2-1.6c-.3-.7-.4-1.4-.4-2.2h0ZM154.5,36.3c0-.7,0-1.3-.3-1.8-.2-.5-.5-.9-.9-1.2s-.9-.5-1.4-.5-1,0-1.4.4c-.4.3-.7.6-.9,1.1s-.3,1.1-.3,1.8,0,1.3.3,1.8c.2.5.5,1,.9,1.3s.9.5,1.4.5,1,0,1.4-.4c.4-.3.7-.7.9-1.2s.3-1.1.3-1.8ZM159.5,28v12.6h-1.3v-12.6s1.3,0,1.3,0ZM166.9,36.2c0-.9.2-1.7.5-2.3s.8-1.1,1.4-1.5c.6-.3,1.3-.5,2-.5s1.6.2,2.1.6c.6.4,1,.9,1.2,1.6.3.7.4,1.4.4,2.2s-.2,1.7-.5,2.3-.8,1.2-1.4,1.5c-.6.3-1.3.5-2,.5s-1.6-.2-2.2-.6-1-.9-1.2-1.6c-.3-.7-.4-1.4-.4-2.2h0ZM173.4,36.3c0-.7,0-1.3-.3-1.8-.2-.5-.5-.9-.9-1.2s-.9-.5-1.4-.5-1,0-1.4.4c-.4.3-.7.6-.9,1.1s-.3,1.1-.3,1.8,0,1.3.3,1.8c.2.5.5,1,.9,1.3s.9.5,1.4.5,1,0,1.4-.4c.4-.3.7-.7.9-1.2s.3-1.1.3-1.8ZM176,32.8v-.7l1.5-.3v-.7c0-.8.1-1.5.4-2,.3-.5.7-.9,1.1-1.1s.9-.3,1.4-.3h.6c.2,0,.3,0,.4.1v1.1c-.1,0-.3-.1-.5-.1h-.7c-.5,0-.9.2-1.1.6-.3.4-.4.9-.4,1.6v1h2.3v1h-2.3v7.8h-1.3v-7.8h-1.5v-.2ZM112.8,48.6h3.5c1.2,0,2.2.2,3.1.6.8.4,1.4,1.1,1.8,1.9.4.8.6,1.8.6,3s-.2,2.3-.7,3.3c-.4.9-1.1,1.6-1.9,2.2-.8.5-1.8.8-3,.8h-3.4v-11.7h0ZM116.3,59.3c.8,0,1.6-.2,2.2-.6.6-.4,1.1-.9,1.4-1.7s.5-1.7.5-2.8c0-1.6-.4-2.8-1.1-3.6s-1.9-1.1-3.4-1.1-1.2,0-1.9,0v9.6c.3,0,.7,0,1.1,0h1.2ZM125.5,51.5v8.7h-1.3v-8.7h1.3ZM123.9,48.8c0-.2,0-.3,0-.5,0,0,.2-.3.4-.3s.3,0,.5,0c.3,0,.5,0,.6.2s.2.4.2.6,0,.4,0,.5c0,.2-.2.3-.3.3s-.3,0-.5,0-.4,0-.6-.2-.2-.4-.2-.6h0ZM128.2,58.7c.1,0,.3.2.6.3.3,0,.6.2.9.2s.7,0,1,0c.6,0,1,0,1.4-.3.3-.2.5-.6.5-1s0-.5-.3-.7c-.2-.2-.4-.4-.7-.5s-.6-.3-1.1-.5c-.8-.3-1.4-.7-1.8-1.1-.4-.4-.7-.9-.7-1.5s.1-.9.4-1.2c.3-.3.6-.6,1.1-.7s1-.2,1.6-.2.9,0,1.3,0c.4,0,.7.2.9.3l-.2,1.1c-.2,0-.4-.3-.8-.4s-.8-.2-1.2-.2c-.6,0-1.1,0-1.4.3-.3.2-.5.5-.5.9s0,.5.2.7.4.4.6.5c.3.2.6.3,1,.5.5.2.9.4,1.3.6.4.2.7.5,1,.8s.4.7.4,1.2-.1.9-.4,1.3c-.2.4-.6.6-1.1.8s-1,.3-1.6.3-1.1,0-1.6-.2c-.5,0-.9-.3-1.2-.4l.2-.9.2-.2ZM136.4,52.5h-1.2v-.7s.2,0,.4,0c.3,0,.5,0,.6-.2.1,0,.2-.2.3-.3,0,0,0-.3.2-.7,0-.5.2-.8.2-1.1h.8v2.1h2.7v1h-2.7v4.9c0,.6,0,1,.1,1.2,0,.3.2.4.3.5.2,0,.4,0,.7,0s.6,0,.9,0c.3,0,.6-.2.7-.3l.2.7c-.2.2-.6.3-1,.5-.5,0-.9.2-1.3.2s-.7,0-1-.2c-.3,0-.5-.3-.7-.6s-.3-.8-.3-1.3v-5.6h.1ZM145.5,51.5c.6,0,1.2,0,1.6.2.4,0,.8.4,1,.8.2.4.4.9.4,1.6v6.1h-.9s-.2,0-.2-.2v-.7c-.3.2-.7.5-1.1.6-.5.2-1,.3-1.6.3s-1,0-1.4-.3c-.4-.2-.7-.5-.9-.8-.2-.4-.3-.8-.3-1.3s.2-1.1.5-1.5.8-.7,1.4-1c.5-.2,1-.3,1.7-.4.6,0,1.2,0,1.8,0v-.9c0-.4,0-.7-.2-1-.2-.2-.4-.4-.7-.4s-.7,0-1.1,0-.6,0-.9,0c-.3,0-.7.2-1,.3s-.5.2-.7.3l-.3-.8c.1,0,.4-.2.7-.3s.7-.3,1.2-.4c.4,0,.9-.2,1.3-.2h-.3ZM145,59.3c.3,0,.7,0,1,0,.3,0,.6-.2.8-.3s.4-.2.5-.3v-2.8h-1.4c-.5,0-1,.2-1.3.3-.4.2-.8.4-1,.6s-.3.6-.3,1,.1.9.4,1.2c.3.3.7.4,1.3.4h0ZM152.5,51.5v1.2c.4-.3.9-.6,1.5-.9.6-.3,1.2-.4,1.8-.4s1.1,0,1.5.3.6.6.8,1.1.2,1.2.2,2v5.3h-1.3v-5.3c0-.6,0-1.1-.2-1.4-.1-.3-.3-.6-.6-.7-.3-.2-.6-.2-1.1-.2s-.8,0-1.3.3-.9.5-1.2.8v6.6h-1.3v-8.7h1.2ZM164.6,51.5c.5,0,.9,0,1.3,0,.4,0,.7.2.8.3l-.2,1.1c-.2-.2-.5-.3-.8-.4s-.7,0-1.1,0-1,0-1.4.4c-.4.3-.8.6-1,1.2-.3.5-.4,1.1-.4,1.9s.1,1.3.4,1.8c.2.5.6.9,1,1.1.4.3.9.4,1.4.4s.9,0,1.3-.2c.4,0,.7-.3.9-.4l.3.7c-.3.3-.6.5-1.1.6s-1,.2-1.5.2c-.8,0-1.5-.2-2-.5-.6-.4-1-.9-1.3-1.5s-.4-1.4-.4-2.2.2-1.6.5-2.3.8-1.2,1.4-1.6c.6-.4,1.4-.6,2.2-.6h-.3ZM169.5,55.9v.3c0,1.1.3,1.8.8,2.3s1.2.7,2.1.7.8,0,1.3-.2c.5,0,.8-.3,1.1-.4l.2.7c-.3.2-.7.4-1.3.6-.6,0-1.1.2-1.7.2s-1.5-.2-2.1-.5-1-.8-1.3-1.5-.4-1.4-.4-2.3.2-1.6.5-2.3.8-1.2,1.4-1.6c.6-.4,1.3-.6,2.1-.6s1.1,0,1.6.4.8.6,1.1,1.1.4,1,.4,1.6v1.3h-5.7v.2ZM172.1,52.5c-.7,0-1.2.2-1.7.6-.4.4-.7,1.1-.8,2h4.5v-.3c0-.7-.2-1.3-.5-1.7s-.8-.6-1.5-.6h0ZM189.2,48.6v1h-5.3v4.1h3.8v1h-3.8v4.5h5.8v1h-7.1v-11.7h6.6ZM198.4,47.7v12.6h-1.1c-.1,0-.2-.2-.2-.4v-.5c-.3.3-.7.5-1.1.7-.4.2-1,.3-1.6.3s-1.2,0-1.7-.4c-.5-.3-.9-.7-1.3-1.4-.3-.6-.5-1.4-.5-2.3s.2-1.7.5-2.4c.4-.7.9-1.3,1.5-1.6.7-.4,1.4-.6,2.3-.6s1.2,0,1.7.3v-4.1h1.3l.2-.2ZM192.4,56c0,1.1.2,1.9.6,2.5.4.6,1.1.8,1.8.8s.9,0,1.3-.3c.4-.2.7-.4,1-.6v-5.6c-.2,0-.4-.2-.7-.3-.3,0-.7,0-1.1,0s-1.1,0-1.5.4c-.4.3-.8.7-1,1.2-.3.5-.4,1.2-.4,1.9h0ZM207.9,51.5v8.7h-1s-.1-.2-.1-.4v-.5c-.4.3-.9.5-1.5.7s-1.1.3-1.6.3-1.3,0-1.6-.4c-.4-.3-.6-.7-.7-1.2-.1-.5-.2-1.2-.2-2v-5.1h1.3v5.1c0,.7,0,1.3.2,1.6.1.4.3.6.5.8.3,0,.6.2,1.1.2s.8,0,1.3-.2.8-.4,1.1-.6v-6.9h1.3-.1ZM214.2,51.5c.5,0,.9,0,1.3,0,.4,0,.7.2.8.3l-.2,1.1c-.2-.2-.5-.3-.8-.4-.3,0-.7,0-1.1,0s-1,0-1.4.4c-.4.3-.8.6-1,1.2s-.4,1.1-.4,1.9.1,1.3.4,1.8.6.9,1,1.1c.4.3.9.4,1.4.4s.9,0,1.3-.2c.4,0,.7-.3.9-.4l.3.7c-.3.3-.6.5-1.1.6s-1,.2-1.5.2c-.8,0-1.5-.2-2-.5-.6-.4-1-.9-1.3-1.5s-.4-1.4-.4-2.2.2-1.6.5-2.3.8-1.2,1.4-1.6c.6-.4,1.4-.6,2.2-.6h-.3ZM221.5,51.5c.6,0,1.2,0,1.6.2.4,0,.8.4,1,.8.2.4.4.9.4,1.6v6.1h-.9s-.2,0-.2-.2v-.7c-.3.2-.7.5-1.1.6-.5.2-1,.3-1.6.3s-1,0-1.4-.3c-.4-.2-.7-.5-.9-.8-.2-.4-.3-.8-.3-1.3s.2-1.1.5-1.5.8-.7,1.4-1c.5-.2,1-.3,1.7-.4.6,0,1.2,0,1.8,0v-.9c0-.4,0-.7-.2-1-.2-.2-.4-.4-.7-.4s-.7,0-1.1,0-.6,0-.9,0c-.3,0-.7.2-1,.3s-.5.2-.7.3l-.3-.8c.1,0,.4-.2.7-.3s.7-.3,1.2-.4c.4,0,.9-.2,1.3-.2h-.3ZM220.9,59.3c.3,0,.7,0,1,0,.3,0,.6-.2.8-.3s.4-.2.5-.3v-2.8h-1.4c-.5,0-1,.2-1.3.3-.4.2-.8.4-1,.6s-.3.6-.3,1,.1.9.4,1.2c.3.3.7.4,1.3.4ZM227.6,52.5h-1.2v-.7s.2,0,.4,0c.3,0,.5,0,.6-.2.1,0,.2-.2.3-.3,0,0,0-.3.2-.7,0-.5.2-.8.2-1.1h.8v2.1h2.7v1h-2.7v4.9c0,.6,0,1,.1,1.2,0,.3.2.4.3.5.2,0,.4,0,.7,0s.6,0,.9,0c.3,0,.6-.2.7-.3l.2.7c-.2.2-.6.3-1,.5-.5,0-.9.2-1.3.2s-.7,0-1-.2c-.3,0-.5-.3-.7-.6s-.3-.8-.3-1.3v-5.6h.1ZM235.2,51.5v8.7h-1.3v-8.7h1.3ZM233.7,48.8c0-.2,0-.3.1-.5,0,0,.2-.3.4-.3s.3,0,.5,0c.3,0,.5,0,.6.2s.2.4.2.6,0,.4-.1.5c0,.2-.2.3-.3.3s-.3,0-.5,0-.4,0-.6-.2c-.2-.2-.2-.4-.2-.6h0ZM237.6,55.9c0-.9.2-1.7.5-2.3s.8-1.1,1.4-1.5c.6-.3,1.3-.5,2-.5s1.6.2,2.1.6c.6.4,1,.9,1.3,1.6.3.7.4,1.4.4,2.2s-.2,1.7-.5,2.3-.8,1.2-1.4,1.5c-.6.3-1.3.5-2,.5s-1.6-.2-2.2-.6-1-.9-1.2-1.6c-.3-.7-.4-1.4-.4-2.2h0ZM244.1,55.9c0-.7,0-1.3-.3-1.8-.2-.5-.5-.9-.9-1.2s-.9-.5-1.4-.5-1,0-1.4.4c-.4.3-.7.6-.9,1.1s-.3,1.1-.3,1.8,0,1.3.3,1.8c.2.5.5,1,.9,1.3s.9.5,1.4.5,1,0,1.4-.4c.4-.3.7-.7.9-1.2s.3-1.1.3-1.8ZM248.8,51.5v1.2c.4-.3.9-.6,1.5-.9.6-.3,1.2-.4,1.8-.4s1.1,0,1.5.3.6.6.8,1.1.2,1.2.2,2v5.3h-1.3v-5.3c0-.6,0-1.1-.2-1.4-.1-.3-.3-.6-.6-.7-.3-.2-.6-.2-1.1-.2s-.8,0-1.3.3-.9.5-1.2.8v6.6h-1.3v-8.7h1.2Z"/>
          <rect class="cls-4" x="99.7" y="28.4" width="2.1" height="31.3"/>
        </g>
      </g>
    </g>
  </g>
</svg>