<svg width="139" height="66" viewBox="0 0 139 66" fill="none" xmlns="http://www.w3.org/2000/svg">
<rect width="139" height="66" fill="white"/>
<path fill-rule="evenodd" clip-rule="evenodd" d="M22.0008 17.7892L22 17.7437V14.1025H25.6483V40.8089L25.6498 40.8922V44.4956H22V40.8544L22.0008 40.8089V17.7892Z" fill="#3781C2"/>
<path fill-rule="evenodd" clip-rule="evenodd" d="M59.0975 33.4269C59.1912 38.9508 62.6227 43.3683 66.7626 43.2943C70.9016 43.2203 74.1807 38.6825 74.087 33.1586C73.9926 27.634 70.5611 23.2165 66.4212 23.2913C62.2821 23.3653 59.0031 27.9031 59.0975 33.4269ZM89.3049 26.7482C89.4002 26.9587 89.1742 26.4337 89.1742 26.4337L89.3049 26.7482ZM91.7914 49.6168C91.9586 49.3316 92.1916 48.8952 92.4687 48.3502L91.7914 49.6168ZM92.0058 24.8424C92.0499 24.965 92.101 25.093 92.1583 25.2279L93.3868 28.2415L92.0058 24.8424ZM76.719 40.0131C78.9739 42.0639 81.0044 43.1239 83.6007 43.1239C86.2581 43.144 88.6207 41.8418 88.6207 39.3355C88.6207 37.2439 86.7698 36.0204 83.4629 34.6196C80.6606 33.4046 78.5752 32.5527 77.4853 30.7941C77.6185 31.5582 77.6881 32.3476 77.6881 33.1556C77.6881 39.9391 72.7773 45.4391 66.7192 45.4391C60.6611 45.4391 55.7503 39.9391 55.7503 33.1556C55.7503 29.0657 57.5354 25.443 60.2795 23.2103H52.8567V40.8088L52.8575 40.8789V44.4954H49.5606V40.9969C49.563 40.9352 49.5637 40.8728 49.5637 40.8088V23.2103H46.657V20.9954H49.6063C49.9871 16.527 52.7499 13.9998 56.5747 13.9998C59.0549 13.9998 60.4165 14.2589 61.203 14.6235V17.6526C61.1906 17.8785 61.1906 18.0165 61.1906 18.0165C61.1566 18.0126 61.0753 18.0111 61.0753 18.0111C59.8816 16.9078 58.7042 16.0868 55.9539 16.0899C53.7632 16.0899 52.3141 17.8731 52.8204 20.9954H65.1594C65.6696 20.9145 66.1897 20.8721 66.7192 20.8721C71.1137 20.8721 74.9053 23.7662 76.6555 27.9463C76.6393 27.7142 76.6315 27.4721 76.6315 27.2193C76.6315 22.858 80.8449 21.0031 85.2216 21.0124C85.3888 21.0116 85.5529 21.0124 85.7139 21.0162C87.2544 20.9915 89.449 21.495 90.7889 21.8481L93.3868 28.2415L97.0993 37.3141L97.5351 38.7711L98.0205 37.3141L102.715 25.6689C103.582 22.4625 107.01 21.0748 110.797 21.0825C112.68 21.074 114.07 21.3015 115.737 21.8889V25.4106C113.684 23.9158 112.214 23.0469 109.885 23.0469C107.838 23.0469 105.377 23.9551 105.377 26.9741C105.337 29.243 106.696 29.6578 110.682 31.6399C113.959 33.0654 116.982 34.6389 117 38.2831C117 44.359 111.025 45.4113 108.117 45.4206C105.521 45.4206 103.141 44.7784 101.817 43.6752V39.6639L102.03 39.8405C104.392 42.05 106.479 43.1948 109.176 43.1948C111.834 43.2149 114.196 41.912 114.196 39.4056C114.196 37.3141 112.345 36.0906 109.038 34.6898C105.878 33.319 103.804 32.4108 102.956 30.1404C101.667 33.2897 95.6719 47.9184 94.2607 51.0454H91.0281L92.4911 48.3085C93.3016 46.7096 94.4805 44.2009 95.5279 41.801L89.3049 26.7482C89.2631 26.6565 89.161 26.4252 88.9528 25.9511C88.4752 24.8609 88.0308 23.8541 86.687 23.3468C85.9671 23.104 85.2007 22.9767 84.3098 22.9767C82.2623 22.9767 79.6435 23.8849 79.6435 26.904C79.604 29.1729 81.1197 29.5876 85.1071 31.569C88.3838 32.9952 91.4066 34.5687 91.4244 38.213C91.4244 44.2888 85.4492 45.3404 82.5409 45.3504C80.2326 45.3504 78.0945 44.8424 76.719 43.9542V40.0131Z" fill="#3781C2"/>
<path fill-rule="evenodd" clip-rule="evenodd" d="M32.4563 21.2221L32.4966 23.8803L32.4943 24.0592L32.5298 24.0584C32.5724 23.9474 32.6297 23.8533 32.6839 23.7832C34.0239 22.3438 35.7129 20.9137 39.7274 20.9137C43.57 20.9137 46.0571 24.1848 46.157 26.244L46.1609 40.8088V40.8813V44.4955H42.8679V40.1527L42.8671 27.7535C42.8671 25.1863 40.6184 23.3299 37.8657 23.3299C35.5775 23.3299 32.6406 25.3929 32.543 27.4814V40.8126L32.5446 40.9105V44.4985H29.25V24.2827L29.2508 21.2221H32.4563Z" fill="#3781C2"/>
</svg>
