<svg width="122" height="78" viewBox="0 0 122 78" fill="none" xmlns="http://www.w3.org/2000/svg">
<g clip-path="url(#clip0_149_905)">
<path d="M121.525 25.8507L96.53 0.507335C95.8994 -0.137512 94.8698 -0.137512 94.234 0.507335L82.7836 12.1164C82.3237 12.5863 82.2035 13.2682 82.4125 13.8513C79.9493 14.6975 76.6987 15.4925 73.9759 15.0703C72.422 14.83 70.7479 14.3689 68.971 13.8848C64.0602 12.5351 58.4892 11.0104 54.9598 14.595L50.4061 19.2044C49.7981 19.8245 49.2598 20.5029 48.7965 21.2184L38.6439 14.9996L39.2135 14.4201C39.8494 13.7806 39.8494 12.7365 39.2135 12.0916L27.7666 0.484368C27.1308 -0.160479 26.1012 -0.160479 25.4706 0.484368L0.477615 25.8277C-0.158228 26.4726 -0.158228 27.5167 0.477615 28.1563L11.928 39.7706C12.2433 40.0903 12.6562 40.2547 13.0743 40.2547C13.4924 40.2547 13.9052 40.0903 14.224 39.7706L18.992 34.9351L24.293 40.8518C24.3156 40.8801 24.34 40.903 24.3627 40.9278L32.9527 49.3903L31.5573 50.8054C29.1742 53.2187 29.1742 57.1514 31.5573 59.5683C32.3185 60.3403 33.2505 60.8809 34.2661 61.1583C33.6686 62.1318 33.3429 63.2554 33.3429 64.432C33.3429 66.0874 33.9787 67.6403 35.1337 68.8117C36.2834 69.983 37.8199 70.6278 39.4522 70.6278C40.6124 70.6278 41.7203 70.2992 42.675 69.6915C42.9537 70.7162 43.4815 71.6631 44.248 72.4387C44.8281 73.0217 45.4953 73.4775 46.2287 73.7832C46.9621 74.0941 47.7547 74.2531 48.5717 74.2531C49.6762 74.2531 50.7336 73.9528 51.6656 73.3927C51.9304 74.4174 52.4547 75.3873 53.2421 76.1859C54.3971 77.3572 55.9319 78.0021 57.5607 78.0021C59.1895 78.0021 60.7277 77.3572 61.8826 76.1859L63.292 74.7602L64.5898 76.0763C65.8284 77.3325 67.4554 77.972 69.0703 77.972C70.4987 77.972 71.9185 77.4738 73.0491 76.4615C73.9619 75.647 74.603 74.6082 74.9131 73.4563C75.8729 74.0729 76.9913 74.3962 78.155 74.3962C79.7925 74.3962 81.3272 73.7514 82.4822 72.58C83.2801 71.7656 83.8131 70.7833 84.0727 69.7392C86.3913 71.0183 89.3598 70.6649 91.3213 68.6756C93.2741 66.6898 93.6225 63.6812 92.3648 61.3332C93.3943 61.0647 94.3646 60.5294 95.1712 59.7149C96.321 58.5436 96.9568 56.9871 96.9568 55.3317C96.9568 53.6763 96.321 52.1092 95.1712 50.952L93.6312 49.3903L106.264 38.2565L107.777 39.79C108.097 40.1098 108.51 40.2741 108.926 40.2741C109.343 40.2741 109.757 40.1098 110.073 39.79L121.525 28.1757C122.161 27.5361 122.161 26.492 121.525 25.8472V25.8507ZM13.0743 36.2743L3.91814 26.9938L26.6169 3.97361L35.773 13.2594L13.0743 36.2743ZM33.8515 57.238C33.308 56.6885 33.0119 55.9589 33.0119 55.1833C33.0119 54.4077 33.308 53.6781 33.8515 53.1322L41.9729 44.8958C42.5286 44.3269 43.262 44.0442 43.9954 44.0442C44.7288 44.0442 45.4605 44.3269 46.0214 44.8958C46.5597 45.4417 46.8611 46.1713 46.8611 46.9469C46.8611 47.7225 46.5597 48.4522 46.0214 49.0016L37.8948 57.238C37.3565 57.7839 36.6371 58.0895 35.8723 58.0895C35.1075 58.0895 34.3881 57.7839 33.8498 57.238H33.8515ZM41.4764 66.4814C40.9329 67.0326 40.2152 67.3329 39.4504 67.3329C38.6857 67.3329 37.9662 67.0326 37.4279 66.4814H37.4227C36.8844 65.9355 36.5883 65.2023 36.5883 64.4302C36.5883 63.6582 36.8844 62.925 37.4279 62.3756L40.1926 59.5683H40.1978L48.3191 51.3319L51.0872 48.5246C51.643 47.9557 52.3764 47.673 53.1132 47.673C53.8501 47.673 54.5783 47.9557 55.1357 48.5193C55.6793 49.0705 55.9754 49.7984 55.9754 50.5757C55.9754 51.3531 55.6793 52.081 55.1357 52.6304L52.3711 55.4342L52.3659 55.4395L46.4482 61.4374L41.4764 66.4849V66.4814ZM53.2387 67.4213V67.4266L50.5908 70.1084C50.0525 70.6579 49.3295 70.96 48.5683 70.96C47.807 70.96 47.084 70.6596 46.5423 70.1084C46.0005 69.5572 45.7026 68.8293 45.7026 68.0537C45.7026 67.2782 45.9988 66.5538 46.5423 66.0026L54.6636 57.7662C55.2194 57.2009 55.9528 56.9147 56.6861 56.9147C57.4195 56.9147 58.1564 57.2009 58.7121 57.7662C59.2539 58.3157 59.5518 59.0453 59.5518 59.8209C59.5518 60.5965 59.2557 61.3261 58.7121 61.872L54.6532 65.992L53.2387 67.4213ZM62.4122 70.9918L59.5832 73.8609C59.0414 74.4068 58.3219 74.7072 57.5572 74.7072C56.7924 74.7072 56.073 74.4068 55.5347 73.8609C54.4163 72.7267 54.4163 70.884 55.5347 69.7498L56.9492 68.3205L58.3585 66.886C58.902 66.3365 59.6197 66.0344 60.3845 66.0344C61.1492 66.0344 61.8687 66.3347 62.4105 66.886C63.5236 68.0202 63.5236 69.8593 62.4105 70.9918H62.4122ZM93.7096 55.3335C93.7096 56.1091 93.4135 56.8387 92.8752 57.3881C91.7568 58.5171 89.9434 58.5171 88.8267 57.3881L88.8215 57.3829C88.8215 57.3829 88.8023 57.3687 88.7988 57.3634C88.7901 57.3546 88.7797 57.344 88.7762 57.3352L82.7139 51.6994C82.0502 51.0828 81.0259 51.1305 80.4179 51.7983C79.8099 52.4714 79.857 53.5102 80.5155 54.1268L86.5534 59.7379L89.0253 62.2395C90.1385 63.3737 90.1385 65.2164 89.0253 66.3506C87.9069 67.4796 86.09 67.4796 84.9716 66.3506L82.4805 63.8207L76.2057 57.4571C75.5698 56.8122 74.5455 56.8122 73.9097 57.4571C73.2738 58.1019 73.2738 59.1407 73.9097 59.7856L80.181 66.1457C80.7367 66.7146 81.0154 67.4584 81.0154 68.2004C81.0154 68.9424 80.7367 69.6915 80.1845 70.2551C79.6427 70.801 78.9232 71.1013 78.1533 71.1013C77.3833 71.1013 76.669 70.801 76.1273 70.2551L73.3452 67.4283L73.34 67.423L69.1661 63.19C68.5303 62.5452 67.5007 62.5452 66.8701 63.19C66.2342 63.8296 66.2342 64.8737 66.8701 65.5132L71.044 69.7462C71.6102 70.3204 71.9063 71.0872 71.8784 71.8963C71.8558 72.7055 71.5074 73.4493 70.8994 73.9899C69.7723 74.9916 68.0094 74.8874 66.8823 73.7461L65.4904 72.3345C67.0495 69.93 66.7847 66.6669 64.7065 64.5539C63.9278 63.7677 62.9819 63.2271 61.9471 62.9497C63.3198 60.5753 63.0132 57.4694 61.0064 55.4324C60.2277 54.6427 59.2905 54.1162 58.2923 53.8424C58.8951 52.8689 59.2191 51.7453 59.2191 50.5687C59.2191 48.9133 58.5832 47.3568 57.4283 46.1855C55.3831 44.1167 52.2422 43.8234 49.8818 45.311C49.6083 44.281 49.0752 43.3358 48.3139 42.5637C45.9308 40.1469 42.053 40.1469 39.6734 42.5637L35.2434 47.0565L26.6587 38.5992L21.2828 32.5978L36.273 17.3953L47.3715 24.1918C46.5963 26.5433 46.4987 29.112 47.159 31.5766L48.9498 38.2229C49.117 38.8289 49.3539 39.389 49.6553 39.8836C49.7859 40.1045 49.934 40.3077 50.0873 40.5091C50.1291 40.5603 50.1657 40.6133 50.2075 40.6645C50.3469 40.8341 50.4897 40.9931 50.643 41.1451C50.6657 41.168 50.6901 41.1928 50.7127 41.2157C50.8852 41.3853 51.0698 41.5408 51.2597 41.6857C51.3102 41.7228 51.3573 41.7564 51.4078 41.7934C51.5698 41.9118 51.737 42.0196 51.9043 42.1185C51.9461 42.1415 51.9879 42.1698 52.0297 42.1945C52.2335 42.3076 52.4478 42.41 52.6655 42.5001C52.716 42.5231 52.7683 42.5372 52.8188 42.562C53 42.6273 53.1812 42.6892 53.3658 42.7457C53.4216 42.7598 53.4773 42.774 53.5278 42.7881C53.7543 42.8499 53.9877 42.8923 54.2194 42.9241C54.2665 42.933 54.3083 42.933 54.3536 42.9383C54.5522 42.9612 54.7473 42.9754 54.9511 42.9754C54.9877 42.9754 55.0208 42.9842 55.0573 42.9842C55.0904 42.9842 55.1218 42.9789 55.1549 42.9789C55.2716 42.9736 55.3814 42.9701 55.4981 42.9595C55.5765 42.9542 55.6601 42.9506 55.7437 42.94C55.8604 42.9259 55.9806 42.9065 56.1008 42.8888C56.1757 42.8747 56.2541 42.8658 56.3273 42.8464C56.4614 42.8234 56.5921 42.7846 56.721 42.7475C56.7854 42.7333 56.8516 42.7192 56.9109 42.6998C57.106 42.6379 57.2959 42.5673 57.491 42.4878C58.6651 42.0072 59.6563 41.1804 60.3618 40.1133C61.0621 39.0498 61.4332 37.8131 61.4332 36.5287C61.4332 35.5411 61.6318 34.5853 62.0272 33.6931C62.2781 33.1331 62.5969 32.6207 62.9732 32.1543C63.1996 31.8716 63.4418 31.5996 63.7153 31.3505C64.7866 30.377 66.1315 29.8965 67.4728 29.8965C68.924 29.8965 70.3664 30.4565 71.4656 31.5713L92.87 53.2788C93.4083 53.8194 93.7044 54.5491 93.7044 55.3299L93.7096 55.3335ZM91.3318 47.06L73.7668 29.2463C70.4326 25.8648 65.0706 25.7147 61.5604 28.8983C60.4977 29.8576 59.6581 31.0201 59.0745 32.3504C58.4909 33.6666 58.193 35.0782 58.193 36.5322C58.193 37.1576 58.0118 37.7654 57.6687 38.2865C57.3255 38.8095 56.8429 39.2088 56.2681 39.4437C54.8622 40.032 53.216 39.4861 52.4234 38.1646C52.284 37.9297 52.1691 37.6558 52.0889 37.3608L50.2981 30.7144C49.4219 27.446 50.3451 23.9268 52.7004 21.5329L57.2541 16.9183C59.4577 14.6834 63.6682 15.8406 68.1261 17.0596C69.9065 17.549 71.7478 18.0525 73.4829 18.3245C77.2579 18.9129 81.5537 17.7327 84.7904 16.4801L103.963 35.9245L91.33 47.0582L91.3318 47.06ZM108.928 36.3025L86.2293 13.2824L95.3855 3.99658L118.084 27.0167L108.928 36.3025Z" fill="#1C1C1C"/>
<path d="M95.3848 3.99668L86.2288 13.2823L108.927 36.3023L118.083 27.0166L95.3848 3.99668Z" fill="#FF6F10"/>
<path d="M35.7727 13.2591L13.074 36.2739L3.91785 26.9934L26.6166 3.97327L35.7727 13.2591Z" fill="#FF6F10"/>
</g>
<defs>
<clipPath id="clip0_149_905">
<rect width="122" height="78" fill="white"/>
</clipPath>
</defs>
</svg>
