<?xml version="1.0" encoding="utf-8"?>
<!-- Generator: Adobe Illustrator 27.9.0, SVG Export Plug-In . SVG Version: 6.00 Build 0)  -->
<svg version="1.1" id="Layer_1" xmlns="http://www.w3.org/2000/svg" xmlns:xlink="http://www.w3.org/1999/xlink" x="0px" y="0px"
	 viewBox="0 0 200 49" style="enable-background:new 0 0 200 49;" xml:space="preserve">
<style type="text/css">
	.st0{fill-rule:evenodd;clip-rule:evenodd;fill:#F47521;}
	.st1{fill-rule:evenodd;clip-rule:evenodd;fill:#58585A;}
	.st2{fill:#58585A;}
</style>
<g>
	<g>
		<path class="st0" d="M26.16,6.7l3.88,11.84l1.08,4.41l1.08-4.41L35.85,6.7h4.09l2.48,20.77H39.4l-1.29-12.92l-0.54-5.49l-1.4,5.49
			l-4.31,13.02h-1.61l-4.52-13.02l-1.51-5.49l-0.32,5.6l-1.18,12.92H19.7l2.15-20.77C21.85,6.7,26.16,6.7,26.16,6.7z M50.05,6.7
			v20.77h-3.12V6.7H50.05z M53.71,9.07V6.7h16.04v2.37h-6.46v18.41h-3.12V9.07H53.71z"/>
		<path class="st1" d="M85.36,13.7c0.22,0.11,0.54,0.22,0.86,0.32c0.32,0.11,0.75,0.11,1.08,0.11c0.54,0,0.97-0.11,1.29-0.32
			s0.43-0.54,0.43-0.97c0-0.32-0.11-0.54-0.22-0.75c-0.11-0.22-0.32-0.32-0.54-0.54c-0.22-0.11-0.54-0.32-1.08-0.54
			c-1.4-0.65-2.05-1.4-2.05-2.26c0-0.43,0.11-0.75,0.32-1.08c0.22-0.32,0.54-0.54,0.97-0.65s0.75-0.22,1.18-0.22
			c0.43,0,0.86,0,1.08,0.11c0.32,0.11,0.54,0.22,0.75,0.32l-0.22,0.75c-0.22-0.11-0.43-0.22-0.75-0.32
			c-0.22-0.11-0.54-0.11-0.97-0.11c-0.32,0-0.54,0-0.86,0.11c-0.22,0.11-0.43,0.22-0.65,0.32c-0.11,0.22-0.22,0.32-0.22,0.65
			c0,0.32,0.11,0.54,0.22,0.75c0.11,0.22,0.32,0.32,0.54,0.54c0.22,0.11,0.54,0.32,0.97,0.54s0.86,0.43,1.08,0.65
			c0.32,0.22,0.54,0.43,0.75,0.65c0.22,0.32,0.32,0.65,0.32,0.97c0,0.43-0.11,0.86-0.32,1.08c-0.22,0.32-0.54,0.54-0.86,0.65
			c-0.43,0.11-0.86,0.22-1.29,0.22c-0.32,0-0.65,0-0.97-0.11c-0.32,0-0.54-0.11-0.75-0.22s-0.43-0.11-0.54-0.22
			C85.15,14.45,85.36,13.7,85.36,13.7z M93.65,9.07c0.32,0,0.65,0,0.86,0.11c0.22,0.11,0.43,0.11,0.54,0.22l-0.11,0.75
			c-0.11-0.11-0.32-0.22-0.54-0.32s-0.43-0.11-0.75-0.11c-0.32,0-0.65,0.11-0.97,0.22c-0.32,0.22-0.54,0.43-0.65,0.75
			c-0.22,0.32-0.22,0.75-0.22,1.29c0,0.54,0.11,0.86,0.22,1.18c0.22,0.32,0.43,0.65,0.65,0.75c0.32,0.22,0.54,0.22,0.97,0.22
			c0.32,0,0.54,0,0.86-0.11c0.22-0.11,0.43-0.22,0.65-0.22l0.22,0.43c-0.22,0.22-0.43,0.32-0.75,0.43s-0.65,0.11-1.08,0.11
			c-0.54,0-0.97-0.11-1.4-0.32c-0.43-0.22-0.65-0.54-0.86-0.97c-0.22-0.43-0.32-0.97-0.32-1.51c0-0.54,0.11-1.08,0.32-1.51
			c0.22-0.43,0.54-0.86,0.97-1.08C92.57,9.18,93.11,9.07,93.65,9.07z M99.57,9.07c0.43,0,0.75,0.11,0.97,0.22
			c0.22,0.11,0.43,0.43,0.54,0.75c0.11,0.32,0.22,0.86,0.22,1.4v3.44h-0.86v-3.44c0-0.43,0-0.75-0.11-0.97
			c-0.11-0.22-0.22-0.43-0.43-0.54c-0.22-0.11-0.43-0.11-0.75-0.11c-0.32,0-0.54,0.11-0.86,0.22c-0.32,0.11-0.65,0.32-0.86,0.54
			v4.41h-0.86V6.38h0.86v2.58v0.75c0.22-0.22,0.65-0.43,0.97-0.54C98.71,9.07,99.14,9.07,99.57,9.07L99.57,9.07z M102.8,11.87
			c0-0.65,0.11-1.08,0.32-1.51c0.22-0.43,0.54-0.75,0.97-0.97c0.43-0.22,0.86-0.32,1.4-0.32c0.54,0,1.08,0.11,1.4,0.43
			c0.43,0.22,0.65,0.65,0.86,1.08c0.22,0.43,0.22,0.97,0.22,1.51c0,0.65-0.11,1.08-0.32,1.61c-0.22,0.43-0.54,0.75-0.97,0.97
			s-0.86,0.32-1.4,0.32c-0.54,0-1.08-0.11-1.4-0.43c-0.43-0.22-0.65-0.65-0.86-1.08C102.91,12.94,102.8,12.51,102.8,11.87
			L102.8,11.87z M107.1,11.97c0-0.43-0.11-0.86-0.22-1.18c-0.11-0.32-0.32-0.65-0.54-0.86c-0.32-0.22-0.65-0.32-0.97-0.32
			c-0.32,0-0.65,0.11-0.97,0.22c-0.22,0.22-0.43,0.43-0.65,0.75c-0.11,0.32-0.22,0.75-0.22,1.18c0,0.43,0.11,0.86,0.22,1.18
			c0.11,0.32,0.32,0.65,0.54,0.86s0.54,0.32,0.97,0.32c0.32,0,0.65-0.11,0.97-0.32c0.22-0.22,0.43-0.43,0.54-0.75
			C107,12.83,107.1,12.4,107.1,11.97z M109.04,11.87c0-0.65,0.11-1.08,0.32-1.51c0.22-0.43,0.54-0.75,0.97-0.97
			c0.43-0.22,0.86-0.32,1.4-0.32s1.08,0.11,1.4,0.43c0.43,0.22,0.65,0.65,0.86,1.08c0.22,0.43,0.22,0.97,0.22,1.51
			c0,0.65-0.11,1.08-0.32,1.61c-0.22,0.43-0.54,0.75-0.97,0.97s-0.86,0.32-1.4,0.32s-1.08-0.11-1.4-0.43
			c-0.32-0.32-0.65-0.65-0.86-1.08C109.15,12.94,109.04,12.51,109.04,11.87L109.04,11.87z M113.35,11.97c0-0.43-0.11-0.86-0.22-1.18
			c-0.11-0.32-0.32-0.65-0.54-0.86s-0.54-0.32-0.97-0.32c-0.32,0-0.65,0.11-0.97,0.22c-0.22,0.22-0.43,0.43-0.65,0.75
			c-0.11,0.32-0.22,0.75-0.22,1.18c0,0.43,0.11,0.86,0.22,1.18c0.11,0.32,0.32,0.65,0.54,0.86c0.22,0.22,0.54,0.32,0.97,0.32
			c0.32,0,0.65-0.11,0.97-0.32c0.22-0.22,0.43-0.43,0.54-0.75C113.24,12.83,113.35,12.4,113.35,11.97z M116.68,6.38v8.4h-0.86v-8.4
			H116.68z M121.64,11.87c0-0.65,0.11-1.08,0.32-1.51c0.22-0.43,0.54-0.75,0.97-0.97c0.43-0.22,0.86-0.32,1.4-0.32
			c0.54,0,1.08,0.11,1.4,0.43c0.43,0.22,0.65,0.65,0.86,1.08c0.22,0.43,0.22,0.97,0.22,1.51c0,0.65-0.11,1.08-0.32,1.61
			c-0.22,0.43-0.54,0.75-0.97,0.97s-0.86,0.32-1.4,0.32c-0.54,0-1.08-0.11-1.4-0.43c-0.43-0.22-0.65-0.65-0.86-1.08
			C121.74,12.94,121.64,12.51,121.64,11.87z M125.94,11.97c0-0.43-0.11-0.86-0.22-1.18c-0.11-0.32-0.32-0.65-0.54-0.86
			s-0.54-0.32-0.97-0.32c-0.32,0-0.65,0.11-0.97,0.22c-0.22,0.22-0.43,0.43-0.65,0.75c-0.11,0.32-0.22,0.75-0.22,1.18
			c0,0.43,0.11,0.86,0.22,1.18c0.11,0.32,0.32,0.65,0.54,0.86c0.22,0.22,0.54,0.32,0.97,0.32c0.32,0,0.65-0.11,0.97-0.32
			c0.22-0.22,0.43-0.43,0.54-0.75C125.94,12.83,125.94,12.4,125.94,11.97z M127.77,9.71V9.28l0.97-0.22V8.53
			c0-0.54,0.11-0.97,0.32-1.29c0.22-0.32,0.43-0.65,0.75-0.75c0.32-0.11,0.65-0.22,0.97-0.22c0.11,0,0.32,0,0.43,0s0.22,0,0.32,0.11
			v0.75c-0.11,0-0.22-0.11-0.32-0.11c-0.11,0-0.32,0-0.43,0c-0.32,0-0.54,0.11-0.75,0.32c-0.22,0.22-0.32,0.65-0.32,1.08v0.65h1.51
			v0.65h-1.51v5.17h-0.86V9.71L127.77,9.71L127.77,9.71L127.77,9.71z M85.47,20.26h0.65h0.75h0.97c0.86,0,1.51,0.11,2.05,0.43
			c0.54,0.32,0.97,0.75,1.18,1.29c0.32,0.54,0.43,1.18,0.43,1.94c0,0.86-0.11,1.51-0.43,2.15c-0.32,0.65-0.75,1.08-1.29,1.4
			c-0.54,0.32-1.18,0.54-2.05,0.54h-0.86H85.9h-0.54L85.47,20.26L85.47,20.26z M87.84,27.37c0.54,0,1.08-0.11,1.51-0.32
			c0.43-0.22,0.75-0.65,0.97-1.18c0.22-0.54,0.32-1.18,0.32-1.94c0-1.08-0.22-1.94-0.75-2.37c-0.54-0.54-1.29-0.75-2.26-0.75
			c-0.43,0-0.75,0-1.29,0.11v6.46c0.22,0,0.43,0.11,0.75,0.11C87.41,27.37,87.62,27.37,87.84,27.37z M93.97,22.2v5.81h-0.86V22.2
			H93.97z M92.9,20.37c0-0.11,0-0.22,0.11-0.32c0.11-0.11,0.11-0.22,0.22-0.22c0.11-0.11,0.22-0.11,0.32-0.11
			c0.22,0,0.32,0,0.43,0.11c0.11,0.11,0.11,0.22,0.11,0.43c0,0.11,0,0.22-0.11,0.32c-0.11,0.11-0.11,0.22-0.22,0.22
			c-0.11,0.11-0.22,0.11-0.32,0.11s-0.32,0-0.43-0.11C93,20.69,92.9,20.48,92.9,20.37z M95.8,26.94c0.11,0,0.22,0.11,0.43,0.22
			c0.22,0.11,0.43,0.11,0.65,0.22c0.22,0,0.43,0.11,0.65,0.11c0.43,0,0.65-0.11,0.97-0.22c0.22-0.11,0.32-0.32,0.32-0.65
			c0-0.22-0.11-0.32-0.22-0.43c-0.11-0.11-0.32-0.22-0.43-0.32c-0.22-0.11-0.43-0.22-0.75-0.32c-0.54-0.22-0.97-0.43-1.18-0.75
			c-0.32-0.32-0.43-0.65-0.43-1.08c0-0.32,0.11-0.54,0.32-0.75c0.22-0.22,0.43-0.43,0.75-0.54c0.32-0.11,0.65-0.11,1.08-0.11
			c0.32,0,0.65,0,0.86,0.11c0.32,0.11,0.43,0.11,0.65,0.22l-0.11,0.75c-0.11-0.11-0.32-0.22-0.54-0.22
			c-0.22-0.11-0.54-0.11-0.75-0.11c-0.43,0-0.75,0.11-0.97,0.22c-0.22,0.11-0.32,0.32-0.32,0.54s0,0.32,0.11,0.54
			c0.11,0.11,0.22,0.22,0.43,0.32c0.22,0.11,0.43,0.22,0.65,0.32c0.32,0.11,0.65,0.22,0.86,0.43c0.22,0.11,0.43,0.32,0.65,0.54
			s0.22,0.43,0.22,0.75c0,0.32-0.11,0.65-0.22,0.86c-0.22,0.22-0.43,0.43-0.75,0.54c-0.32,0.11-0.65,0.22-1.08,0.22
			c-0.32,0-0.75,0-1.08-0.11c-0.32-0.11-0.65-0.22-0.75-0.32L95.8,26.94z M101.29,22.85h-0.86v-0.43c0.11,0,0.11,0,0.32-0.11
			c0.22,0,0.32-0.11,0.43-0.11s0.11-0.11,0.22-0.22c0-0.11,0.11-0.22,0.11-0.54c0.11-0.32,0.11-0.54,0.11-0.75h0.54v1.4h1.83v0.65
			h-1.83v3.23c0,0.43,0,0.65,0.11,0.86c0,0.22,0.11,0.32,0.22,0.32c0.11,0,0.22,0.11,0.43,0.11c0.22,0,0.32,0,0.65-0.11
			c0.22-0.11,0.43-0.11,0.54-0.22l0.11,0.54c-0.11,0.11-0.43,0.22-0.65,0.32c-0.32,0.11-0.54,0.11-0.86,0.11
			c-0.22,0-0.54,0-0.65-0.11c-0.22-0.11-0.32-0.22-0.43-0.43c-0.11-0.22-0.22-0.54-0.22-0.86L101.29,22.85L101.29,22.85z
			 M107.32,22.2c0.43,0,0.75,0,1.08,0.11c0.32,0.11,0.54,0.32,0.65,0.54c0.11,0.22,0.22,0.65,0.22,1.08v4.09h-0.32
			c-0.11,0-0.22,0-0.22,0l-0.11-0.11c0-0.11,0-0.11,0-0.22v-0.22c-0.22,0.22-0.43,0.32-0.75,0.43s-0.65,0.22-1.08,0.22
			c-0.32,0-0.65-0.11-0.97-0.22c-0.32-0.11-0.43-0.32-0.65-0.54c-0.11-0.22-0.22-0.54-0.22-0.86c0-0.43,0.11-0.75,0.32-0.97
			c0.22-0.32,0.54-0.43,0.97-0.65c0.32-0.11,0.65-0.22,1.08-0.22c0.43-0.11,0.86-0.11,1.18-0.11v-0.65c0-0.32,0-0.54-0.11-0.65
			c-0.11-0.11-0.22-0.22-0.43-0.32c-0.22,0-0.43-0.11-0.75-0.11c-0.22,0-0.43,0-0.65,0.11c-0.22,0-0.43,0.11-0.65,0.22
			s-0.32,0.11-0.43,0.22l-0.22-0.54c0.11-0.11,0.22-0.11,0.43-0.22c0.22-0.11,0.54-0.22,0.75-0.22
			C106.78,22.2,107.1,22.2,107.32,22.2L107.32,22.2z M107,27.37c0.22,0,0.43,0,0.65-0.11s0.43-0.11,0.54-0.22
			c0.11-0.11,0.22-0.11,0.32-0.22V25c-0.32,0-0.54,0-0.97,0.11c-0.32,0-0.65,0.11-0.86,0.22c-0.32,0.11-0.54,0.22-0.65,0.43
			c-0.11,0.22-0.22,0.43-0.22,0.65c0,0.32,0.11,0.54,0.32,0.75C106.24,27.26,106.57,27.37,107,27.37L107,27.37z M112.06,22.2v0.86
			c0.32-0.22,0.65-0.43,0.97-0.54c0.43-0.22,0.75-0.22,1.18-0.22s0.75,0.11,0.97,0.22c0.22,0.11,0.43,0.43,0.54,0.75
			c0.11,0.32,0.22,0.75,0.22,1.29v3.55h-0.86v-3.55c0-0.43,0-0.75-0.11-0.97c-0.11-0.22-0.22-0.43-0.32-0.54
			c-0.22-0.11-0.43-0.11-0.75-0.11c-0.22,0-0.54,0.11-0.86,0.22c-0.32,0.11-0.65,0.32-0.86,0.54v4.41h-0.86v-5.81L112.06,22.2
			L112.06,22.2z M120.13,22.2c0.32,0,0.65,0,0.86,0.11c0.22,0.11,0.43,0.11,0.54,0.22l-0.11,0.75c-0.11-0.11-0.32-0.22-0.54-0.32
			c-0.22-0.11-0.43-0.11-0.75-0.11s-0.65,0.11-0.97,0.22c-0.32,0.22-0.54,0.43-0.65,0.75c-0.22,0.32-0.22,0.75-0.22,1.29
			c0,0.54,0.11,0.86,0.22,1.18c0.22,0.32,0.43,0.65,0.65,0.75c0.32,0.22,0.54,0.22,0.97,0.22c0.32,0,0.54,0,0.86-0.11
			c0.22-0.11,0.43-0.22,0.65-0.22l0.22,0.43c-0.22,0.22-0.43,0.32-0.75,0.43c-0.32,0.11-0.65,0.11-1.08,0.11
			c-0.54,0-0.97-0.11-1.4-0.32c-0.43-0.22-0.65-0.54-0.86-0.97c-0.22-0.43-0.32-0.97-0.32-1.51c0-0.54,0.11-1.08,0.32-1.51
			c0.22-0.43,0.54-0.86,0.97-1.08C119.05,22.31,119.59,22.2,120.13,22.2L120.13,22.2z M123.36,25.11v0.22
			c0,0.75,0.22,1.18,0.54,1.61c0.32,0.32,0.75,0.54,1.4,0.54c0.22,0,0.54,0,0.86-0.11c0.32-0.11,0.54-0.22,0.75-0.22l0.22,0.54
			c-0.22,0.11-0.43,0.32-0.86,0.43s-0.75,0.11-1.08,0.11c-0.54,0-0.97-0.11-1.4-0.32c-0.43-0.22-0.65-0.54-0.86-0.97
			c-0.22-0.43-0.32-1.18-0.32-1.83c0-0.54,0.11-1.08,0.32-1.51c0.22-0.43,0.54-0.75,0.86-1.08c0.43-0.22,0.86-0.32,1.4-0.32
			c0.43,0,0.75,0.11,1.08,0.22c0.32,0.22,0.54,0.43,0.75,0.75c0.22,0.32,0.22,0.65,0.32,1.08c0,0.22,0,0.43,0,0.54s0,0.22,0,0.32
			C127.23,25.11,123.36,25.11,123.36,25.11z M125.08,22.74c-0.43,0-0.86,0.11-1.18,0.43s-0.54,0.75-0.54,1.29h3.01
			c0,0,0-0.11,0-0.22c0-0.43-0.11-0.86-0.32-1.08C125.94,22.95,125.62,22.74,125.08,22.74L125.08,22.74z M136.6,20.26v0.65h-3.55
			v2.8h2.58v0.65h-2.58v3.01h3.88v0.65h-4.74v-7.75C132.18,20.26,136.6,20.26,136.6,20.26z M142.73,19.62v8.4h-0.32
			c-0.11,0-0.22,0-0.32-0.11c-0.11,0-0.11-0.11-0.11-0.32v-0.32c-0.22,0.22-0.43,0.32-0.75,0.54c-0.32,0.11-0.65,0.22-1.08,0.22
			c-0.43,0-0.75-0.11-1.18-0.32c-0.32-0.22-0.65-0.54-0.86-0.86c-0.22-0.43-0.32-0.97-0.32-1.51c0-0.65,0.11-1.18,0.32-1.61
			c0.22-0.43,0.54-0.86,1.08-1.08c0.43-0.22,0.97-0.43,1.51-0.43c0.43,0,0.75,0.11,1.08,0.22v-0.32v-2.48L142.73,19.62L142.73,19.62
			z M138.64,25.21c0,0.75,0.11,1.29,0.43,1.61c0.32,0.32,0.75,0.54,1.18,0.54c0.32,0,0.54-0.11,0.86-0.22
			c0.22-0.11,0.43-0.22,0.65-0.43v-3.77c-0.11-0.11-0.22-0.11-0.43-0.22s-0.43-0.11-0.75-0.11c-0.32,0-0.75,0.11-0.97,0.32
			c-0.32,0.22-0.54,0.43-0.65,0.86C138.75,24.24,138.64,24.68,138.64,25.21z M149.08,22.2v5.81h-0.32c-0.11,0-0.22,0-0.32-0.11
			c-0.11,0-0.11-0.11-0.11-0.32v-0.32c-0.32,0.22-0.65,0.32-0.97,0.43c-0.32,0.11-0.75,0.22-1.08,0.22c-0.43,0-0.86-0.11-1.08-0.32
			c-0.22-0.22-0.43-0.43-0.54-0.86c-0.11-0.32-0.11-0.75-0.11-1.29v-3.34h0.86v3.44c0,0.43,0,0.86,0.11,1.08
			c0.11,0.22,0.22,0.43,0.32,0.54c0.22,0.11,0.43,0.11,0.75,0.11s0.54-0.11,0.86-0.22s0.54-0.22,0.75-0.32v-4.63h0.86V22.2z
			 M153.28,22.2c0.32,0,0.65,0,0.86,0.11c0.22,0.11,0.43,0.11,0.54,0.22l-0.11,0.75c-0.11-0.11-0.32-0.22-0.54-0.32
			c-0.22-0.11-0.43-0.11-0.75-0.11s-0.65,0.11-0.97,0.22c-0.32,0.22-0.54,0.43-0.65,0.75c-0.22,0.32-0.22,0.75-0.22,1.29
			c0,0.54,0.11,0.86,0.22,1.18c0.11,0.32,0.43,0.65,0.65,0.75c0.32,0.22,0.54,0.22,0.97,0.22c0.32,0,0.54,0,0.86-0.11
			c0.22-0.11,0.43-0.22,0.65-0.22l0.22,0.43c-0.22,0.22-0.43,0.32-0.75,0.43c-0.32,0.11-0.65,0.11-1.08,0.11
			c-0.54,0-0.97-0.11-1.4-0.32c-0.43-0.22-0.65-0.54-0.86-0.97c-0.22-0.43-0.32-0.97-0.32-1.51c0-0.54,0.11-1.08,0.32-1.51
			s0.54-0.86,0.97-1.08C152.21,22.31,152.74,22.2,153.28,22.2L153.28,22.2z M158.13,22.2c0.43,0,0.75,0,1.08,0.11
			c0.32,0.11,0.54,0.32,0.65,0.54c0.11,0.22,0.22,0.65,0.22,1.08v4.09h-0.32c-0.11,0-0.22,0-0.22,0c-0.11,0-0.11-0.11-0.11-0.11
			c0-0.11,0-0.11,0-0.22v-0.22c-0.22,0.22-0.43,0.32-0.75,0.43s-0.65,0.22-1.08,0.22c-0.32,0-0.65-0.11-0.97-0.22
			c-0.32-0.11-0.43-0.32-0.65-0.54c-0.11-0.22-0.22-0.54-0.22-0.86c0-0.43,0.11-0.75,0.32-0.97c0.22-0.32,0.54-0.43,0.97-0.65
			c0.32-0.11,0.65-0.22,1.08-0.22c0.43-0.11,0.86-0.11,1.18-0.11v-0.65c0-0.32,0-0.54-0.11-0.65s-0.22-0.22-0.43-0.32
			c-0.22,0-0.43-0.11-0.75-0.11c-0.22,0-0.43,0-0.65,0.11c-0.22,0-0.43,0.11-0.65,0.22s-0.32,0.11-0.43,0.22l-0.22-0.54
			c0.11-0.11,0.22-0.11,0.43-0.22c0.22-0.11,0.54-0.22,0.75-0.22C157.59,22.2,157.8,22.2,158.13,22.2z M157.8,27.37
			c0.22,0,0.43,0,0.65-0.11c0.22-0.11,0.43-0.11,0.54-0.22c0.11-0.11,0.22-0.11,0.32-0.22V25c-0.32,0-0.54,0-0.97,0.11
			c-0.32,0-0.65,0.11-0.86,0.22c-0.32,0.11-0.54,0.22-0.65,0.43c-0.11,0.22-0.22,0.43-0.22,0.65c0,0.32,0.11,0.54,0.32,0.75
			C157.05,27.26,157.37,27.37,157.8,27.37z M162.22,22.85h-0.86v-0.43c0.11,0,0.11,0,0.32-0.11c0.22,0,0.32-0.11,0.43-0.11
			c0.11,0,0.11-0.11,0.22-0.22c0-0.11,0.11-0.22,0.11-0.54c0.11-0.32,0.11-0.54,0.11-0.75h0.54v1.4h1.83v0.65h-1.83v3.23
			c0,0.43,0,0.65,0.11,0.86c0,0.22,0.11,0.32,0.22,0.32c0.11,0,0.22,0.11,0.43,0.11c0.22,0,0.32,0,0.65-0.11
			c0.22-0.11,0.43-0.11,0.54-0.22l0.11,0.54c-0.11,0.11-0.43,0.22-0.65,0.32c-0.32,0.11-0.54,0.11-0.86,0.11
			c-0.22,0-0.54,0-0.65-0.11c-0.22-0.11-0.32-0.22-0.43-0.43c-0.11-0.22-0.22-0.54-0.22-0.86L162.22,22.85L162.22,22.85
			L162.22,22.85z M167.28,22.2v5.81h-0.86V22.2H167.28z M166.31,20.37c0-0.11,0-0.22,0.11-0.32c0.11-0.11,0.11-0.22,0.22-0.22
			c0.11-0.11,0.22-0.11,0.32-0.11c0.22,0,0.32,0,0.43,0.11c0.11,0.11,0.11,0.22,0.11,0.43c0,0.11,0,0.22-0.11,0.32
			c-0.11,0.11-0.11,0.22-0.22,0.22c-0.11,0.11-0.22,0.11-0.32,0.11c-0.11,0-0.32,0-0.43-0.11
			C166.31,20.69,166.31,20.48,166.31,20.37L166.31,20.37z M168.89,25.11c0-0.65,0.11-1.08,0.32-1.51c0.22-0.43,0.54-0.75,0.97-0.97
			c0.43-0.22,0.86-0.32,1.4-0.32c0.54,0,1.08,0.11,1.4,0.43c0.43,0.22,0.65,0.65,0.86,1.08c0.22,0.43,0.22,0.97,0.22,1.51
			c0,0.65-0.11,1.08-0.32,1.61c-0.22,0.43-0.54,0.75-0.97,0.97c-0.43,0.22-0.86,0.32-1.4,0.32s-1.08-0.11-1.4-0.43
			c-0.43-0.22-0.65-0.65-0.86-1.08C169,26.07,168.89,25.64,168.89,25.11z M173.2,25.11c0-0.43-0.11-0.86-0.22-1.18
			c-0.11-0.32-0.32-0.65-0.54-0.86c-0.22-0.22-0.54-0.32-0.97-0.32c-0.32,0-0.65,0.11-0.97,0.22c-0.22,0.22-0.43,0.43-0.65,0.75
			c-0.11,0.32-0.22,0.75-0.22,1.18c0,0.43,0.11,0.86,0.22,1.18c0.11,0.32,0.32,0.65,0.54,0.86c0.22,0.22,0.54,0.32,0.97,0.32
			c0.32,0,0.65-0.11,0.97-0.32c0.22-0.22,0.43-0.43,0.54-0.75C173.2,25.97,173.2,25.64,173.2,25.11z M176.42,22.2v0.86
			c0.32-0.22,0.65-0.43,0.97-0.54c0.43-0.22,0.75-0.22,1.18-0.22c0.43,0,0.75,0.11,0.97,0.22c0.22,0.11,0.43,0.43,0.54,0.75
			c0.11,0.32,0.22,0.75,0.22,1.29v3.55h-0.86v-3.55c0-0.43,0-0.75-0.11-0.97c-0.11-0.22-0.22-0.43-0.32-0.54
			c-0.22-0.11-0.43-0.11-0.75-0.11c-0.22,0-0.54,0.11-0.86,0.22c-0.32,0.11-0.65,0.32-0.86,0.54v4.41h-0.86v-5.81h0.75V22.2z"/>
		<rect x="76.75" y="6.7" class="st2" width="1.4" height="20.88"/>
	</g>
	<g>
		<path class="st2" d="M26.72,42.75c0.03,0.07,0.04,0.12,0.04,0.17c0,0.04-0.01,0.07-0.04,0.1c-0.03,0.02-0.07,0.04-0.13,0.04
			c-0.06,0.01-0.14,0.01-0.24,0.01c-0.1,0-0.18,0-0.24-0.01c-0.06,0-0.1-0.01-0.14-0.02c-0.03-0.01-0.05-0.03-0.07-0.04
			c-0.01-0.02-0.03-0.04-0.04-0.07l-0.54-1.47h-2.61l-0.51,1.45c-0.01,0.03-0.02,0.05-0.04,0.07c-0.02,0.02-0.04,0.04-0.07,0.05
			c-0.03,0.01-0.07,0.02-0.13,0.03c-0.06,0.01-0.13,0.01-0.22,0.01c-0.09,0-0.17,0-0.23-0.01c-0.06-0.01-0.1-0.02-0.13-0.04
			c-0.02-0.02-0.04-0.05-0.03-0.1c0-0.04,0.02-0.1,0.04-0.17l2.1-5.62c0.01-0.03,0.03-0.06,0.05-0.08c0.02-0.02,0.05-0.04,0.09-0.05
			c0.04-0.01,0.09-0.02,0.15-0.03c0.06-0.01,0.14-0.01,0.24-0.01c0.1,0,0.19,0,0.26,0.01c0.07,0,0.12,0.01,0.16,0.03
			s0.07,0.03,0.1,0.05c0.02,0.02,0.04,0.05,0.05,0.09L26.72,42.75z M24.02,37.79L24.02,37.79l-1.08,3.01h2.18L24.02,37.79z"/>
		<path class="st2" d="M32.05,40.75c0,0.37-0.04,0.7-0.12,0.99c-0.08,0.29-0.2,0.54-0.36,0.74c-0.16,0.2-0.36,0.36-0.59,0.47
			c-0.24,0.11-0.51,0.17-0.81,0.17c-0.13,0-0.25-0.01-0.36-0.04c-0.11-0.03-0.22-0.06-0.32-0.12c-0.1-0.05-0.21-0.12-0.31-0.2
			s-0.21-0.18-0.33-0.29v2.1c0,0.02-0.01,0.05-0.02,0.07c-0.01,0.02-0.03,0.03-0.06,0.05c-0.03,0.01-0.07,0.02-0.12,0.03
			c-0.05,0.01-0.12,0.01-0.2,0.01c-0.08,0-0.14,0-0.19-0.01c-0.05-0.01-0.09-0.02-0.12-0.03c-0.03-0.01-0.05-0.03-0.06-0.05
			c-0.01-0.02-0.02-0.04-0.02-0.07v-5.87c0-0.03,0-0.05,0.01-0.07c0.01-0.02,0.03-0.03,0.06-0.04c0.03-0.01,0.07-0.02,0.11-0.03
			c0.05-0.01,0.1-0.01,0.16-0.01c0.07,0,0.12,0,0.17,0.01c0.04,0,0.08,0.01,0.11,0.03c0.03,0.01,0.05,0.03,0.06,0.04
			c0.01,0.02,0.02,0.04,0.02,0.07v0.56c0.13-0.13,0.26-0.24,0.38-0.34s0.25-0.18,0.37-0.24c0.12-0.06,0.25-0.11,0.38-0.15
			c0.13-0.03,0.27-0.05,0.41-0.05c0.32,0,0.59,0.06,0.81,0.18s0.4,0.28,0.55,0.49c0.14,0.21,0.24,0.44,0.31,0.72
			C32.02,40.15,32.05,40.44,32.05,40.75z M31.22,40.83c0-0.21-0.02-0.42-0.05-0.62c-0.03-0.2-0.09-0.38-0.18-0.53
			c-0.08-0.16-0.19-0.28-0.33-0.37c-0.14-0.09-0.31-0.14-0.52-0.14c-0.1,0-0.21,0.01-0.31,0.04c-0.1,0.03-0.2,0.08-0.31,0.14
			c-0.1,0.06-0.21,0.15-0.33,0.25c-0.11,0.1-0.23,0.23-0.36,0.39v1.67c0.22,0.26,0.43,0.46,0.63,0.59c0.2,0.14,0.41,0.21,0.62,0.21
			c0.2,0,0.37-0.05,0.52-0.14c0.14-0.09,0.26-0.22,0.35-0.37c0.09-0.16,0.15-0.33,0.2-0.52C31.2,41.23,31.22,41.03,31.22,40.83z"/>
		<path class="st2" d="M37.63,40.75c0,0.37-0.04,0.7-0.12,0.99c-0.08,0.29-0.2,0.54-0.36,0.74c-0.16,0.2-0.36,0.36-0.59,0.47
			c-0.24,0.11-0.51,0.17-0.81,0.17c-0.13,0-0.25-0.01-0.36-0.04c-0.11-0.03-0.22-0.06-0.32-0.12c-0.1-0.05-0.21-0.12-0.31-0.2
			c-0.1-0.08-0.21-0.18-0.33-0.29v2.1c0,0.02-0.01,0.05-0.02,0.07c-0.01,0.02-0.03,0.03-0.06,0.05c-0.03,0.01-0.07,0.02-0.12,0.03
			c-0.05,0.01-0.12,0.01-0.2,0.01c-0.08,0-0.14,0-0.19-0.01c-0.05-0.01-0.09-0.02-0.12-0.03c-0.03-0.01-0.05-0.03-0.06-0.05
			c-0.01-0.02-0.02-0.04-0.02-0.07v-5.87c0-0.03,0-0.05,0.01-0.07c0.01-0.02,0.03-0.03,0.06-0.04c0.03-0.01,0.07-0.02,0.11-0.03
			c0.05-0.01,0.1-0.01,0.16-0.01c0.07,0,0.12,0,0.17,0.01c0.04,0,0.08,0.01,0.11,0.03c0.03,0.01,0.05,0.03,0.06,0.04
			c0.01,0.02,0.02,0.04,0.02,0.07v0.56c0.13-0.13,0.26-0.24,0.38-0.34s0.25-0.18,0.37-0.24c0.12-0.06,0.25-0.11,0.38-0.15
			c0.13-0.03,0.27-0.05,0.41-0.05c0.32,0,0.59,0.06,0.81,0.18s0.4,0.28,0.55,0.49c0.14,0.21,0.24,0.44,0.31,0.72
			C37.6,40.15,37.63,40.44,37.63,40.75z M36.8,40.83c0-0.21-0.02-0.42-0.05-0.62c-0.03-0.2-0.09-0.38-0.18-0.53
			s-0.19-0.28-0.33-0.37c-0.14-0.09-0.31-0.14-0.52-0.14c-0.1,0-0.21,0.01-0.31,0.04c-0.1,0.03-0.2,0.08-0.31,0.14
			c-0.1,0.06-0.21,0.15-0.33,0.25c-0.11,0.1-0.23,0.23-0.36,0.39v1.67c0.22,0.26,0.43,0.46,0.63,0.59c0.2,0.14,0.41,0.21,0.62,0.21
			c0.2,0,0.37-0.05,0.52-0.14c0.14-0.09,0.26-0.22,0.35-0.37c0.09-0.16,0.15-0.33,0.2-0.52C36.78,41.23,36.8,41.03,36.8,40.83z"/>
		<path class="st2" d="M41.75,38.98c0,0.07,0,0.13,0,0.17c0,0.05-0.01,0.08-0.02,0.11c-0.01,0.03-0.02,0.05-0.04,0.06
			c-0.01,0.01-0.03,0.02-0.06,0.02c-0.03,0-0.06-0.01-0.09-0.02c-0.04-0.01-0.08-0.03-0.13-0.04c-0.05-0.01-0.1-0.03-0.16-0.04
			c-0.06-0.01-0.12-0.02-0.19-0.02c-0.08,0-0.16,0.02-0.24,0.05s-0.16,0.08-0.24,0.15c-0.09,0.07-0.18,0.17-0.27,0.29
			c-0.09,0.12-0.2,0.26-0.31,0.44v2.77c0,0.02-0.01,0.05-0.02,0.06c-0.01,0.02-0.03,0.03-0.06,0.04c-0.03,0.01-0.07,0.02-0.12,0.03
			c-0.05,0.01-0.12,0.01-0.2,0.01c-0.08,0-0.14,0-0.19-0.01c-0.05-0.01-0.09-0.02-0.12-0.03c-0.03-0.01-0.05-0.03-0.06-0.04
			c-0.01-0.02-0.02-0.04-0.02-0.06v-4.21c0-0.02,0-0.05,0.01-0.06c0.01-0.02,0.03-0.03,0.06-0.05c0.03-0.01,0.07-0.02,0.11-0.03
			c0.05-0.01,0.1-0.01,0.18-0.01c0.07,0,0.13,0,0.18,0.01c0.05,0,0.08,0.01,0.11,0.03c0.03,0.01,0.04,0.03,0.06,0.05
			c0.01,0.02,0.02,0.04,0.02,0.06v0.61c0.12-0.17,0.23-0.31,0.34-0.41c0.1-0.11,0.2-0.19,0.3-0.25c0.09-0.06,0.19-0.1,0.28-0.13
			c0.09-0.02,0.19-0.04,0.28-0.04c0.04,0,0.09,0,0.14,0.01c0.05,0,0.11,0.01,0.17,0.02c0.06,0.01,0.11,0.03,0.16,0.04
			c0.05,0.02,0.08,0.03,0.1,0.05c0.02,0.02,0.03,0.03,0.04,0.04c0.01,0.01,0.01,0.03,0.02,0.05c0.01,0.02,0.01,0.05,0.01,0.1
			C41.74,38.85,41.75,38.91,41.75,38.98z"/>
		<path class="st2" d="M46.92,40.76c0,0.34-0.05,0.66-0.14,0.95c-0.09,0.29-0.23,0.54-0.42,0.74c-0.19,0.21-0.42,0.37-0.7,0.49
			c-0.28,0.12-0.6,0.18-0.97,0.18c-0.36,0-0.67-0.05-0.94-0.15c-0.27-0.1-0.49-0.25-0.67-0.45c-0.18-0.2-0.31-0.44-0.4-0.72
			s-0.13-0.6-0.13-0.95c0-0.34,0.05-0.66,0.14-0.95c0.09-0.29,0.23-0.54,0.42-0.74s0.42-0.37,0.7-0.49c0.28-0.12,0.6-0.17,0.97-0.17
			c0.36,0,0.67,0.05,0.94,0.15c0.27,0.1,0.49,0.25,0.67,0.45c0.18,0.2,0.31,0.43,0.4,0.71C46.87,40.1,46.92,40.41,46.92,40.76z
			 M46.09,40.82c0-0.23-0.02-0.44-0.07-0.64c-0.04-0.2-0.12-0.38-0.22-0.53c-0.1-0.15-0.24-0.27-0.41-0.36
			c-0.17-0.09-0.39-0.13-0.64-0.13c-0.24,0-0.44,0.04-0.61,0.12c-0.17,0.08-0.31,0.2-0.42,0.34c-0.11,0.15-0.19,0.32-0.25,0.53
			c-0.05,0.2-0.08,0.42-0.08,0.66c0,0.23,0.02,0.45,0.07,0.65c0.04,0.2,0.12,0.38,0.22,0.53c0.1,0.15,0.24,0.27,0.41,0.36
			c0.17,0.09,0.39,0.13,0.64,0.13c0.23,0,0.44-0.04,0.61-0.12c0.17-0.08,0.31-0.19,0.43-0.34c0.11-0.15,0.19-0.32,0.24-0.52
			C46.06,41.28,46.09,41.06,46.09,40.82z"/>
		<path class="st2" d="M51.99,38.7c0,0.01,0,0.03,0,0.04c0,0.01,0,0.03-0.01,0.04c0,0.02-0.01,0.03-0.01,0.05
			c0,0.02-0.01,0.04-0.02,0.06l-1.49,4c-0.01,0.03-0.03,0.06-0.05,0.08c-0.02,0.02-0.05,0.04-0.09,0.05
			c-0.04,0.01-0.1,0.02-0.16,0.02c-0.06,0.01-0.15,0.01-0.24,0.01c-0.1,0-0.18,0-0.24-0.01c-0.06-0.01-0.12-0.02-0.16-0.03
			c-0.04-0.01-0.07-0.03-0.09-0.05s-0.04-0.05-0.05-0.08l-1.48-4c-0.01-0.04-0.02-0.07-0.03-0.1c-0.01-0.03-0.01-0.05-0.02-0.06
			c0-0.01,0-0.02,0-0.04c0-0.02,0.01-0.05,0.02-0.06c0.01-0.02,0.03-0.03,0.07-0.04c0.03-0.01,0.07-0.02,0.12-0.02
			c0.05,0,0.11,0,0.19,0c0.09,0,0.17,0,0.23,0.01c0.06,0,0.1,0.01,0.13,0.03s0.05,0.03,0.07,0.05c0.02,0.02,0.03,0.04,0.04,0.07
			l1.23,3.47l0.02,0.06l0.01-0.06l1.22-3.47c0.01-0.03,0.02-0.05,0.03-0.07c0.02-0.02,0.04-0.03,0.07-0.05s0.07-0.02,0.13-0.03
			c0.05-0.01,0.12-0.01,0.21-0.01c0.07,0,0.14,0,0.18,0c0.05,0,0.09,0.01,0.11,0.02c0.03,0.01,0.05,0.03,0.06,0.04
			C51.99,38.65,51.99,38.67,51.99,38.7z"/>
		<path class="st2" d="M56.89,40.63c0,0.12-0.03,0.21-0.09,0.26c-0.06,0.05-0.14,0.08-0.22,0.08h-2.87c0,0.23,0.02,0.44,0.07,0.63
			c0.05,0.19,0.13,0.35,0.24,0.48c0.11,0.13,0.26,0.24,0.44,0.31c0.18,0.07,0.4,0.11,0.67,0.11c0.21,0,0.39-0.02,0.55-0.05
			c0.16-0.03,0.3-0.07,0.42-0.11c0.12-0.04,0.22-0.08,0.29-0.11c0.08-0.03,0.13-0.05,0.17-0.05c0.02,0,0.04,0.01,0.06,0.02
			c0.02,0.01,0.03,0.03,0.04,0.05s0.02,0.05,0.02,0.09c0,0.04,0.01,0.09,0.01,0.14c0,0.04,0,0.08,0,0.11c0,0.03-0.01,0.06-0.01,0.08
			c-0.01,0.02-0.01,0.04-0.02,0.06c-0.01,0.02-0.03,0.04-0.04,0.05c-0.02,0.02-0.07,0.04-0.16,0.08c-0.09,0.04-0.2,0.08-0.34,0.11
			c-0.14,0.04-0.3,0.07-0.48,0.1c-0.18,0.03-0.38,0.04-0.58,0.04c-0.36,0-0.67-0.05-0.94-0.15s-0.5-0.24-0.68-0.43
			s-0.32-0.43-0.42-0.71c-0.09-0.29-0.14-0.62-0.14-1c0-0.36,0.05-0.69,0.15-0.97c0.1-0.29,0.24-0.53,0.42-0.73
			c0.18-0.2,0.4-0.36,0.66-0.46c0.26-0.11,0.55-0.16,0.87-0.16c0.34,0,0.63,0.05,0.87,0.16c0.24,0.11,0.44,0.25,0.59,0.43
			c0.15,0.18,0.27,0.39,0.34,0.63c0.07,0.24,0.11,0.5,0.11,0.77V40.63z M56.08,40.4c0.01-0.4-0.08-0.72-0.28-0.95
			c-0.2-0.23-0.49-0.34-0.87-0.34c-0.2,0-0.37,0.04-0.52,0.11c-0.15,0.07-0.27,0.17-0.38,0.29c-0.1,0.12-0.18,0.26-0.23,0.41
			c-0.06,0.16-0.09,0.32-0.09,0.49H56.08z"/>
		<path class="st2" d="M62.2,42.91c0,0.02-0.01,0.05-0.02,0.06c-0.01,0.02-0.03,0.03-0.06,0.04c-0.03,0.01-0.06,0.02-0.11,0.03
			c-0.05,0.01-0.1,0.01-0.16,0.01c-0.07,0-0.12,0-0.17-0.01c-0.05-0.01-0.08-0.01-0.11-0.03c-0.03-0.01-0.05-0.03-0.06-0.04
			s-0.02-0.04-0.02-0.06v-0.56c-0.23,0.24-0.47,0.43-0.71,0.56c-0.25,0.13-0.52,0.2-0.81,0.2c-0.32,0-0.59-0.06-0.82-0.18
			c-0.23-0.12-0.41-0.28-0.55-0.49c-0.14-0.2-0.24-0.44-0.31-0.72c-0.06-0.28-0.1-0.57-0.1-0.87c0-0.36,0.04-0.69,0.12-0.98
			c0.08-0.29,0.2-0.54,0.36-0.74c0.16-0.21,0.35-0.36,0.59-0.47c0.23-0.11,0.5-0.17,0.81-0.17c0.26,0,0.49,0.05,0.7,0.16
			c0.21,0.11,0.42,0.27,0.63,0.47v-2.44c0-0.02,0.01-0.04,0.02-0.06c0.01-0.02,0.03-0.04,0.07-0.05c0.03-0.01,0.07-0.02,0.12-0.03
			c0.05-0.01,0.11-0.01,0.19-0.01c0.08,0,0.15,0,0.2,0.01c0.05,0.01,0.09,0.02,0.12,0.03c0.03,0.01,0.05,0.03,0.07,0.05
			c0.01,0.02,0.02,0.04,0.02,0.06V42.91z M61.4,39.96c-0.22-0.26-0.43-0.46-0.63-0.59c-0.2-0.14-0.41-0.2-0.63-0.2
			c-0.2,0-0.38,0.05-0.52,0.14c-0.14,0.09-0.26,0.22-0.35,0.37c-0.09,0.15-0.15,0.33-0.19,0.52c-0.04,0.19-0.06,0.39-0.06,0.59
			c0,0.21,0.02,0.42,0.05,0.62c0.03,0.2,0.09,0.38,0.18,0.54c0.08,0.16,0.2,0.28,0.33,0.38c0.14,0.09,0.31,0.14,0.52,0.14
			c0.11,0,0.21-0.01,0.31-0.04c0.1-0.03,0.2-0.07,0.3-0.14c0.1-0.07,0.21-0.15,0.32-0.26c0.11-0.1,0.23-0.23,0.36-0.39V39.96z"/>
		<path class="st2" d="M70.67,40.75c0,0.37-0.04,0.69-0.12,0.98c-0.08,0.29-0.2,0.54-0.36,0.75c-0.16,0.21-0.36,0.36-0.59,0.47
			c-0.23,0.11-0.5,0.16-0.8,0.16c-0.14,0-0.27-0.01-0.39-0.04c-0.12-0.03-0.23-0.07-0.35-0.13s-0.23-0.13-0.34-0.22
			c-0.11-0.09-0.23-0.2-0.36-0.33v0.52c0,0.02-0.01,0.05-0.02,0.06s-0.03,0.03-0.06,0.04c-0.03,0.01-0.07,0.02-0.11,0.03
			c-0.04,0.01-0.1,0.01-0.17,0.01c-0.06,0-0.12,0-0.16-0.01c-0.05-0.01-0.08-0.01-0.11-0.03c-0.03-0.01-0.05-0.03-0.06-0.04
			s-0.01-0.04-0.01-0.06v-6.24c0-0.02,0.01-0.05,0.02-0.07s0.03-0.03,0.06-0.05c0.03-0.01,0.07-0.02,0.12-0.03
			c0.05-0.01,0.12-0.01,0.19-0.01c0.08,0,0.15,0,0.2,0.01c0.05,0.01,0.09,0.02,0.12,0.03s0.05,0.03,0.06,0.05s0.02,0.04,0.02,0.07
			v2.52c0.13-0.13,0.25-0.23,0.38-0.32c0.12-0.09,0.24-0.16,0.36-0.21c0.12-0.06,0.23-0.09,0.35-0.12c0.12-0.02,0.24-0.04,0.37-0.04
			c0.32,0,0.59,0.06,0.81,0.18c0.22,0.12,0.41,0.28,0.55,0.49c0.14,0.2,0.24,0.44,0.31,0.72C70.64,40.16,70.67,40.45,70.67,40.75z
			 M69.84,40.84c0-0.21-0.02-0.42-0.05-0.63c-0.03-0.2-0.09-0.38-0.18-0.54s-0.2-0.28-0.34-0.38c-0.14-0.09-0.31-0.14-0.52-0.14
			c-0.1,0-0.21,0.01-0.31,0.04c-0.1,0.03-0.2,0.07-0.31,0.14c-0.1,0.06-0.21,0.15-0.32,0.25c-0.11,0.1-0.23,0.23-0.36,0.39v1.68
			c0.22,0.26,0.43,0.45,0.63,0.59c0.2,0.14,0.41,0.2,0.63,0.2c0.2,0,0.37-0.05,0.52-0.14c0.14-0.09,0.26-0.22,0.35-0.37
			c0.09-0.15,0.15-0.33,0.19-0.52C69.82,41.23,69.84,41.04,69.84,40.84z"/>
		<path class="st2" d="M74.17,43.03l-0.58,1.55c-0.02,0.05-0.07,0.09-0.15,0.11c-0.08,0.03-0.2,0.04-0.36,0.04
			c-0.08,0-0.15,0-0.2-0.01c-0.05-0.01-0.09-0.02-0.12-0.04c-0.03-0.02-0.04-0.04-0.05-0.07c0-0.03,0-0.07,0.02-0.11l0.6-1.46
			c-0.03-0.01-0.06-0.03-0.08-0.06c-0.03-0.03-0.04-0.06-0.05-0.09l-1.55-4.02c-0.03-0.07-0.04-0.12-0.04-0.15
			c0-0.04,0.01-0.07,0.04-0.09s0.07-0.04,0.13-0.04c0.06-0.01,0.14-0.01,0.23-0.01c0.1,0,0.17,0,0.23,0.01
			c0.05,0,0.1,0.01,0.13,0.03s0.06,0.03,0.07,0.05c0.02,0.02,0.03,0.06,0.05,0.1l1.24,3.37h0.01l1.2-3.39
			c0.02-0.06,0.04-0.1,0.07-0.12c0.03-0.02,0.07-0.03,0.12-0.04c0.05-0.01,0.13-0.01,0.24-0.01c0.09,0,0.16,0,0.22,0.01
			c0.06,0.01,0.1,0.02,0.13,0.04c0.03,0.02,0.04,0.05,0.04,0.09c0,0.04-0.01,0.08-0.03,0.14L74.17,43.03z"/>
		<path class="st2" d="M84.44,42.75c0.03,0.07,0.04,0.12,0.04,0.17c0,0.04-0.01,0.07-0.04,0.1s-0.07,0.04-0.13,0.04
			c-0.06,0.01-0.14,0.01-0.24,0.01c-0.1,0-0.18,0-0.24-0.01c-0.06,0-0.1-0.01-0.14-0.02c-0.03-0.01-0.05-0.03-0.07-0.04
			c-0.01-0.02-0.03-0.04-0.04-0.07l-0.54-1.47h-2.61l-0.51,1.45c-0.01,0.03-0.02,0.05-0.04,0.07c-0.02,0.02-0.04,0.04-0.07,0.05
			c-0.03,0.01-0.07,0.02-0.13,0.03c-0.06,0.01-0.13,0.01-0.22,0.01c-0.09,0-0.17,0-0.23-0.01c-0.06-0.01-0.1-0.02-0.13-0.04
			c-0.02-0.02-0.04-0.05-0.03-0.1c0-0.04,0.02-0.1,0.04-0.17l2.1-5.62c0.01-0.03,0.03-0.06,0.05-0.08c0.02-0.02,0.05-0.04,0.09-0.05
			c0.04-0.01,0.09-0.02,0.15-0.03c0.06-0.01,0.14-0.01,0.24-0.01c0.1,0,0.19,0,0.26,0.01c0.07,0,0.12,0.01,0.16,0.03
			s0.07,0.03,0.1,0.05c0.02,0.02,0.04,0.05,0.05,0.09L84.44,42.75z M81.74,37.79L81.74,37.79l-1.08,3.01h2.18L81.74,37.79z"/>
		<path class="st2" d="M89.29,42.91c0,0.02-0.01,0.05-0.02,0.07c-0.01,0.02-0.04,0.03-0.07,0.04c-0.03,0.01-0.08,0.02-0.13,0.03
			c-0.05,0.01-0.12,0.01-0.2,0.01c-0.08,0-0.14,0-0.2-0.01c-0.05-0.01-0.1-0.02-0.13-0.03c-0.03-0.01-0.05-0.03-0.07-0.04
			s-0.02-0.04-0.02-0.07v-5.8c0-0.02,0.01-0.05,0.02-0.07c0.02-0.02,0.04-0.03,0.07-0.04c0.03-0.01,0.08-0.02,0.13-0.03
			c0.05-0.01,0.12-0.01,0.19-0.01c0.08,0,0.15,0,0.2,0.01c0.05,0.01,0.1,0.02,0.13,0.03c0.03,0.01,0.05,0.03,0.07,0.04
			c0.01,0.02,0.02,0.04,0.02,0.07V42.91z"/>
		<path class="st2" d="M98.12,42.17c0,0.05,0,0.09,0,0.13c0,0.04-0.01,0.07-0.02,0.1c-0.01,0.03-0.02,0.05-0.03,0.07
			s-0.04,0.05-0.07,0.08s-0.1,0.08-0.2,0.14c-0.1,0.06-0.23,0.13-0.38,0.19c-0.15,0.06-0.33,0.11-0.53,0.15
			c-0.2,0.04-0.42,0.06-0.65,0.06c-0.41,0-0.77-0.07-1.1-0.2c-0.33-0.13-0.61-0.32-0.84-0.58c-0.23-0.26-0.41-0.57-0.53-0.95
			c-0.12-0.38-0.19-0.81-0.19-1.3c0-0.5,0.07-0.95,0.2-1.34s0.32-0.73,0.56-1c0.24-0.27,0.53-0.48,0.87-0.62
			c0.34-0.14,0.71-0.21,1.12-0.21c0.18,0,0.36,0.02,0.53,0.05c0.17,0.03,0.33,0.07,0.47,0.12c0.15,0.05,0.27,0.11,0.39,0.17
			c0.11,0.07,0.19,0.12,0.24,0.16c0.04,0.04,0.07,0.07,0.08,0.1s0.02,0.05,0.03,0.08c0.01,0.03,0.01,0.06,0.02,0.1
			c0,0.04,0.01,0.09,0.01,0.14c0,0.06,0,0.12-0.01,0.16c-0.01,0.04-0.02,0.08-0.03,0.11c-0.01,0.03-0.03,0.05-0.05,0.07
			c-0.02,0.01-0.04,0.02-0.07,0.02c-0.05,0-0.11-0.03-0.19-0.09c-0.08-0.06-0.19-0.13-0.31-0.2c-0.13-0.07-0.28-0.14-0.47-0.2
			c-0.18-0.06-0.4-0.09-0.66-0.09c-0.28,0-0.53,0.05-0.76,0.16c-0.23,0.11-0.42,0.27-0.59,0.47c-0.16,0.21-0.29,0.46-0.38,0.76
			c-0.09,0.3-0.13,0.64-0.13,1.03c0,0.38,0.04,0.72,0.13,1.02c0.09,0.29,0.21,0.54,0.37,0.74c0.16,0.2,0.36,0.35,0.59,0.45
			c0.23,0.1,0.5,0.15,0.79,0.15c0.25,0,0.47-0.03,0.65-0.09c0.19-0.06,0.35-0.12,0.48-0.2c0.13-0.07,0.24-0.14,0.32-0.2
			c0.08-0.06,0.15-0.09,0.2-0.09c0.02,0,0.04,0.01,0.06,0.01s0.03,0.03,0.04,0.05c0.01,0.03,0.02,0.06,0.02,0.11
			C98.12,42.04,98.12,42.1,98.12,42.17z"/>
		<path class="st2" d="M106.13,37.33c0,0.06,0,0.11-0.01,0.15c-0.01,0.04-0.02,0.08-0.03,0.11c-0.01,0.03-0.03,0.05-0.05,0.06
			c-0.02,0.01-0.05,0.02-0.07,0.02h-1.76v5.24c0,0.02-0.01,0.05-0.02,0.07s-0.04,0.03-0.07,0.04c-0.03,0.01-0.08,0.02-0.13,0.03
			c-0.05,0.01-0.12,0.01-0.2,0.01c-0.08,0-0.14,0-0.2-0.01c-0.05-0.01-0.1-0.02-0.13-0.03c-0.03-0.01-0.06-0.03-0.07-0.04
			c-0.01-0.02-0.02-0.04-0.02-0.07v-5.24h-1.76c-0.03,0-0.05-0.01-0.07-0.02c-0.02-0.01-0.04-0.03-0.05-0.06
			c-0.01-0.03-0.02-0.06-0.03-0.11c-0.01-0.04-0.01-0.09-0.01-0.15s0-0.11,0.01-0.16c0.01-0.04,0.02-0.08,0.03-0.11
			c0.01-0.03,0.03-0.05,0.05-0.06c0.02-0.01,0.04-0.02,0.07-0.02h4.36c0.03,0,0.05,0.01,0.07,0.02c0.02,0.01,0.04,0.03,0.05,0.06
			c0.02,0.03,0.02,0.06,0.03,0.11C106.13,37.22,106.13,37.27,106.13,37.33z"/>
		<path class="st2" d="M113.5,42.7c0,0.06,0,0.11-0.01,0.15c-0.01,0.04-0.02,0.08-0.03,0.11c-0.02,0.03-0.04,0.05-0.06,0.06
			c-0.02,0.01-0.05,0.02-0.07,0.02h-3.01c-0.07,0-0.14-0.02-0.21-0.07c-0.07-0.05-0.1-0.13-0.1-0.25v-5.39
			c0-0.12,0.03-0.21,0.1-0.25c0.07-0.05,0.14-0.07,0.21-0.07h2.97c0.03,0,0.05,0.01,0.07,0.02c0.02,0.01,0.04,0.03,0.05,0.06
			c0.01,0.03,0.02,0.06,0.03,0.1c0.01,0.04,0.01,0.09,0.01,0.16c0,0.06,0,0.1-0.01,0.15c-0.01,0.04-0.02,0.08-0.03,0.1
			c-0.01,0.03-0.03,0.05-0.05,0.06c-0.02,0.01-0.04,0.02-0.07,0.02h-2.45v1.9h2.1c0.03,0,0.05,0.01,0.07,0.02
			c0.02,0.01,0.04,0.03,0.05,0.06c0.01,0.02,0.02,0.06,0.03,0.1c0.01,0.04,0.01,0.1,0.01,0.15c0,0.06,0,0.1-0.01,0.14
			c-0.01,0.04-0.02,0.07-0.03,0.1c-0.02,0.02-0.03,0.04-0.05,0.05c-0.02,0.01-0.04,0.02-0.07,0.02h-2.1v2.16h2.48
			c0.03,0,0.05,0.01,0.07,0.02c0.02,0.01,0.04,0.03,0.06,0.06c0.02,0.03,0.03,0.06,0.03,0.1C113.5,42.58,113.5,42.64,113.5,42.7z"/>
		<path class="st2" d="M116.19,42.36c0,0.1-0.01,0.19-0.02,0.27c-0.01,0.08-0.03,0.16-0.05,0.23c-0.02,0.07-0.05,0.14-0.09,0.21
			c-0.04,0.07-0.08,0.14-0.14,0.22l-0.66,0.96c-0.02,0.02-0.03,0.04-0.06,0.06c-0.02,0.02-0.05,0.03-0.08,0.04
			c-0.03,0.01-0.07,0.02-0.11,0.02c-0.04,0.01-0.09,0.01-0.15,0.01c-0.05,0-0.1,0-0.14-0.01c-0.04,0-0.06-0.01-0.08-0.02
			c-0.02-0.01-0.02-0.03-0.03-0.04c0-0.02,0-0.04,0.02-0.07l0.64-1.29v-0.6c0-0.08,0.01-0.15,0.03-0.2
			c0.02-0.05,0.05-0.09,0.09-0.11c0.04-0.02,0.09-0.04,0.15-0.05c0.06-0.01,0.13-0.01,0.21-0.01c0.08,0,0.15,0,0.21,0.01
			c0.06,0.01,0.11,0.03,0.14,0.05c0.04,0.02,0.06,0.06,0.08,0.11C116.18,42.21,116.19,42.28,116.19,42.36z"/>
		<path class="st2" d="M125.38,37.81c0,0.06,0,0.11-0.01,0.16c-0.01,0.04-0.02,0.08-0.03,0.11c-0.01,0.03-0.03,0.05-0.05,0.06
			c-0.02,0.01-0.04,0.02-0.06,0.02c-0.04,0-0.1-0.03-0.19-0.09c-0.09-0.06-0.21-0.12-0.36-0.2c-0.15-0.07-0.33-0.14-0.54-0.2
			c-0.21-0.06-0.46-0.09-0.75-0.09c-0.35,0-0.66,0.06-0.93,0.18c-0.27,0.12-0.51,0.29-0.7,0.5c-0.19,0.21-0.34,0.47-0.44,0.77
			c-0.1,0.3-0.15,0.62-0.15,0.96c0,0.39,0.06,0.73,0.17,1.03c0.11,0.3,0.27,0.55,0.46,0.76c0.2,0.21,0.43,0.36,0.7,0.47
			c0.27,0.11,0.57,0.16,0.9,0.16c0.19,0,0.39-0.02,0.59-0.07c0.2-0.05,0.38-0.11,0.55-0.2v-1.76h-1.45c-0.05,0-0.1-0.03-0.12-0.08
			c-0.03-0.05-0.04-0.14-0.04-0.25c0-0.06,0-0.11,0.01-0.15c0.01-0.04,0.02-0.08,0.03-0.1c0.01-0.03,0.03-0.05,0.05-0.06
			s0.04-0.02,0.07-0.02h1.99c0.04,0,0.07,0.01,0.11,0.02s0.07,0.03,0.1,0.06c0.03,0.02,0.05,0.06,0.07,0.1
			c0.02,0.04,0.02,0.09,0.02,0.15v2.3c0,0.08-0.01,0.15-0.04,0.21c-0.03,0.06-0.09,0.11-0.18,0.16c-0.09,0.04-0.22,0.09-0.36,0.15
			c-0.15,0.05-0.3,0.1-0.46,0.14c-0.16,0.04-0.32,0.07-0.48,0.08c-0.16,0.02-0.32,0.03-0.48,0.03c-0.48,0-0.92-0.07-1.3-0.22
			c-0.38-0.15-0.7-0.35-0.97-0.62c-0.26-0.27-0.46-0.59-0.6-0.96c-0.14-0.37-0.21-0.79-0.21-1.25c0-0.48,0.07-0.91,0.22-1.3
			c0.15-0.39,0.36-0.72,0.63-1c0.27-0.27,0.6-0.49,0.98-0.64c0.38-0.15,0.81-0.23,1.27-0.23c0.24,0,0.46,0.02,0.67,0.06
			c0.21,0.04,0.4,0.09,0.56,0.14c0.16,0.05,0.3,0.11,0.41,0.18c0.11,0.06,0.19,0.12,0.23,0.16c0.04,0.04,0.07,0.09,0.09,0.14
			C125.37,37.63,125.38,37.71,125.38,37.81z"/>
		<path class="st2" d="M131.26,40.76c0,0.34-0.05,0.66-0.14,0.95c-0.09,0.29-0.23,0.54-0.42,0.74c-0.19,0.21-0.42,0.37-0.7,0.49
			c-0.28,0.12-0.6,0.18-0.97,0.18c-0.36,0-0.67-0.05-0.94-0.15c-0.27-0.1-0.49-0.25-0.67-0.45c-0.18-0.2-0.31-0.44-0.4-0.72
			c-0.09-0.28-0.13-0.6-0.13-0.95c0-0.34,0.05-0.66,0.14-0.95c0.09-0.29,0.23-0.54,0.42-0.74c0.19-0.21,0.42-0.37,0.7-0.49
			c0.28-0.12,0.6-0.17,0.97-0.17c0.36,0,0.67,0.05,0.94,0.15c0.27,0.1,0.49,0.25,0.67,0.45c0.18,0.2,0.31,0.43,0.4,0.71
			C131.22,40.1,131.26,40.41,131.26,40.76z M130.43,40.82c0-0.23-0.02-0.44-0.07-0.64c-0.04-0.2-0.12-0.38-0.22-0.53
			c-0.1-0.15-0.24-0.27-0.41-0.36c-0.17-0.09-0.39-0.13-0.65-0.13c-0.24,0-0.44,0.04-0.61,0.12c-0.17,0.08-0.31,0.2-0.42,0.34
			c-0.11,0.15-0.19,0.32-0.25,0.53c-0.05,0.2-0.08,0.42-0.08,0.66c0,0.23,0.02,0.45,0.07,0.65c0.04,0.2,0.12,0.38,0.22,0.53
			c0.1,0.15,0.24,0.27,0.41,0.36c0.17,0.09,0.39,0.13,0.64,0.13c0.23,0,0.44-0.04,0.61-0.12c0.17-0.08,0.31-0.19,0.43-0.34
			c0.11-0.15,0.19-0.32,0.24-0.52C130.41,41.28,130.43,41.06,130.43,40.82z"/>
		<path class="st2" d="M136.34,38.7c0,0.01,0,0.03,0,0.04c0,0.01,0,0.03-0.01,0.04c0,0.02-0.01,0.03-0.01,0.05
			c0,0.02-0.01,0.04-0.02,0.06l-1.49,4c-0.01,0.03-0.03,0.06-0.05,0.08c-0.02,0.02-0.05,0.04-0.09,0.05
			c-0.04,0.01-0.1,0.02-0.16,0.02c-0.06,0.01-0.14,0.01-0.24,0.01s-0.18,0-0.24-0.01c-0.06-0.01-0.12-0.02-0.16-0.03
			c-0.04-0.01-0.07-0.03-0.09-0.05c-0.02-0.02-0.04-0.05-0.05-0.08l-1.48-4c-0.01-0.04-0.02-0.07-0.03-0.1
			c-0.01-0.03-0.01-0.05-0.02-0.06c0-0.01,0-0.02,0-0.04c0-0.02,0.01-0.05,0.02-0.06c0.01-0.02,0.03-0.03,0.07-0.04
			c0.03-0.01,0.07-0.02,0.12-0.02c0.05,0,0.11,0,0.19,0c0.09,0,0.17,0,0.22,0.01c0.06,0,0.1,0.01,0.13,0.03
			c0.03,0.01,0.05,0.03,0.07,0.05c0.02,0.02,0.03,0.04,0.04,0.07l1.23,3.47l0.02,0.06l0.02-0.06l1.22-3.47
			c0.01-0.03,0.02-0.05,0.03-0.07c0.02-0.02,0.04-0.03,0.07-0.05c0.03-0.01,0.07-0.02,0.13-0.03c0.05-0.01,0.12-0.01,0.21-0.01
			c0.07,0,0.14,0,0.18,0c0.05,0,0.09,0.01,0.11,0.02c0.03,0.01,0.05,0.03,0.06,0.04C136.33,38.65,136.34,38.67,136.34,38.7z"/>
		<path class="st2" d="M139.92,42.6c0,0.09-0.01,0.16-0.02,0.22c-0.01,0.05-0.03,0.09-0.06,0.12c-0.03,0.02-0.06,0.05-0.12,0.07
			c-0.05,0.02-0.11,0.04-0.18,0.05c-0.07,0.01-0.14,0.03-0.21,0.04s-0.15,0.01-0.22,0.01c-0.23,0-0.42-0.03-0.58-0.09
			c-0.16-0.06-0.29-0.14-0.4-0.26c-0.1-0.12-0.18-0.26-0.22-0.44c-0.05-0.18-0.07-0.39-0.07-0.63v-2.46h-0.61
			c-0.05,0-0.09-0.02-0.12-0.07c-0.03-0.05-0.04-0.13-0.04-0.24c0-0.06,0-0.11,0.01-0.15c0.01-0.04,0.02-0.07,0.03-0.1
			c0.01-0.03,0.03-0.04,0.05-0.06c0.02-0.01,0.04-0.02,0.07-0.02h0.6v-1c0-0.02,0.01-0.04,0.02-0.06c0.01-0.02,0.03-0.04,0.06-0.05
			c0.03-0.01,0.07-0.02,0.12-0.03c0.05-0.01,0.12-0.01,0.19-0.01c0.08,0,0.15,0,0.2,0.01c0.05,0.01,0.09,0.02,0.12,0.03
			c0.03,0.01,0.05,0.03,0.06,0.05c0.01,0.02,0.02,0.04,0.02,0.06v1h1.12c0.03,0,0.05,0.01,0.07,0.02c0.02,0.01,0.04,0.03,0.05,0.06
			c0.02,0.03,0.02,0.06,0.03,0.1c0.01,0.04,0.01,0.09,0.01,0.15c0,0.11-0.01,0.19-0.04,0.24c-0.03,0.05-0.07,0.07-0.12,0.07h-1.12
			v2.35c0,0.29,0.05,0.51,0.13,0.66c0.09,0.15,0.25,0.22,0.48,0.22c0.07,0,0.14-0.01,0.2-0.02c0.06-0.01,0.11-0.03,0.15-0.04
			c0.05-0.02,0.08-0.03,0.12-0.04c0.03-0.01,0.06-0.02,0.09-0.02c0.02,0,0.03,0,0.05,0.01c0.01,0.01,0.03,0.02,0.03,0.04
			c0.01,0.02,0.02,0.05,0.02,0.09C139.92,42.5,139.92,42.55,139.92,42.6z"/>
		<path class="st2" d="M142.38,42.52c0,0.22-0.04,0.37-0.11,0.44c-0.08,0.07-0.21,0.11-0.41,0.11c-0.19,0-0.33-0.04-0.4-0.11
			s-0.11-0.21-0.11-0.43c0-0.22,0.04-0.37,0.11-0.44c0.08-0.07,0.21-0.11,0.41-0.11c0.19,0,0.33,0.04,0.4,0.11
			C142.34,42.16,142.38,42.31,142.38,42.52z"/>
		<path class="st2" d="M148.27,40.76c0,0.34-0.05,0.66-0.14,0.95c-0.09,0.29-0.23,0.54-0.42,0.74c-0.19,0.21-0.42,0.37-0.7,0.49
			c-0.28,0.12-0.6,0.18-0.97,0.18c-0.36,0-0.67-0.05-0.94-0.15c-0.27-0.1-0.49-0.25-0.67-0.45c-0.18-0.2-0.31-0.44-0.4-0.72
			c-0.09-0.28-0.13-0.6-0.13-0.95c0-0.34,0.05-0.66,0.14-0.95c0.09-0.29,0.23-0.54,0.42-0.74c0.19-0.21,0.42-0.37,0.7-0.49
			s0.6-0.17,0.97-0.17c0.36,0,0.67,0.05,0.94,0.15c0.27,0.1,0.49,0.25,0.67,0.45c0.18,0.2,0.31,0.43,0.4,0.71
			C148.23,40.1,148.27,40.41,148.27,40.76z M147.44,40.82c0-0.23-0.02-0.44-0.07-0.64s-0.12-0.38-0.22-0.53
			c-0.1-0.15-0.24-0.27-0.41-0.36c-0.17-0.09-0.39-0.13-0.65-0.13c-0.24,0-0.44,0.04-0.61,0.12c-0.17,0.08-0.31,0.2-0.42,0.34
			c-0.11,0.15-0.19,0.32-0.25,0.53c-0.05,0.2-0.08,0.42-0.08,0.66c0,0.23,0.02,0.45,0.07,0.65c0.04,0.2,0.12,0.38,0.22,0.53
			c0.1,0.15,0.24,0.27,0.41,0.36c0.17,0.09,0.39,0.13,0.64,0.13c0.23,0,0.44-0.04,0.61-0.12c0.17-0.08,0.31-0.19,0.43-0.34
			c0.11-0.15,0.19-0.32,0.24-0.52C147.42,41.28,147.44,41.06,147.44,40.82z"/>
		<path class="st2" d="M152.2,36.98c0,0.06,0,0.11-0.01,0.14c-0.01,0.04-0.01,0.06-0.02,0.09c-0.01,0.02-0.02,0.04-0.03,0.04
			c-0.01,0.01-0.03,0.01-0.05,0.01c-0.02,0-0.05-0.01-0.09-0.02c-0.03-0.01-0.08-0.03-0.12-0.05c-0.05-0.02-0.11-0.03-0.17-0.05
			c-0.07-0.01-0.14-0.02-0.23-0.02c-0.12,0-0.22,0.02-0.3,0.06c-0.08,0.04-0.15,0.1-0.2,0.18c-0.05,0.08-0.09,0.18-0.11,0.31
			c-0.02,0.13-0.03,0.28-0.03,0.46v0.46h0.97c0.02,0,0.05,0.01,0.06,0.02c0.02,0.01,0.03,0.03,0.05,0.06
			c0.02,0.03,0.03,0.06,0.03,0.1c0.01,0.04,0.01,0.09,0.01,0.15c0,0.11-0.02,0.19-0.04,0.24c-0.03,0.05-0.07,0.07-0.12,0.07h-0.97
			v3.69c0,0.02-0.01,0.05-0.02,0.06c-0.01,0.02-0.03,0.03-0.07,0.04c-0.03,0.01-0.07,0.02-0.12,0.03c-0.05,0.01-0.12,0.01-0.19,0.01
			c-0.08,0-0.14,0-0.19-0.01c-0.05-0.01-0.09-0.02-0.12-0.03c-0.03-0.01-0.05-0.03-0.07-0.04c-0.01-0.02-0.02-0.04-0.02-0.06v-3.69
			h-0.62c-0.05,0-0.09-0.02-0.12-0.07c-0.03-0.05-0.04-0.13-0.04-0.24c0-0.06,0-0.11,0.01-0.15c0.01-0.04,0.02-0.07,0.03-0.1
			c0.01-0.03,0.03-0.04,0.05-0.06c0.02-0.01,0.04-0.02,0.07-0.02h0.62v-0.43c0-0.29,0.03-0.54,0.09-0.75
			c0.06-0.21,0.14-0.38,0.26-0.52c0.12-0.13,0.26-0.23,0.44-0.3c0.18-0.06,0.38-0.1,0.62-0.1c0.11,0,0.22,0.01,0.33,0.03
			c0.11,0.02,0.19,0.04,0.25,0.07c0.06,0.02,0.1,0.04,0.12,0.06c0.02,0.02,0.04,0.04,0.05,0.07c0.01,0.03,0.02,0.07,0.03,0.11
			C152.2,36.87,152.2,36.92,152.2,36.98z"/>
		<path class="st2" d="M156.74,42.91c0,0.02-0.01,0.05-0.02,0.07c-0.01,0.02-0.04,0.03-0.07,0.04c-0.03,0.01-0.08,0.02-0.13,0.03
			c-0.05,0.01-0.12,0.01-0.2,0.01c-0.08,0-0.14,0-0.2-0.01c-0.05-0.01-0.1-0.02-0.13-0.03c-0.03-0.01-0.05-0.03-0.07-0.04
			c-0.01-0.02-0.02-0.04-0.02-0.07v-5.8c0-0.02,0.01-0.05,0.02-0.07c0.02-0.02,0.04-0.03,0.07-0.04c0.03-0.01,0.08-0.02,0.13-0.03
			c0.05-0.01,0.12-0.01,0.19-0.01c0.08,0,0.15,0,0.2,0.01c0.05,0.01,0.1,0.02,0.13,0.03c0.03,0.01,0.05,0.03,0.07,0.04
			c0.01,0.02,0.02,0.04,0.02,0.07V42.91z"/>
		<path class="st2" d="M162.44,42.91c0,0.02-0.01,0.05-0.02,0.06c-0.01,0.02-0.03,0.03-0.06,0.04c-0.03,0.01-0.07,0.02-0.12,0.03
			c-0.05,0.01-0.12,0.01-0.19,0.01c-0.08,0-0.15,0-0.2-0.01c-0.05-0.01-0.09-0.02-0.12-0.03c-0.03-0.01-0.05-0.03-0.06-0.04
			c-0.01-0.02-0.02-0.04-0.02-0.06v-2.46c0-0.24-0.02-0.43-0.06-0.58s-0.1-0.27-0.17-0.38c-0.07-0.11-0.17-0.19-0.29-0.24
			c-0.12-0.06-0.25-0.09-0.41-0.09c-0.2,0-0.4,0.07-0.6,0.21c-0.2,0.14-0.41,0.34-0.63,0.6v2.94c0,0.02-0.01,0.05-0.02,0.06
			c-0.01,0.02-0.03,0.03-0.06,0.04c-0.03,0.01-0.07,0.02-0.12,0.03c-0.05,0.01-0.12,0.01-0.2,0.01c-0.08,0-0.14,0-0.19-0.01
			c-0.05-0.01-0.09-0.02-0.12-0.03c-0.03-0.01-0.05-0.03-0.06-0.04c-0.01-0.02-0.02-0.04-0.02-0.06v-4.21
			c0-0.02,0.01-0.05,0.02-0.06c0.01-0.02,0.03-0.03,0.06-0.05c0.03-0.01,0.07-0.02,0.11-0.03c0.04-0.01,0.1-0.01,0.18-0.01
			c0.07,0,0.13,0,0.18,0.01c0.05,0,0.08,0.01,0.11,0.03c0.02,0.01,0.04,0.03,0.05,0.05c0.01,0.02,0.02,0.04,0.02,0.06v0.56
			c0.25-0.26,0.49-0.46,0.73-0.58c0.24-0.12,0.49-0.18,0.74-0.18c0.29,0,0.53,0.05,0.73,0.14c0.2,0.1,0.36,0.22,0.48,0.38
			s0.21,0.34,0.26,0.56c0.05,0.21,0.08,0.47,0.08,0.77V42.91z"/>
		<path class="st2" d="M168,42.91c0,0.02-0.01,0.05-0.02,0.06c-0.01,0.02-0.03,0.03-0.06,0.04c-0.03,0.01-0.06,0.02-0.11,0.03
			c-0.05,0.01-0.1,0.01-0.16,0.01c-0.07,0-0.12,0-0.17-0.01c-0.05-0.01-0.08-0.01-0.11-0.03c-0.03-0.01-0.05-0.03-0.06-0.04
			c-0.01-0.02-0.02-0.04-0.02-0.06v-0.56c-0.23,0.24-0.47,0.43-0.71,0.56c-0.25,0.13-0.52,0.2-0.81,0.2c-0.32,0-0.59-0.06-0.82-0.18
			c-0.23-0.12-0.41-0.28-0.55-0.49c-0.14-0.2-0.24-0.44-0.31-0.72c-0.06-0.28-0.1-0.57-0.1-0.87c0-0.36,0.04-0.69,0.12-0.98
			c0.08-0.29,0.2-0.54,0.36-0.74c0.16-0.21,0.35-0.36,0.59-0.47c0.23-0.11,0.5-0.17,0.81-0.17c0.26,0,0.49,0.05,0.7,0.16
			c0.21,0.11,0.42,0.27,0.63,0.47v-2.44c0-0.02,0.01-0.04,0.02-0.06c0.01-0.02,0.03-0.04,0.07-0.05c0.03-0.01,0.07-0.02,0.12-0.03
			c0.05-0.01,0.11-0.01,0.19-0.01c0.08,0,0.15,0,0.2,0.01c0.05,0.01,0.09,0.02,0.12,0.03c0.03,0.01,0.05,0.03,0.07,0.05
			c0.01,0.02,0.02,0.04,0.02,0.06V42.91z M167.19,39.96c-0.22-0.26-0.43-0.46-0.63-0.59c-0.2-0.14-0.41-0.2-0.63-0.2
			c-0.2,0-0.38,0.05-0.52,0.14c-0.14,0.09-0.26,0.22-0.35,0.37c-0.09,0.15-0.15,0.33-0.19,0.52c-0.04,0.19-0.06,0.39-0.06,0.59
			c0,0.21,0.02,0.42,0.05,0.62c0.03,0.2,0.09,0.38,0.18,0.54c0.08,0.16,0.19,0.28,0.33,0.38c0.14,0.09,0.31,0.14,0.52,0.14
			c0.11,0,0.21-0.01,0.31-0.04c0.1-0.03,0.2-0.07,0.3-0.14c0.1-0.07,0.21-0.15,0.33-0.26c0.11-0.1,0.23-0.23,0.36-0.39V39.96z"/>
		<path class="st2" d="M170.73,37.29c0,0.18-0.04,0.3-0.11,0.37c-0.07,0.07-0.2,0.1-0.39,0.1c-0.19,0-0.32-0.03-0.39-0.1
			c-0.07-0.06-0.1-0.18-0.1-0.36c0-0.18,0.04-0.3,0.11-0.37c0.07-0.07,0.2-0.1,0.39-0.1c0.19,0,0.32,0.03,0.39,0.1
			C170.7,36.99,170.73,37.11,170.73,37.29z M170.64,42.91c0,0.02-0.01,0.05-0.02,0.06c-0.01,0.02-0.03,0.03-0.06,0.04
			c-0.03,0.01-0.07,0.02-0.12,0.03c-0.05,0.01-0.12,0.01-0.2,0.01c-0.08,0-0.14,0-0.19-0.01c-0.05-0.01-0.09-0.02-0.12-0.03
			c-0.03-0.01-0.05-0.03-0.06-0.04c-0.01-0.02-0.02-0.04-0.02-0.06v-4.21c0-0.02,0.01-0.04,0.02-0.06c0.01-0.02,0.03-0.03,0.06-0.05
			c0.03-0.01,0.07-0.02,0.12-0.03c0.05-0.01,0.12-0.01,0.19-0.01c0.08,0,0.15,0,0.2,0.01c0.05,0.01,0.09,0.02,0.12,0.03
			c0.03,0.01,0.05,0.03,0.06,0.05c0.01,0.02,0.02,0.04,0.02,0.06V42.91z"/>
		<path class="st2" d="M175.77,42.92c0,0.04-0.01,0.07-0.04,0.08c-0.03,0.02-0.06,0.03-0.11,0.04c-0.05,0.01-0.11,0.01-0.2,0.01
			c-0.08,0-0.15-0.01-0.2-0.01c-0.05-0.01-0.09-0.02-0.11-0.04c-0.02-0.02-0.03-0.05-0.03-0.08V42.5c-0.19,0.2-0.4,0.35-0.64,0.46
			c-0.23,0.11-0.48,0.16-0.74,0.16c-0.23,0-0.44-0.03-0.62-0.09c-0.19-0.06-0.34-0.14-0.47-0.25c-0.13-0.11-0.23-0.24-0.31-0.4
			c-0.07-0.16-0.11-0.34-0.11-0.54c0-0.24,0.05-0.44,0.15-0.62c0.1-0.17,0.24-0.32,0.43-0.43s0.42-0.2,0.69-0.26
			c0.27-0.06,0.58-0.09,0.92-0.09h0.6v-0.33c0-0.16-0.02-0.31-0.05-0.43c-0.04-0.12-0.09-0.23-0.17-0.31
			c-0.08-0.08-0.18-0.15-0.31-0.19c-0.12-0.04-0.28-0.06-0.46-0.06c-0.2,0-0.37,0.02-0.53,0.07c-0.16,0.05-0.29,0.1-0.41,0.15
			c-0.12,0.06-0.22,0.1-0.29,0.15c-0.08,0.05-0.14,0.07-0.18,0.07c-0.03,0-0.05-0.01-0.07-0.02c-0.02-0.01-0.04-0.03-0.05-0.06
			c-0.01-0.02-0.02-0.06-0.03-0.1c-0.01-0.04-0.01-0.08-0.01-0.13c0-0.08,0.01-0.14,0.02-0.18c0.01-0.05,0.04-0.09,0.08-0.13
			c0.04-0.04,0.12-0.09,0.23-0.14c0.11-0.06,0.23-0.1,0.37-0.15c0.14-0.05,0.29-0.08,0.45-0.11c0.17-0.03,0.33-0.04,0.5-0.04
			c0.31,0,0.58,0.03,0.8,0.1c0.22,0.07,0.4,0.17,0.53,0.3c0.14,0.13,0.23,0.3,0.29,0.49c0.06,0.2,0.09,0.42,0.09,0.69V42.92z
			 M174.97,41h-0.68c-0.22,0-0.41,0.02-0.57,0.05c-0.16,0.04-0.29,0.09-0.4,0.16c-0.11,0.07-0.18,0.15-0.23,0.25
			c-0.05,0.1-0.08,0.21-0.08,0.34c0,0.22,0.07,0.39,0.22,0.52c0.14,0.13,0.34,0.19,0.6,0.19c0.21,0,0.4-0.05,0.58-0.15
			c0.18-0.1,0.37-0.26,0.57-0.47V41z"/>
		<path class="st2" d="M178.63,42.52c0,0.22-0.04,0.37-0.11,0.44c-0.08,0.07-0.21,0.11-0.41,0.11c-0.19,0-0.33-0.04-0.4-0.11
			s-0.11-0.21-0.11-0.43c0-0.22,0.04-0.37,0.11-0.44c0.08-0.07,0.21-0.11,0.41-0.11c0.19,0,0.33,0.04,0.4,0.11
			C178.6,42.16,178.63,42.31,178.63,42.52z"/>
	</g>
</g>
</svg>
