<?xml version="1.0" encoding="utf-8"?>
<!-- Generator: Adobe Illustrator 26.5.3, SVG Export Plug-In . SVG Version: 6.00 Build 0)  -->
<svg version="1.1" id="Layer_1" xmlns="http://www.w3.org/2000/svg" xmlns:xlink="http://www.w3.org/1999/xlink" x="0px" y="0px"
	 viewBox="0 0 156 38" style="enable-background:new 0 0 156 38;" xml:space="preserve">
<style type="text/css">
	.st0{fill-rule:evenodd;clip-rule:evenodd;fill:#F47521;}
	.st1{fill-rule:evenodd;clip-rule:evenodd;fill:#58585A;}
	.st2{fill:#58585A;}
</style>
<g>
	<path class="st0" d="M9.4,9.3l3.6,11l1,4.1l1-4.1l3.4-11h3.8l2.3,19.3h-2.8l-1.2-12L20,11.5l-1.3,5.1l-4,12.1h-1.5L9,16.6l-1.4-5.1
		l-0.3,5.2l-1.1,12H3.4l2-19.3C5.4,9.3,9.4,9.3,9.4,9.3z M31.6,9.3v19.3h-2.9V9.3H31.6z M35,11.5V9.3h14.9v2.2h-6v17.1H41V11.5
		C41,11.5,35,11.5,35,11.5z"/>
	<path class="st1" d="M64.4,15.8c0.2,0.1,0.5,0.2,0.8,0.3c0.3,0.1,0.7,0.1,1,0.1c0.5,0,0.9-0.1,1.2-0.3c0.3-0.2,0.4-0.5,0.4-0.9
		c0-0.3-0.1-0.5-0.2-0.7c-0.1-0.2-0.3-0.3-0.5-0.5c-0.2-0.1-0.5-0.3-1-0.5c-1.3-0.6-1.9-1.3-1.9-2.1c0-0.4,0.1-0.7,0.3-1
		c0.2-0.3,0.5-0.5,0.9-0.6c0.4-0.1,0.7-0.2,1.1-0.2c0.4,0,0.8,0,1,0.1c0.3,0.1,0.5,0.2,0.7,0.3l-0.2,0.7c-0.2-0.1-0.4-0.2-0.7-0.3
		c-0.2-0.1-0.5-0.1-0.9-0.1c-0.3,0-0.5,0-0.8,0.1c-0.2,0.1-0.4,0.2-0.6,0.3c-0.1,0.2-0.2,0.3-0.2,0.6c0,0.3,0.1,0.5,0.2,0.7
		c0.1,0.2,0.3,0.3,0.5,0.5c0.2,0.1,0.5,0.3,0.9,0.5c0.4,0.2,0.8,0.4,1,0.6c0.3,0.2,0.5,0.4,0.7,0.6c0.2,0.3,0.3,0.6,0.3,0.9
		c0,0.4-0.1,0.8-0.3,1c-0.2,0.3-0.5,0.5-0.8,0.6c-0.4,0.1-0.8,0.2-1.2,0.2c-0.3,0-0.6,0-0.9-0.1c-0.3,0-0.5-0.1-0.7-0.2
		c-0.2-0.1-0.4-0.1-0.5-0.2C64.2,16.5,64.4,15.8,64.4,15.8z M72.1,11.5c0.3,0,0.6,0,0.8,0.1c0.2,0.1,0.4,0.1,0.5,0.2l-0.1,0.7
		c-0.1-0.1-0.3-0.2-0.5-0.3c-0.2-0.1-0.4-0.1-0.7-0.1c-0.3,0-0.6,0.1-0.9,0.2c-0.3,0.2-0.5,0.4-0.6,0.7c-0.2,0.3-0.2,0.7-0.2,1.2
		c0,0.5,0.1,0.8,0.2,1.1c0.2,0.3,0.4,0.6,0.6,0.7c0.3,0.2,0.5,0.2,0.9,0.2c0.3,0,0.5,0,0.8-0.1c0.2-0.1,0.4-0.2,0.6-0.2l0.2,0.4
		c-0.2,0.2-0.4,0.3-0.7,0.4c-0.3,0.1-0.6,0.1-1,0.1c-0.5,0-0.9-0.1-1.3-0.3c-0.4-0.2-0.6-0.5-0.8-0.9s-0.3-0.9-0.3-1.4
		c0-0.5,0.1-1,0.3-1.4c0.2-0.4,0.5-0.8,0.9-1C71.1,11.6,71.6,11.5,72.1,11.5z M77.6,11.5c0.4,0,0.7,0.1,0.9,0.2
		c0.2,0.1,0.4,0.4,0.5,0.7c0.1,0.3,0.2,0.8,0.2,1.3v3.2h-0.8v-3.2c0-0.4,0-0.7-0.1-0.9c-0.1-0.2-0.2-0.4-0.4-0.5
		c-0.2-0.1-0.4-0.1-0.7-0.1c-0.3,0-0.5,0.1-0.8,0.2c-0.3,0.1-0.6,0.3-0.8,0.5v4.1h-0.8V9h0.8v2.4l0,0.7c0.2-0.2,0.6-0.4,0.9-0.5
		C76.8,11.5,77.2,11.5,77.6,11.5L77.6,11.5z M80.6,14.1c0-0.6,0.1-1,0.3-1.4c0.2-0.4,0.5-0.7,0.9-0.9c0.4-0.2,0.8-0.3,1.3-0.3
		c0.5,0,1,0.1,1.3,0.4c0.4,0.2,0.6,0.6,0.8,1c0.2,0.4,0.2,0.9,0.2,1.4c0,0.6-0.1,1-0.3,1.5c-0.2,0.4-0.5,0.7-0.9,0.9
		c-0.4,0.2-0.8,0.3-1.3,0.3c-0.5,0-1-0.1-1.3-0.4c-0.4-0.2-0.6-0.6-0.8-1C80.7,15.1,80.6,14.7,80.6,14.1L80.6,14.1z M84.6,14.2
		c0-0.4-0.1-0.8-0.2-1.1c-0.1-0.3-0.3-0.6-0.5-0.8C83.6,12.1,83.3,12,83,12c-0.3,0-0.6,0.1-0.9,0.2c-0.2,0.2-0.4,0.4-0.6,0.7
		c-0.1,0.3-0.2,0.7-0.2,1.1c0,0.4,0.1,0.8,0.2,1.1c0.1,0.3,0.3,0.6,0.5,0.8c0.2,0.2,0.5,0.3,0.9,0.3c0.3,0,0.6-0.1,0.9-0.3
		c0.2-0.2,0.4-0.4,0.5-0.7C84.5,15,84.6,14.6,84.6,14.2z M86.4,14.1c0-0.6,0.1-1,0.3-1.4c0.2-0.4,0.5-0.7,0.9-0.9
		c0.4-0.2,0.8-0.3,1.3-0.3c0.5,0,1,0.1,1.3,0.4c0.4,0.2,0.6,0.6,0.8,1c0.2,0.4,0.2,0.9,0.2,1.4c0,0.6-0.1,1-0.3,1.5
		c-0.2,0.4-0.5,0.7-0.9,0.9c-0.4,0.2-0.8,0.3-1.3,0.3c-0.5,0-1-0.1-1.3-0.4s-0.6-0.6-0.8-1C86.5,15.1,86.4,14.7,86.4,14.1L86.4,14.1
		z M90.4,14.2c0-0.4-0.1-0.8-0.2-1.1c-0.1-0.3-0.3-0.6-0.5-0.8c-0.2-0.2-0.5-0.3-0.9-0.3c-0.3,0-0.6,0.1-0.9,0.2
		c-0.2,0.2-0.4,0.4-0.6,0.7c-0.1,0.3-0.2,0.7-0.2,1.1c0,0.4,0.1,0.8,0.2,1.1c0.1,0.3,0.3,0.6,0.5,0.8c0.2,0.2,0.5,0.3,0.9,0.3
		c0.3,0,0.6-0.1,0.9-0.3c0.2-0.2,0.4-0.4,0.5-0.7C90.3,15,90.4,14.6,90.4,14.2z M93.5,9v7.8h-0.8V9C92.7,9,93.5,9,93.5,9z
		 M98.1,14.1c0-0.6,0.1-1,0.3-1.4c0.2-0.4,0.5-0.7,0.9-0.9c0.4-0.2,0.8-0.3,1.3-0.3c0.5,0,1,0.1,1.3,0.4c0.4,0.2,0.6,0.6,0.8,1
		c0.2,0.4,0.2,0.9,0.2,1.4c0,0.6-0.1,1-0.3,1.5c-0.2,0.4-0.5,0.7-0.9,0.9c-0.4,0.2-0.8,0.3-1.3,0.3c-0.5,0-1-0.1-1.3-0.4
		c-0.4-0.2-0.6-0.6-0.8-1C98.2,15.1,98.1,14.7,98.1,14.1z M102.1,14.2c0-0.4-0.1-0.8-0.2-1.1c-0.1-0.3-0.3-0.6-0.5-0.8
		c-0.2-0.2-0.5-0.3-0.9-0.3c-0.3,0-0.6,0.1-0.9,0.2c-0.2,0.2-0.4,0.4-0.6,0.7c-0.1,0.3-0.2,0.7-0.2,1.1c0,0.4,0.1,0.8,0.2,1.1
		c0.1,0.3,0.3,0.6,0.5,0.8c0.2,0.2,0.5,0.3,0.9,0.3c0.3,0,0.6-0.1,0.9-0.3c0.2-0.2,0.4-0.4,0.5-0.7C102.1,15,102.1,14.6,102.1,14.2z
		 M103.8,12.1v-0.4l0.9-0.2V11c0-0.5,0.1-0.9,0.3-1.2c0.2-0.3,0.4-0.6,0.7-0.7c0.3-0.1,0.6-0.2,0.9-0.2c0.1,0,0.3,0,0.4,0
		c0.1,0,0.2,0,0.3,0.1v0.7c-0.1,0-0.2-0.1-0.3-0.1c-0.1,0-0.3,0-0.4,0c-0.3,0-0.5,0.1-0.7,0.3c-0.2,0.2-0.3,0.6-0.3,1v0.6h1.4v0.6
		h-1.4v4.8h-0.8v-4.8L103.8,12.1L103.8,12.1L103.8,12.1z M64.5,21.9h0.6h0.7h0.9c0.8,0,1.4,0.1,1.9,0.4c0.5,0.3,0.9,0.7,1.1,1.2
		c0.3,0.5,0.4,1.1,0.4,1.8c0,0.8-0.1,1.4-0.4,2c-0.3,0.6-0.7,1-1.2,1.3c-0.5,0.3-1.1,0.5-1.9,0.5h-0.8h-0.9h-0.5L64.5,21.9
		C64.5,21.9,64.5,21.9,64.5,21.9z M66.7,28.5c0.5,0,1-0.1,1.4-0.3c0.4-0.2,0.7-0.6,0.9-1.1c0.2-0.5,0.3-1.1,0.3-1.8
		c0-1-0.2-1.8-0.7-2.2c-0.5-0.5-1.2-0.7-2.1-0.7c-0.4,0-0.7,0-1.2,0.1v6c0.2,0,0.4,0.1,0.7,0.1C66.3,28.5,66.5,28.5,66.7,28.5z
		 M72.4,23.7v5.4h-0.8v-5.4H72.4z M71.4,22c0-0.1,0-0.2,0.1-0.3c0.1-0.1,0.1-0.2,0.2-0.2c0.1-0.1,0.2-0.1,0.3-0.1
		c0.2,0,0.3,0,0.4,0.1c0.1,0.1,0.1,0.2,0.1,0.4c0,0.1,0,0.2-0.1,0.3c-0.1,0.1-0.1,0.2-0.2,0.2c-0.1,0.1-0.2,0.1-0.3,0.1
		c-0.1,0-0.3,0-0.4-0.1C71.5,22.3,71.4,22.1,71.4,22z M74.1,28.1c0.1,0,0.2,0.1,0.4,0.2c0.2,0.1,0.4,0.1,0.6,0.2
		c0.2,0,0.4,0.1,0.6,0.1c0.4,0,0.6-0.1,0.9-0.2c0.2-0.1,0.3-0.3,0.3-0.6c0-0.2-0.1-0.3-0.2-0.4c-0.1-0.1-0.3-0.2-0.4-0.3
		c-0.2-0.1-0.4-0.2-0.7-0.3c-0.5-0.2-0.9-0.4-1.1-0.7c-0.3-0.3-0.4-0.6-0.4-1c0-0.3,0.1-0.5,0.3-0.7c0.2-0.2,0.4-0.4,0.7-0.5
		c0.3-0.1,0.6-0.1,1-0.1c0.3,0,0.6,0,0.8,0.1c0.3,0.1,0.4,0.1,0.6,0.2l-0.1,0.7c-0.1-0.1-0.3-0.2-0.5-0.2c-0.2-0.1-0.5-0.1-0.7-0.1
		c-0.4,0-0.7,0.1-0.9,0.2c-0.2,0.1-0.3,0.3-0.3,0.5c0,0.2,0,0.3,0.1,0.5c0.1,0.1,0.2,0.2,0.4,0.3c0.2,0.1,0.4,0.2,0.6,0.3
		c0.3,0.1,0.6,0.2,0.8,0.4c0.2,0.1,0.4,0.3,0.6,0.5c0.2,0.2,0.2,0.4,0.2,0.7c0,0.3-0.1,0.6-0.2,0.8c-0.2,0.2-0.4,0.4-0.7,0.5
		c-0.3,0.1-0.6,0.2-1,0.2c-0.3,0-0.7,0-1-0.1c-0.3-0.1-0.6-0.2-0.7-0.3L74.1,28.1z M79.2,24.3h-0.8v-0.4c0.1,0,0.1,0,0.3-0.1
		c0.2,0,0.3-0.1,0.4-0.1c0.1,0,0.1-0.1,0.2-0.2c0-0.1,0.1-0.2,0.1-0.5c0.1-0.3,0.1-0.5,0.1-0.7H80v1.3h1.7v0.6H80v3
		c0,0.4,0,0.6,0.1,0.8c0,0.2,0.1,0.3,0.2,0.3c0.1,0,0.2,0.1,0.4,0.1c0.2,0,0.3,0,0.6-0.1c0.2-0.1,0.4-0.1,0.5-0.2l0.1,0.5
		c-0.1,0.1-0.4,0.2-0.6,0.3c-0.3,0.1-0.5,0.1-0.8,0.1c-0.2,0-0.5,0-0.6-0.1c-0.2-0.1-0.3-0.2-0.4-0.4c-0.1-0.2-0.2-0.5-0.2-0.8
		L79.2,24.3L79.2,24.3z M84.8,23.7c0.4,0,0.7,0,1,0.1c0.3,0.1,0.5,0.3,0.6,0.5c0.1,0.2,0.2,0.6,0.2,1v3.8h-0.3c-0.1,0-0.2,0-0.2,0
		C86.1,29.1,86,29,86,29c0-0.1,0-0.1,0-0.2v-0.2c-0.2,0.2-0.4,0.3-0.7,0.4c-0.3,0.1-0.6,0.2-1,0.2c-0.3,0-0.6-0.1-0.9-0.2
		c-0.3-0.1-0.4-0.3-0.6-0.5c-0.1-0.2-0.2-0.5-0.2-0.8c0-0.4,0.1-0.7,0.3-0.9c0.2-0.3,0.5-0.4,0.9-0.6c0.3-0.1,0.6-0.2,1-0.2
		c0.4-0.1,0.8-0.1,1.1-0.1v-0.6c0-0.3,0-0.5-0.1-0.6c-0.1-0.1-0.2-0.2-0.4-0.3c-0.2,0-0.4-0.1-0.7-0.1c-0.2,0-0.4,0-0.6,0.1
		c-0.2,0-0.4,0.1-0.6,0.2c-0.2,0.1-0.3,0.1-0.4,0.2l-0.2-0.5c0.1-0.1,0.2-0.1,0.4-0.2c0.2-0.1,0.5-0.2,0.7-0.2
		C84.3,23.7,84.6,23.7,84.8,23.7L84.8,23.7z M84.5,28.5c0.2,0,0.4,0,0.6-0.1c0.2-0.1,0.4-0.1,0.5-0.2c0.1-0.1,0.2-0.1,0.3-0.2v-1.7
		c-0.3,0-0.5,0-0.9,0.1c-0.3,0-0.6,0.1-0.8,0.2c-0.3,0.1-0.5,0.2-0.6,0.4c-0.1,0.2-0.2,0.4-0.2,0.6c0,0.3,0.1,0.5,0.3,0.7
		C83.8,28.4,84.1,28.5,84.5,28.5L84.5,28.5z M89.2,23.7l0,0.8c0.3-0.2,0.6-0.4,0.9-0.5c0.4-0.2,0.7-0.2,1.1-0.2
		c0.4,0,0.7,0.1,0.9,0.2c0.2,0.1,0.4,0.4,0.5,0.7c0.1,0.3,0.2,0.7,0.2,1.2v3.3H92v-3.3c0-0.4,0-0.7-0.1-0.9
		c-0.1-0.2-0.2-0.4-0.3-0.5c-0.2-0.1-0.4-0.1-0.7-0.1c-0.2,0-0.5,0.1-0.8,0.2c-0.3,0.1-0.6,0.3-0.8,0.5v4.1h-0.8v-5.4L89.2,23.7
		L89.2,23.7z M96.7,23.7c0.3,0,0.6,0,0.8,0.1c0.2,0.1,0.4,0.1,0.5,0.2l-0.1,0.7c-0.1-0.1-0.3-0.2-0.5-0.3c-0.2-0.1-0.4-0.1-0.7-0.1
		c-0.3,0-0.6,0.1-0.9,0.2c-0.3,0.2-0.5,0.4-0.6,0.7c-0.2,0.3-0.2,0.7-0.2,1.2c0,0.5,0.1,0.8,0.2,1.1c0.2,0.3,0.4,0.6,0.6,0.7
		c0.3,0.2,0.5,0.2,0.9,0.2c0.3,0,0.5,0,0.8-0.1c0.2-0.1,0.4-0.2,0.6-0.2l0.2,0.4c-0.2,0.2-0.4,0.3-0.7,0.4c-0.3,0.1-0.6,0.1-1,0.1
		c-0.5,0-0.9-0.1-1.3-0.3c-0.4-0.2-0.6-0.5-0.8-0.9c-0.2-0.4-0.3-0.9-0.3-1.4c0-0.5,0.1-1,0.3-1.4c0.2-0.4,0.5-0.8,0.9-1
		C95.7,23.8,96.2,23.7,96.7,23.7L96.7,23.7z M99.7,26.4v0.2c0,0.7,0.2,1.1,0.5,1.5c0.3,0.3,0.7,0.5,1.3,0.5c0.2,0,0.5,0,0.8-0.1
		c0.3-0.1,0.5-0.2,0.7-0.2l0.2,0.5c-0.2,0.1-0.4,0.3-0.8,0.4c-0.4,0.1-0.7,0.1-1,0.1c-0.5,0-0.9-0.1-1.3-0.3
		c-0.4-0.2-0.6-0.5-0.8-0.9S99,27,99,26.4c0-0.5,0.1-1,0.3-1.4c0.2-0.4,0.5-0.7,0.8-1c0.4-0.2,0.8-0.3,1.3-0.3c0.4,0,0.7,0.1,1,0.2
		c0.3,0.2,0.5,0.4,0.7,0.7c0.2,0.3,0.2,0.6,0.3,1c0,0.2,0,0.4,0,0.5c0,0.1,0,0.2,0,0.3C103.3,26.4,99.7,26.4,99.7,26.4z M101.3,24.2
		c-0.4,0-0.8,0.1-1.1,0.4c-0.3,0.3-0.5,0.7-0.5,1.2h2.8c0,0,0-0.1,0-0.2c0-0.4-0.1-0.8-0.3-1C102.1,24.4,101.8,24.2,101.3,24.2
		L101.3,24.2z M112,21.9v0.6h-3.3v2.6h2.4v0.6h-2.4v2.8h3.6v0.6h-4.4v-7.2H112z M117.7,21.3v7.8h-0.3c-0.1,0-0.2,0-0.3-0.1
		c-0.1,0-0.1-0.1-0.1-0.3v-0.3c-0.2,0.2-0.4,0.3-0.7,0.5c-0.3,0.1-0.6,0.2-1,0.2c-0.4,0-0.7-0.1-1.1-0.3c-0.3-0.2-0.6-0.5-0.8-0.8
		c-0.2-0.4-0.3-0.9-0.3-1.4c0-0.6,0.1-1.1,0.3-1.5c0.2-0.4,0.5-0.8,1-1c0.4-0.2,0.9-0.4,1.4-0.4c0.4,0,0.7,0.1,1,0.2l0-0.3v-2.3
		L117.7,21.3L117.7,21.3z M113.9,26.5c0,0.7,0.1,1.2,0.4,1.5c0.3,0.3,0.7,0.5,1.1,0.5c0.3,0,0.5-0.1,0.8-0.2
		c0.2-0.1,0.4-0.2,0.6-0.4v-3.5c-0.1-0.1-0.2-0.1-0.4-0.2c-0.2-0.1-0.4-0.1-0.7-0.1c-0.3,0-0.7,0.1-0.9,0.3
		c-0.3,0.2-0.5,0.4-0.6,0.8C114,25.6,113.9,26,113.9,26.5z M123.6,23.7v5.4h-0.3c-0.1,0-0.2,0-0.3-0.1c-0.1,0-0.1-0.1-0.1-0.3v-0.3
		c-0.3,0.2-0.6,0.3-0.9,0.4c-0.3,0.1-0.7,0.2-1,0.2c-0.4,0-0.8-0.1-1-0.3c-0.2-0.2-0.4-0.4-0.5-0.8c-0.1-0.3-0.1-0.7-0.1-1.2v-3.1
		h0.8v3.2c0,0.4,0,0.8,0.1,1c0.1,0.2,0.2,0.4,0.3,0.5c0.2,0.1,0.4,0.1,0.7,0.1c0.3,0,0.5-0.1,0.8-0.2c0.3-0.1,0.5-0.2,0.7-0.3v-4.3
		H123.6z M127.5,23.7c0.3,0,0.6,0,0.8,0.1c0.2,0.1,0.4,0.1,0.5,0.2l-0.1,0.7c-0.1-0.1-0.3-0.2-0.5-0.3c-0.2-0.1-0.4-0.1-0.7-0.1
		c-0.3,0-0.6,0.1-0.9,0.2c-0.3,0.2-0.5,0.4-0.6,0.7c-0.2,0.3-0.2,0.7-0.2,1.2c0,0.5,0.1,0.8,0.2,1.1s0.4,0.6,0.6,0.7
		c0.3,0.2,0.5,0.2,0.9,0.2c0.3,0,0.5,0,0.8-0.1c0.2-0.1,0.4-0.2,0.6-0.2l0.2,0.4c-0.2,0.2-0.4,0.3-0.7,0.4c-0.3,0.1-0.6,0.1-1,0.1
		c-0.5,0-0.9-0.1-1.3-0.3c-0.4-0.2-0.6-0.5-0.8-0.9c-0.2-0.4-0.3-0.9-0.3-1.4c0-0.5,0.1-1,0.3-1.4c0.2-0.4,0.5-0.8,0.9-1
		C126.5,23.8,127,23.7,127.5,23.7L127.5,23.7z M132,23.7c0.4,0,0.7,0,1,0.1c0.3,0.1,0.5,0.3,0.6,0.5c0.1,0.2,0.2,0.6,0.2,1v3.8h-0.3
		c-0.1,0-0.2,0-0.2,0c-0.1,0-0.1-0.1-0.1-0.1c0-0.1,0-0.1,0-0.2v-0.2c-0.2,0.2-0.4,0.3-0.7,0.4c-0.3,0.1-0.6,0.2-1,0.2
		c-0.3,0-0.6-0.1-0.9-0.2c-0.3-0.1-0.4-0.3-0.6-0.5c-0.1-0.2-0.2-0.5-0.2-0.8c0-0.4,0.1-0.7,0.3-0.9c0.2-0.3,0.5-0.4,0.9-0.6
		c0.3-0.1,0.6-0.2,1-0.2c0.4-0.1,0.8-0.1,1.1-0.1v-0.6c0-0.3,0-0.5-0.1-0.6c-0.1-0.1-0.2-0.2-0.4-0.3c-0.2,0-0.4-0.1-0.7-0.1
		c-0.2,0-0.4,0-0.6,0.1c-0.2,0-0.4,0.1-0.6,0.2c-0.2,0.1-0.3,0.1-0.4,0.2l-0.2-0.5c0.1-0.1,0.2-0.1,0.4-0.2c0.2-0.1,0.5-0.2,0.7-0.2
		C131.5,23.7,131.7,23.7,132,23.7z M131.7,28.5c0.2,0,0.4,0,0.6-0.1c0.2-0.1,0.4-0.1,0.5-0.2c0.1-0.1,0.2-0.1,0.3-0.2v-1.7
		c-0.3,0-0.5,0-0.9,0.1c-0.3,0-0.6,0.1-0.8,0.2c-0.3,0.1-0.5,0.2-0.6,0.4c-0.1,0.2-0.2,0.4-0.2,0.6c0,0.3,0.1,0.5,0.3,0.7
		C131,28.4,131.3,28.5,131.7,28.5z M135.8,24.3h-0.8v-0.4c0.1,0,0.1,0,0.3-0.1c0.2,0,0.3-0.1,0.4-0.1c0.1,0,0.1-0.1,0.2-0.2
		c0-0.1,0.1-0.2,0.1-0.5c0.1-0.3,0.1-0.5,0.1-0.7h0.5v1.3h1.7v0.6h-1.7v3c0,0.4,0,0.6,0.1,0.8c0,0.2,0.1,0.3,0.2,0.3
		c0.1,0,0.2,0.1,0.4,0.1c0.2,0,0.3,0,0.6-0.1c0.2-0.1,0.4-0.1,0.5-0.2l0.1,0.5c-0.1,0.1-0.4,0.2-0.6,0.3c-0.3,0.1-0.5,0.1-0.8,0.1
		c-0.2,0-0.5,0-0.6-0.1c-0.2-0.1-0.3-0.2-0.4-0.4c-0.1-0.2-0.2-0.5-0.2-0.8L135.8,24.3L135.8,24.3L135.8,24.3z M140.5,23.7v5.4h-0.8
		v-5.4H140.5z M139.6,22c0-0.1,0-0.2,0.1-0.3c0.1-0.1,0.1-0.2,0.2-0.2c0.1-0.1,0.2-0.1,0.3-0.1c0.2,0,0.3,0,0.4,0.1
		c0.1,0.1,0.1,0.2,0.1,0.4c0,0.1,0,0.2-0.1,0.3c-0.1,0.1-0.1,0.2-0.2,0.2c-0.1,0.1-0.2,0.1-0.3,0.1c-0.1,0-0.3,0-0.4-0.1
		C139.6,22.3,139.6,22.1,139.6,22L139.6,22z M142,26.4c0-0.6,0.1-1,0.3-1.4c0.2-0.4,0.5-0.7,0.9-0.9c0.4-0.2,0.8-0.3,1.3-0.3
		c0.5,0,1,0.1,1.3,0.4c0.4,0.2,0.6,0.6,0.8,1c0.2,0.4,0.2,0.9,0.2,1.4c0,0.6-0.1,1-0.3,1.5c-0.2,0.4-0.5,0.7-0.9,0.9
		c-0.4,0.2-0.8,0.3-1.3,0.3c-0.5,0-1-0.1-1.3-0.4c-0.4-0.2-0.6-0.6-0.8-1C142.1,27.3,142,26.9,142,26.4z M146,26.4
		c0-0.4-0.1-0.8-0.2-1.1c-0.1-0.3-0.3-0.6-0.5-0.8c-0.2-0.2-0.5-0.3-0.9-0.3c-0.3,0-0.6,0.1-0.9,0.2c-0.2,0.2-0.4,0.4-0.6,0.7
		c-0.1,0.3-0.2,0.7-0.2,1.1c0,0.4,0.1,0.8,0.2,1.1c0.1,0.3,0.3,0.6,0.5,0.8c0.2,0.2,0.5,0.3,0.9,0.3c0.3,0,0.6-0.1,0.9-0.3
		c0.2-0.2,0.4-0.4,0.5-0.7C146,27.2,146,26.9,146,26.4z M149,23.7l0,0.8c0.3-0.2,0.6-0.4,0.9-0.5c0.4-0.2,0.7-0.2,1.1-0.2
		c0.4,0,0.7,0.1,0.9,0.2c0.2,0.1,0.4,0.4,0.5,0.7c0.1,0.3,0.2,0.7,0.2,1.2v3.3h-0.8v-3.3c0-0.4,0-0.7-0.1-0.9
		c-0.1-0.2-0.2-0.4-0.3-0.5c-0.2-0.1-0.4-0.1-0.7-0.1c-0.2,0-0.5,0.1-0.8,0.2c-0.3,0.1-0.6,0.3-0.8,0.5v4.1h-0.8v-5.4H149z"/>
	<rect x="56.4" y="9.3" class="st2" width="1.3" height="19.4"/>
</g>
</svg>
