<?xml version="1.0" encoding="UTF-8" standalone="no"?>
<!-- Generator: Adobe Illustrator 26.5.3, SVG Export Plug-In . SVG Version: 6.00 Build 0)  -->

<svg
   version="1.1"
   id="Layer_1"
   x="0px"
   y="0px"
   viewBox="0 0 149.2 20.5"
   xml:space="preserve"
   sodipodi:docname="137086be95c04af0d0d0502fba8f38e4.svg"
   width="149.2"
   height="20.5"
   xmlns:inkscape="http://www.inkscape.org/namespaces/inkscape"
   xmlns:sodipodi="http://sodipodi.sourceforge.net/DTD/sodipodi-0.dtd"
   xmlns="http://www.w3.org/2000/svg"
   xmlns:svg="http://www.w3.org/2000/svg"><defs
   id="defs15" /><sodipodi:namedview
   id="namedview13"
   pagecolor="#ffffff"
   bordercolor="#666666"
   borderopacity="1.0"
   inkscape:pageshadow="2"
   inkscape:pageopacity="0.0"
   inkscape:pagecheckerboard="0" />
<style
   type="text/css"
   id="style2">
	.st0{fill-rule:evenodd;clip-rule:evenodd;fill:#F47521;}
	.st1{fill-rule:evenodd;clip-rule:evenodd;fill:#58585A;}
	.st2{fill:#58585A;}
</style>
<g
   id="g10"
   transform="translate(-3.4,-8.9)">
	<path
   class="st0"
   d="m 9.4,9.3 3.6,11 1,4.1 1,-4.1 3.4,-11 h 3.8 l 2.3,19.3 h -2.8 l -1.2,-12 -0.5,-5.1 -1.3,5.1 -4,12.1 H 13.2 L 9,16.6 7.6,11.5 7.3,16.7 6.2,28.7 H 3.4 l 2,-19.3 c 0,-0.1 4,-0.1 4,-0.1 z m 22.2,0 V 28.6 H 28.7 V 9.3 Z M 35,11.5 V 9.3 h 14.9 v 2.2 h -6 V 28.6 H 41 V 11.5 c 0,0 -6,0 -6,0 z"
   id="path4" />
	<path
   class="st1"
   d="m 64.4,15.8 c 0.2,0.1 0.5,0.2 0.8,0.3 0.3,0.1 0.7,0.1 1,0.1 0.5,0 0.9,-0.1 1.2,-0.3 0.3,-0.2 0.4,-0.5 0.4,-0.9 0,-0.3 -0.1,-0.5 -0.2,-0.7 -0.1,-0.2 -0.3,-0.3 -0.5,-0.5 -0.2,-0.1 -0.5,-0.3 -1,-0.5 -1.3,-0.6 -1.9,-1.3 -1.9,-2.1 0,-0.4 0.1,-0.7 0.3,-1 0.2,-0.3 0.5,-0.5 0.9,-0.6 0.4,-0.1 0.7,-0.2 1.1,-0.2 0.4,0 0.8,0 1,0.1 0.3,0.1 0.5,0.2 0.7,0.3 L 68,10.5 c -0.2,-0.1 -0.4,-0.2 -0.7,-0.3 -0.2,-0.1 -0.5,-0.1 -0.9,-0.1 -0.3,0 -0.5,0 -0.8,0.1 -0.2,0.1 -0.4,0.2 -0.6,0.3 -0.1,0.2 -0.2,0.3 -0.2,0.6 0,0.3 0.1,0.5 0.2,0.7 0.1,0.2 0.3,0.3 0.5,0.5 0.2,0.1 0.5,0.3 0.9,0.5 0.4,0.2 0.8,0.4 1,0.6 0.3,0.2 0.5,0.4 0.7,0.6 0.2,0.3 0.3,0.6 0.3,0.9 0,0.4 -0.1,0.8 -0.3,1 -0.2,0.3 -0.5,0.5 -0.8,0.6 -0.4,0.1 -0.8,0.2 -1.2,0.2 -0.3,0 -0.6,0 -0.9,-0.1 -0.3,0 -0.5,-0.1 -0.7,-0.2 -0.2,-0.1 -0.4,-0.1 -0.5,-0.2 0.2,0.3 0.4,-0.4 0.4,-0.4 z m 7.7,-4.3 c 0.3,0 0.6,0 0.8,0.1 0.2,0.1 0.4,0.1 0.5,0.2 l -0.1,0.7 c -0.1,-0.1 -0.3,-0.2 -0.5,-0.3 -0.2,-0.1 -0.4,-0.1 -0.7,-0.1 -0.3,0 -0.6,0.1 -0.9,0.2 -0.3,0.2 -0.5,0.4 -0.6,0.7 -0.2,0.3 -0.2,0.7 -0.2,1.2 0,0.5 0.1,0.8 0.2,1.1 0.2,0.3 0.4,0.6 0.6,0.7 0.3,0.2 0.5,0.2 0.9,0.2 0.3,0 0.5,0 0.8,-0.1 0.2,-0.1 0.4,-0.2 0.6,-0.2 l 0.2,0.4 c -0.2,0.2 -0.4,0.3 -0.7,0.4 -0.3,0.1 -0.6,0.1 -1,0.1 -0.5,0 -0.9,-0.1 -1.3,-0.3 -0.4,-0.2 -0.6,-0.5 -0.8,-0.9 -0.2,-0.4 -0.3,-0.9 -0.3,-1.4 0,-0.5 0.1,-1 0.3,-1.4 0.2,-0.4 0.5,-0.8 0.9,-1 0.3,-0.2 0.8,-0.3 1.3,-0.3 z m 5.5,0 c 0.4,0 0.7,0.1 0.9,0.2 0.2,0.1 0.4,0.4 0.5,0.7 0.1,0.3 0.2,0.8 0.2,1.3 v 3.2 h -0.8 v -3.2 c 0,-0.4 0,-0.7 -0.1,-0.9 -0.1,-0.2 -0.2,-0.4 -0.4,-0.5 -0.2,-0.1 -0.4,-0.1 -0.7,-0.1 -0.3,0 -0.5,0.1 -0.8,0.2 -0.3,0.1 -0.6,0.3 -0.8,0.5 V 17 H 74.8 V 9 h 0.8 v 2.4 0.7 c 0.2,-0.2 0.6,-0.4 0.9,-0.5 0.3,-0.1 0.7,-0.1 1.1,-0.1 z m 3,2.6 c 0,-0.6 0.1,-1 0.3,-1.4 0.2,-0.4 0.5,-0.7 0.9,-0.9 0.4,-0.2 0.8,-0.3 1.3,-0.3 0.5,0 1,0.1 1.3,0.4 0.4,0.2 0.6,0.6 0.8,1 0.2,0.4 0.2,0.9 0.2,1.4 0,0.6 -0.1,1 -0.3,1.5 -0.2,0.4 -0.5,0.7 -0.9,0.9 -0.4,0.2 -0.8,0.3 -1.3,0.3 -0.5,0 -1,-0.1 -1.3,-0.4 -0.4,-0.2 -0.6,-0.6 -0.8,-1 -0.1,-0.5 -0.2,-0.9 -0.2,-1.5 z m 4,0.1 c 0,-0.4 -0.1,-0.8 -0.2,-1.1 C 84.3,12.8 84.1,12.5 83.9,12.3 83.6,12.1 83.3,12 83,12 c -0.3,0 -0.6,0.1 -0.9,0.2 -0.2,0.2 -0.4,0.4 -0.6,0.7 -0.1,0.3 -0.2,0.7 -0.2,1.1 0,0.4 0.1,0.8 0.2,1.1 0.1,0.3 0.3,0.6 0.5,0.8 0.2,0.2 0.5,0.3 0.9,0.3 0.3,0 0.6,-0.1 0.9,-0.3 0.2,-0.2 0.4,-0.4 0.5,-0.7 0.2,-0.2 0.3,-0.6 0.3,-1 z m 1.8,-0.1 c 0,-0.6 0.1,-1 0.3,-1.4 0.2,-0.4 0.5,-0.7 0.9,-0.9 0.4,-0.2 0.8,-0.3 1.3,-0.3 0.5,0 1,0.1 1.3,0.4 0.4,0.2 0.6,0.6 0.8,1 0.2,0.4 0.2,0.9 0.2,1.4 0,0.6 -0.1,1 -0.3,1.5 -0.2,0.4 -0.5,0.7 -0.9,0.9 -0.4,0.2 -0.8,0.3 -1.3,0.3 -0.5,0 -1,-0.1 -1.3,-0.4 -0.3,-0.3 -0.6,-0.6 -0.8,-1 -0.1,-0.5 -0.2,-0.9 -0.2,-1.5 z m 4,0.1 c 0,-0.4 -0.1,-0.8 -0.2,-1.1 -0.1,-0.3 -0.3,-0.6 -0.5,-0.8 -0.2,-0.2 -0.5,-0.3 -0.9,-0.3 -0.3,0 -0.6,0.1 -0.9,0.2 -0.2,0.2 -0.4,0.4 -0.6,0.7 -0.1,0.3 -0.2,0.7 -0.2,1.1 0,0.4 0.1,0.8 0.2,1.1 0.1,0.3 0.3,0.6 0.5,0.8 0.2,0.2 0.5,0.3 0.9,0.3 0.3,0 0.6,-0.1 0.9,-0.3 0.2,-0.2 0.4,-0.4 0.5,-0.7 0.2,-0.2 0.3,-0.6 0.3,-1 z M 93.5,9 v 7.8 H 92.7 V 9 c 0,0 0.8,0 0.8,0 z m 4.6,5.1 c 0,-0.6 0.1,-1 0.3,-1.4 0.2,-0.4 0.5,-0.7 0.9,-0.9 0.4,-0.2 0.8,-0.3 1.3,-0.3 0.5,0 1,0.1 1.3,0.4 0.4,0.2 0.6,0.6 0.8,1 0.2,0.4 0.2,0.9 0.2,1.4 0,0.6 -0.1,1 -0.3,1.5 -0.2,0.4 -0.5,0.7 -0.9,0.9 -0.4,0.2 -0.8,0.3 -1.3,0.3 -0.5,0 -1,-0.1 -1.3,-0.4 -0.4,-0.2 -0.6,-0.6 -0.8,-1 -0.1,-0.5 -0.2,-0.9 -0.2,-1.5 z m 4,0.1 c 0,-0.4 -0.1,-0.8 -0.2,-1.1 -0.1,-0.3 -0.3,-0.6 -0.5,-0.8 -0.2,-0.2 -0.5,-0.3 -0.9,-0.3 -0.3,0 -0.6,0.1 -0.9,0.2 -0.2,0.2 -0.4,0.4 -0.6,0.7 -0.1,0.3 -0.2,0.7 -0.2,1.1 0,0.4 0.1,0.8 0.2,1.1 0.1,0.3 0.3,0.6 0.5,0.8 0.2,0.2 0.5,0.3 0.9,0.3 0.3,0 0.6,-0.1 0.9,-0.3 0.2,-0.2 0.4,-0.4 0.5,-0.7 0.3,-0.2 0.3,-0.6 0.3,-1 z m 1.7,-2.1 v -0.4 l 0.9,-0.2 V 11 c 0,-0.5 0.1,-0.9 0.3,-1.2 0.2,-0.3 0.4,-0.6 0.7,-0.7 0.3,-0.1 0.6,-0.2 0.9,-0.2 0.1,0 0.3,0 0.4,0 0.1,0 0.2,0 0.3,0.1 v 0.7 c -0.1,0 -0.2,-0.1 -0.3,-0.1 -0.1,0 -0.3,0 -0.4,0 -0.3,0 -0.5,0.1 -0.7,0.3 -0.2,0.2 -0.3,0.6 -0.3,1 v 0.6 h 1.4 v 0.6 h -1.4 v 4.8 h -0.8 v -4.8 h -1 z m -39.3,9.8 h 0.6 0.7 0.9 c 0.8,0 1.4,0.1 1.9,0.4 0.5,0.3 0.9,0.7 1.1,1.2 0.3,0.5 0.4,1.1 0.4,1.8 0,0.8 -0.1,1.4 -0.4,2 -0.3,0.6 -0.7,1 -1.2,1.3 -0.5,0.3 -1.1,0.5 -1.9,0.5 h -0.8 -0.9 -0.5 l 0.1,-7.2 c 0,0 0,0 0,0 z m 2.2,6.6 c 0.5,0 1,-0.1 1.4,-0.3 0.4,-0.2 0.7,-0.6 0.9,-1.1 0.2,-0.5 0.3,-1.1 0.3,-1.8 0,-1 -0.2,-1.8 -0.7,-2.2 -0.5,-0.5 -1.2,-0.7 -2.1,-0.7 -0.4,0 -0.7,0 -1.2,0.1 v 6 c 0.2,0 0.4,0.1 0.7,0.1 0.3,-0.1 0.5,-0.1 0.7,-0.1 z m 5.7,-4.8 v 5.4 h -0.8 v -5.4 z m -1,-1.7 c 0,-0.1 0,-0.2 0.1,-0.3 0.1,-0.1 0.1,-0.2 0.2,-0.2 0.1,-0.1 0.2,-0.1 0.3,-0.1 0.2,0 0.3,0 0.4,0.1 0.1,0.1 0.1,0.2 0.1,0.4 0,0.1 0,0.2 -0.1,0.3 -0.1,0.1 -0.1,0.2 -0.2,0.2 -0.1,0.1 -0.2,0.1 -0.3,0.1 -0.1,0 -0.3,0 -0.4,-0.1 0,-0.1 -0.1,-0.3 -0.1,-0.4 z m 2.7,6.1 c 0.1,0 0.2,0.1 0.4,0.2 0.2,0.1 0.4,0.1 0.6,0.2 0.2,0 0.4,0.1 0.6,0.1 0.4,0 0.6,-0.1 0.9,-0.2 0.2,-0.1 0.3,-0.3 0.3,-0.6 0,-0.2 -0.1,-0.3 -0.2,-0.4 -0.1,-0.1 -0.3,-0.2 -0.4,-0.3 -0.2,-0.1 -0.4,-0.2 -0.7,-0.3 -0.5,-0.2 -0.9,-0.4 -1.1,-0.7 -0.3,-0.3 -0.4,-0.6 -0.4,-1 0,-0.3 0.1,-0.5 0.3,-0.7 0.2,-0.2 0.4,-0.4 0.7,-0.5 0.3,-0.1 0.6,-0.1 1,-0.1 0.3,0 0.6,0 0.8,0.1 0.3,0.1 0.4,0.1 0.6,0.2 l -0.1,0.7 c -0.1,-0.1 -0.3,-0.2 -0.5,-0.2 -0.2,-0.1 -0.5,-0.1 -0.7,-0.1 -0.4,0 -0.7,0.1 -0.9,0.2 -0.2,0.1 -0.3,0.3 -0.3,0.5 0,0.2 0,0.3 0.1,0.5 0.1,0.1 0.2,0.2 0.4,0.3 0.2,0.1 0.4,0.2 0.6,0.3 0.3,0.1 0.6,0.2 0.8,0.4 0.2,0.1 0.4,0.3 0.6,0.5 0.2,0.2 0.2,0.4 0.2,0.7 0,0.3 -0.1,0.6 -0.2,0.8 -0.2,0.2 -0.4,0.4 -0.7,0.5 -0.3,0.1 -0.6,0.2 -1,0.2 -0.3,0 -0.7,0 -1,-0.1 -0.3,-0.1 -0.6,-0.2 -0.7,-0.3 z m 5.1,-3.8 h -0.8 v -0.4 c 0.1,0 0.1,0 0.3,-0.1 0.2,0 0.3,-0.1 0.4,-0.1 0.1,0 0.1,-0.1 0.2,-0.2 0,-0.1 0.1,-0.2 0.1,-0.5 0.1,-0.3 0.1,-0.5 0.1,-0.7 H 80 v 1.3 h 1.7 v 0.6 H 80 v 3 c 0,0.4 0,0.6 0.1,0.8 0,0.2 0.1,0.3 0.2,0.3 0.1,0 0.2,0.1 0.4,0.1 0.2,0 0.3,0 0.6,-0.1 0.2,-0.1 0.4,-0.1 0.5,-0.2 l 0.1,0.5 c -0.1,0.1 -0.4,0.2 -0.6,0.3 C 81,29 80.8,29 80.5,29 80.3,29 80,29 79.9,28.9 79.7,28.8 79.6,28.7 79.5,28.5 79.4,28.3 79.3,28 79.3,27.7 Z m 5.6,-0.6 c 0.4,0 0.7,0 1,0.1 0.3,0.1 0.5,0.3 0.6,0.5 0.1,0.2 0.2,0.6 0.2,1 v 3.8 h -0.3 c -0.1,0 -0.2,0 -0.2,0 0,0 -0.1,-0.1 -0.1,-0.1 0,-0.1 0,-0.1 0,-0.2 v -0.2 c -0.2,0.2 -0.4,0.3 -0.7,0.4 -0.3,0.1 -0.6,0.2 -1,0.2 C 84,29.2 83.7,29.1 83.4,29 83.1,28.9 83,28.7 82.8,28.5 82.7,28.3 82.6,28 82.6,27.7 c 0,-0.4 0.1,-0.7 0.3,-0.9 0.2,-0.3 0.5,-0.4 0.9,-0.6 0.3,-0.1 0.6,-0.2 1,-0.2 0.4,-0.1 0.8,-0.1 1.1,-0.1 v -0.6 c 0,-0.3 0,-0.5 -0.1,-0.6 -0.1,-0.1 -0.2,-0.2 -0.4,-0.3 -0.2,0 -0.4,-0.1 -0.7,-0.1 -0.2,0 -0.4,0 -0.6,0.1 -0.2,0 -0.4,0.1 -0.6,0.2 -0.2,0.1 -0.3,0.1 -0.4,0.2 l -0.2,-0.5 c 0.1,-0.1 0.2,-0.1 0.4,-0.2 0.2,-0.1 0.5,-0.2 0.7,-0.2 0.3,-0.2 0.6,-0.2 0.8,-0.2 z m -0.3,4.8 c 0.2,0 0.4,0 0.6,-0.1 0.2,-0.1 0.4,-0.1 0.5,-0.2 0.1,-0.1 0.2,-0.1 0.3,-0.2 v -1.7 c -0.3,0 -0.5,0 -0.9,0.1 -0.3,0 -0.6,0.1 -0.8,0.2 -0.3,0.1 -0.5,0.2 -0.6,0.4 -0.1,0.2 -0.2,0.4 -0.2,0.6 0,0.3 0.1,0.5 0.3,0.7 0.1,0.1 0.4,0.2 0.8,0.2 z m 4.7,-4.8 v 0.8 c 0.3,-0.2 0.6,-0.4 0.9,-0.5 0.4,-0.2 0.7,-0.2 1.1,-0.2 0.4,0 0.7,0.1 0.9,0.2 0.2,0.1 0.4,0.4 0.5,0.7 0.1,0.3 0.2,0.7 0.2,1.2 v 3.3 H 92 v -3.3 c 0,-0.4 0,-0.7 -0.1,-0.9 -0.1,-0.2 -0.2,-0.4 -0.3,-0.5 -0.2,-0.1 -0.4,-0.1 -0.7,-0.1 -0.2,0 -0.5,0.1 -0.8,0.2 -0.3,0.1 -0.6,0.3 -0.8,0.5 v 4.1 h -0.8 v -5.4 z m 7.5,0 c 0.3,0 0.6,0 0.8,0.1 0.2,0.1 0.4,0.1 0.5,0.2 l -0.1,0.7 c -0.1,-0.1 -0.3,-0.2 -0.5,-0.3 -0.2,-0.1 -0.4,-0.1 -0.7,-0.1 -0.3,0 -0.6,0.1 -0.9,0.2 -0.3,0.2 -0.5,0.4 -0.6,0.7 -0.2,0.3 -0.2,0.7 -0.2,1.2 0,0.5 0.1,0.8 0.2,1.1 0.2,0.3 0.4,0.6 0.6,0.7 0.3,0.2 0.5,0.2 0.9,0.2 0.3,0 0.5,0 0.8,-0.1 0.2,-0.1 0.4,-0.2 0.6,-0.2 l 0.2,0.4 c -0.2,0.2 -0.4,0.3 -0.7,0.4 -0.3,0.1 -0.6,0.1 -1,0.1 -0.5,0 -0.9,-0.1 -1.3,-0.3 -0.4,-0.2 -0.6,-0.5 -0.8,-0.9 -0.2,-0.4 -0.3,-0.9 -0.3,-1.4 0,-0.5 0.1,-1 0.3,-1.4 0.2,-0.4 0.5,-0.8 0.9,-1 0.3,-0.2 0.8,-0.3 1.3,-0.3 z m 3,2.7 v 0.2 c 0,0.7 0.2,1.1 0.5,1.5 0.3,0.3 0.7,0.5 1.3,0.5 0.2,0 0.5,0 0.8,-0.1 0.3,-0.1 0.5,-0.2 0.7,-0.2 l 0.2,0.5 c -0.2,0.1 -0.4,0.3 -0.8,0.4 -0.4,0.1 -0.7,0.1 -1,0.1 -0.5,0 -0.9,-0.1 -1.3,-0.3 C 99.7,28.8 99.5,28.5 99.3,28.1 99.1,27.7 99,27 99,26.4 c 0,-0.5 0.1,-1 0.3,-1.4 0.2,-0.4 0.5,-0.7 0.8,-1 0.4,-0.2 0.8,-0.3 1.3,-0.3 0.4,0 0.7,0.1 1,0.2 0.3,0.2 0.5,0.4 0.7,0.7 0.2,0.3 0.2,0.6 0.3,1 0,0.2 0,0.4 0,0.5 0,0.1 0,0.2 0,0.3 -0.1,0 -3.7,0 -3.7,0 z m 1.6,-2.2 c -0.4,0 -0.8,0.1 -1.1,0.4 -0.3,0.3 -0.5,0.7 -0.5,1.2 h 2.8 c 0,0 0,-0.1 0,-0.2 0,-0.4 -0.1,-0.8 -0.3,-1 -0.1,-0.2 -0.4,-0.4 -0.9,-0.4 z M 112,21.9 v 0.6 h -3.3 v 2.6 h 2.4 v 0.6 h -2.4 v 2.8 h 3.6 v 0.6 h -4.4 v -7.2 z m 5.7,-0.6 v 7.8 h -0.3 c -0.1,0 -0.2,0 -0.3,-0.1 -0.1,0 -0.1,-0.1 -0.1,-0.3 v -0.3 c -0.2,0.2 -0.4,0.3 -0.7,0.5 -0.3,0.1 -0.6,0.2 -1,0.2 -0.4,0 -0.7,-0.1 -1.1,-0.3 -0.3,-0.2 -0.6,-0.5 -0.8,-0.8 -0.2,-0.4 -0.3,-0.9 -0.3,-1.4 0,-0.6 0.1,-1.1 0.3,-1.5 0.2,-0.4 0.5,-0.8 1,-1 0.4,-0.2 0.9,-0.4 1.4,-0.4 0.4,0 0.7,0.1 1,0.2 v -0.3 -2.3 z m -3.8,5.2 c 0,0.7 0.1,1.2 0.4,1.5 0.3,0.3 0.7,0.5 1.1,0.5 0.3,0 0.5,-0.1 0.8,-0.2 0.2,-0.1 0.4,-0.2 0.6,-0.4 v -3.5 c -0.1,-0.1 -0.2,-0.1 -0.4,-0.2 -0.2,-0.1 -0.4,-0.1 -0.7,-0.1 -0.3,0 -0.7,0.1 -0.9,0.3 -0.3,0.2 -0.5,0.4 -0.6,0.8 -0.2,0.4 -0.3,0.8 -0.3,1.3 z m 9.7,-2.8 v 5.4 h -0.3 c -0.1,0 -0.2,0 -0.3,-0.1 -0.1,0 -0.1,-0.1 -0.1,-0.3 v -0.3 c -0.3,0.2 -0.6,0.3 -0.9,0.4 -0.3,0.1 -0.7,0.2 -1,0.2 -0.4,0 -0.8,-0.1 -1,-0.3 -0.2,-0.2 -0.4,-0.4 -0.5,-0.8 -0.1,-0.3 -0.1,-0.7 -0.1,-1.2 v -3.1 h 0.8 v 3.2 c 0,0.4 0,0.8 0.1,1 0.1,0.2 0.2,0.4 0.3,0.5 0.2,0.1 0.4,0.1 0.7,0.1 0.3,0 0.5,-0.1 0.8,-0.2 0.3,-0.1 0.5,-0.2 0.7,-0.3 v -4.3 h 0.8 z m 3.9,0 c 0.3,0 0.6,0 0.8,0.1 0.2,0.1 0.4,0.1 0.5,0.2 l -0.1,0.7 c -0.1,-0.1 -0.3,-0.2 -0.5,-0.3 -0.2,-0.1 -0.4,-0.1 -0.7,-0.1 -0.3,0 -0.6,0.1 -0.9,0.2 -0.3,0.2 -0.5,0.4 -0.6,0.7 -0.2,0.3 -0.2,0.7 -0.2,1.2 0,0.5 0.1,0.8 0.2,1.1 0.1,0.3 0.4,0.6 0.6,0.7 0.3,0.2 0.5,0.2 0.9,0.2 0.3,0 0.5,0 0.8,-0.1 0.2,-0.1 0.4,-0.2 0.6,-0.2 l 0.2,0.4 c -0.2,0.2 -0.4,0.3 -0.7,0.4 -0.3,0.1 -0.6,0.1 -1,0.1 -0.5,0 -0.9,-0.1 -1.3,-0.3 -0.4,-0.2 -0.6,-0.5 -0.8,-0.9 -0.2,-0.4 -0.3,-0.9 -0.3,-1.4 0,-0.5 0.1,-1 0.3,-1.4 0.2,-0.4 0.5,-0.8 0.9,-1 0.3,-0.2 0.8,-0.3 1.3,-0.3 z m 4.5,0 c 0.4,0 0.7,0 1,0.1 0.3,0.1 0.5,0.3 0.6,0.5 0.1,0.2 0.2,0.6 0.2,1 v 3.8 h -0.3 c -0.1,0 -0.2,0 -0.2,0 -0.1,0 -0.1,-0.1 -0.1,-0.1 0,-0.1 0,-0.1 0,-0.2 v -0.2 c -0.2,0.2 -0.4,0.3 -0.7,0.4 -0.3,0.1 -0.6,0.2 -1,0.2 -0.3,0 -0.6,-0.1 -0.9,-0.2 -0.3,-0.1 -0.4,-0.3 -0.6,-0.5 -0.1,-0.2 -0.2,-0.5 -0.2,-0.8 0,-0.4 0.1,-0.7 0.3,-0.9 0.2,-0.3 0.5,-0.4 0.9,-0.6 0.3,-0.1 0.6,-0.2 1,-0.2 0.4,-0.1 0.8,-0.1 1.1,-0.1 v -0.6 c 0,-0.3 0,-0.5 -0.1,-0.6 -0.1,-0.1 -0.2,-0.2 -0.4,-0.3 -0.2,0 -0.4,-0.1 -0.7,-0.1 -0.2,0 -0.4,0 -0.6,0.1 -0.2,0 -0.4,0.1 -0.6,0.2 -0.2,0.1 -0.3,0.1 -0.4,0.2 l -0.2,-0.5 c 0.1,-0.1 0.2,-0.1 0.4,-0.2 0.2,-0.1 0.5,-0.2 0.7,-0.2 0.3,-0.2 0.5,-0.2 0.8,-0.2 z m -0.3,4.8 c 0.2,0 0.4,0 0.6,-0.1 0.2,-0.1 0.4,-0.1 0.5,-0.2 0.1,-0.1 0.2,-0.1 0.3,-0.2 v -1.7 c -0.3,0 -0.5,0 -0.9,0.1 -0.3,0 -0.6,0.1 -0.8,0.2 -0.3,0.1 -0.5,0.2 -0.6,0.4 -0.1,0.2 -0.2,0.4 -0.2,0.6 0,0.3 0.1,0.5 0.3,0.7 0.1,0.1 0.4,0.2 0.8,0.2 z m 4.1,-4.2 H 135 v -0.4 c 0.1,0 0.1,0 0.3,-0.1 0.2,0 0.3,-0.1 0.4,-0.1 0.1,0 0.1,-0.1 0.2,-0.2 0,-0.1 0.1,-0.2 0.1,-0.5 0.1,-0.3 0.1,-0.5 0.1,-0.7 h 0.5 v 1.3 h 1.7 v 0.6 h -1.7 v 3 c 0,0.4 0,0.6 0.1,0.8 0,0.2 0.1,0.3 0.2,0.3 0.1,0 0.2,0.1 0.4,0.1 0.2,0 0.3,0 0.6,-0.1 0.2,-0.1 0.4,-0.1 0.5,-0.2 l 0.1,0.5 c -0.1,0.1 -0.4,0.2 -0.6,0.3 -0.3,0.1 -0.5,0.1 -0.8,0.1 -0.2,0 -0.5,0 -0.6,-0.1 -0.2,-0.1 -0.3,-0.2 -0.4,-0.4 -0.1,-0.2 -0.2,-0.5 -0.2,-0.8 l -0.1,-3.4 z m 4.7,-0.6 v 5.4 h -0.8 V 23.7 Z M 139.6,22 c 0,-0.1 0,-0.2 0.1,-0.3 0.1,-0.1 0.1,-0.2 0.2,-0.2 0.1,-0.1 0.2,-0.1 0.3,-0.1 0.2,0 0.3,0 0.4,0.1 0.1,0.1 0.1,0.2 0.1,0.4 0,0.1 0,0.2 -0.1,0.3 -0.1,0.1 -0.1,0.2 -0.2,0.2 -0.1,0.1 -0.2,0.1 -0.3,0.1 -0.1,0 -0.3,0 -0.4,-0.1 -0.1,-0.1 -0.1,-0.3 -0.1,-0.4 z m 2.4,4.4 c 0,-0.6 0.1,-1 0.3,-1.4 0.2,-0.4 0.5,-0.7 0.9,-0.9 0.4,-0.2 0.8,-0.3 1.3,-0.3 0.5,0 1,0.1 1.3,0.4 0.4,0.2 0.6,0.6 0.8,1 0.2,0.4 0.2,0.9 0.2,1.4 0,0.6 -0.1,1 -0.3,1.5 -0.2,0.4 -0.5,0.7 -0.9,0.9 -0.4,0.2 -0.8,0.3 -1.3,0.3 -0.5,0 -1,-0.1 -1.3,-0.4 -0.4,-0.2 -0.6,-0.6 -0.8,-1 -0.1,-0.6 -0.2,-1 -0.2,-1.5 z m 4,0 c 0,-0.4 -0.1,-0.8 -0.2,-1.1 -0.1,-0.3 -0.3,-0.6 -0.5,-0.8 -0.2,-0.2 -0.5,-0.3 -0.9,-0.3 -0.3,0 -0.6,0.1 -0.9,0.2 -0.2,0.2 -0.4,0.4 -0.6,0.7 -0.1,0.3 -0.2,0.7 -0.2,1.1 0,0.4 0.1,0.8 0.2,1.1 0.1,0.3 0.3,0.6 0.5,0.8 0.2,0.2 0.5,0.3 0.9,0.3 0.3,0 0.6,-0.1 0.9,-0.3 0.2,-0.2 0.4,-0.4 0.5,-0.7 0.3,-0.2 0.3,-0.5 0.3,-1 z m 3,-2.7 v 0.8 c 0.3,-0.2 0.6,-0.4 0.9,-0.5 0.4,-0.2 0.7,-0.2 1.1,-0.2 0.4,0 0.7,0.1 0.9,0.2 0.2,0.1 0.4,0.4 0.5,0.7 0.1,0.3 0.2,0.7 0.2,1.2 v 3.3 h -0.8 v -3.3 c 0,-0.4 0,-0.7 -0.1,-0.9 -0.1,-0.2 -0.2,-0.4 -0.3,-0.5 -0.2,-0.1 -0.4,-0.1 -0.7,-0.1 -0.2,0 -0.5,0.1 -0.8,0.2 -0.3,0.1 -0.6,0.3 -0.8,0.5 v 4.1 h -0.8 v -5.4 h 0.7 z"
   id="path6" />
	<rect
   x="56.400002"
   y="9.3000002"
   class="st2"
   width="1.3"
   height="19.4"
   id="rect8" />
</g>
</svg>
