<?xml version="1.0" encoding="UTF-8"?>
<svg id="Layer_2" data-name="Layer 2" xmlns="http://www.w3.org/2000/svg" viewBox="0 0 427.74 99.33">
  <defs>
    <style>
      .cls-1 {
        fill: #db3527;
      }

      .cls-1, .cls-2, .cls-3, .cls-4 {
        stroke-width: 0px;
      }

      .cls-2 {
        fill: #808285;
      }

      .cls-3 {
        fill: #fcb32b;
      }

      .cls-4 {
        fill: #f48141;
      }
    </style>
  </defs>
  <g id="Layer_1-2" data-name="Layer 1">
    <g>
      <path class="cls-1" d="m413.99,46.56v-6.78c-4.5.77-7.51,1.97-9.03,3.61-1.12,1.25-1.69,3.22-1.69,5.92,0,3.22,1.48,4.83,4.41,4.83,1.71,0,3.2-.66,4.44-1.98,1.25-1.33,1.87-3.19,1.87-5.6m13.18,11.55h-12.38l-.72-3.68c-3.19,2.89-6.9,4.33-11.15,4.33-3.29,0-5.83-.81-7.65-2.42-1.81-1.61-2.71-3.88-2.71-6.82,0-4.23,2.05-7.29,6.16-9.16,1.35-.58,5.14-1.54,11.37-2.89,1.93-.39,3.24-.84,3.91-1.37v-1.08c0-3.22-.41-5.53-1.23-6.93-.97-1.64-2.68-2.45-5.14-2.45-2.22,0-4.31.8-6.27,2.42-1.96,1.61-3.2,3.45-3.73,5.52h-2.46v-6.79c1.64-1.39,3.91-2.48,6.8-3.24,2.51-.72,5-1.08,7.47-1.08,4.92,0,8.49.86,10.71,2.6,2.61,2.02,3.91,5.56,3.91,10.61v15.08c0,1.92.08,3.1.22,3.54.29.87,1.01,1.3,2.17,1.3h.72v2.52Zm-60.63,0h-13.69c.29-9.52.44-18.52.44-26.99s-.1-16.17-.29-22.8c-.2-1.2-1-1.81-2.39-1.81h-.73v-2.24h13.84c-.29,11.98-.43,20.79-.43,26.41v13.86c0,3.42.07,6.69.22,9.81.24,1.06,1.04,1.59,2.39,1.59h.65v2.16Zm24.34,0h-13.11l-.29-.36c-2.95-4.24-7.44-10.59-13.47-19.05.39-.39,2.9-2.89,7.53-7.51,3.14-3.13,5.53-5.72,7.17-7.79h9.2c-5.51,3.41-10.53,7.26-15.07,11.55,2.42,3.41,4.86,6.81,7.31,10.17,3.14,4.38,5.85,7.82,8.11,10.32.68.34,1.21.51,1.6.51h1.02v2.16Zm-47.08,0h-13.26c.29-6.83.44-12.82.44-17.97,0-4.28-.07-8.47-.21-12.56-.2-1.1-.99-1.66-2.39-1.66h-.73v-2.52h13.33c-.24,6.25-.36,11.83-.36,16.74,0,4.47.07,9.24.22,14.29.24.73,1.02,1.08,2.32,1.08h.65v2.6Zm-2.39-45.46c0,1.59-.56,2.95-1.7,4.07-1.13,1.13-2.5,1.7-4.09,1.7s-2.96-.57-4.09-1.7c-1.14-1.13-1.71-2.49-1.71-4.07s.57-2.94,1.71-4.04c1.13-1.1,2.5-1.66,4.09-1.66s2.96.55,4.09,1.66c1.14,1.1,1.7,2.45,1.7,4.04Zm-17.6,42.36c-1.01,1.2-2.56,2.16-4.63,2.88-1.84.62-3.67.94-5.51.94-7.39,0-11.08-3.42-11.08-10.25,0-.67.06-3.24.18-7.69.12-4.45.18-8.43.18-11.95v-1.66c-1.54,0-2.99.07-4.35.22v-4.11c1.08.09,2.53.16,4.35.21v-8.95l10.58-1.59c-.29,3.66-.44,5.82-.44,6.5v4.11c4.23,0,7.2-.1,8.91-.28v4.11c-1.86-.15-4.85-.22-8.99-.22v3.03c0,1.35-.04,3.87-.14,7.58-.09,3.71-.15,6.71-.15,9.03,0,2.98.36,5.01,1.08,6.1.73,1.08,2.03,1.62,3.92,1.62,1.11,0,2.56-.84,4.34-2.53l1.74,2.89Zm-30.35,3.1h-13.69c.24-3.7.36-10.63.36-20.78,0-3.61-.36-6.18-1.08-7.72-.82-1.78-2.27-2.66-4.35-2.66-2.7,0-4.85,1.39-6.45,4.2-1.35,2.45-2.03,5.35-2.03,8.68v5.35c0,2.5.04,5.55.14,9.12.19,1.11.99,1.66,2.39,1.66h.65v2.16h-13.69c.29-3.94.43-7.98.43-12.12v-10.97c0-2.16-.07-4.64-.21-7.43-.1-1.1-.89-1.66-2.39-1.66h-.72v-2.52h12.7c.38,2.89.58,4.81.58,5.77,2.6-4.57,6.33-6.85,11.18-6.85,4,0,7.14,1.14,9.42,3.43,2.28,2.28,3.43,5.54,3.43,9.78v11.62c0,.82.04,2.01.11,3.58.07,1.56.11,2.75.11,3.57,0,1.11.79,1.66,2.39,1.66h.72v2.16Zm-60.32-11.55v-6.78c-4.5.77-7.51,1.97-9.03,3.61-1.12,1.25-1.69,3.22-1.69,5.92,0,3.22,1.48,4.83,4.41,4.83,1.72,0,3.2-.66,4.45-1.98,1.24-1.33,1.87-3.19,1.87-5.6Zm13.18,11.55h-12.38l-.72-3.68c-3.19,2.89-6.91,4.33-11.15,4.33-3.28,0-5.83-.81-7.64-2.42-1.81-1.61-2.72-3.88-2.72-6.82,0-4.23,2.05-7.29,6.16-9.16,1.35-.58,5.14-1.54,11.37-2.89,1.93-.39,3.24-.84,3.91-1.37v-1.08c0-3.22-.41-5.53-1.23-6.93-.97-1.64-2.68-2.45-5.14-2.45-2.22,0-4.31.8-6.27,2.42-1.95,1.61-3.2,3.45-3.72,5.52h-2.47v-6.79c1.64-1.39,3.91-2.48,6.81-3.24,2.51-.72,5-1.08,7.46-1.08,4.93,0,8.5.86,10.72,2.6,2.61,2.02,3.91,5.56,3.91,10.61v15.08c0,1.92.07,3.1.22,3.54.29.87,1.01,1.3,2.17,1.3h.72v2.52Zm-37.01-34.71c-3.77,8.42-8.59,20.13-14.49,35.14h-9.12c-2.56-8.37-6.74-18.98-12.53-31.83-.63-.58-1.3-.86-2.03-.86h-.72v-2.45h13.25c2.03,7.7,5.22,16.43,9.57,26.19,3.57-7.02,6.62-14.77,9.12-23.24-.14-.29-.55-.43-1.23-.43h-.65v-2.52h8.83Zm-53.81,23.16v-6.78c-4.51.77-7.51,1.97-9.04,3.61-1.12,1.25-1.68,3.22-1.68,5.92,0,3.22,1.48,4.83,4.41,4.83,1.71,0,3.2-.66,4.44-1.98,1.24-1.33,1.87-3.19,1.87-5.6Zm13.18,11.55h-12.39l-.72-3.68c-3.19,2.89-6.91,4.33-11.16,4.33-3.28,0-5.83-.81-7.64-2.42-1.82-1.61-2.72-3.88-2.72-6.82,0-4.23,2.05-7.29,6.16-9.16,1.35-.58,5.14-1.54,11.37-2.89,1.93-.39,3.23-.84,3.91-1.37v-1.08c0-3.22-.41-5.53-1.23-6.93-.97-1.64-2.68-2.45-5.14-2.45-2.23,0-4.32.8-6.27,2.42-1.95,1.61-3.19,3.45-3.73,5.52h-2.46v-6.79c1.64-1.39,3.91-2.48,6.81-3.24,2.51-.72,5-1.08,7.46-1.08,4.93,0,8.5.86,10.72,2.6,2.61,2.02,3.91,5.56,3.91,10.61v15.08c0,1.92.07,3.1.22,3.54.29.87,1.01,1.3,2.17,1.3h.72v2.52Z"/>
      <g>
        <path class="cls-2" d="m148.91,74.73h.31c.43,0,.72.1.89.3.1.12.14,1.86.12,5.21,0,2.92-.02,4.86-.06,5.79-.09,2.33-.5,4.05-1.23,5.15-.92,1.35-2.45,2.02-4.56,2.02-2.47,0-4.13-.71-4.99-2.12-.74-1.17-1.11-3.24-1.11-6.23l.12-11.12h-4.35v.98h.29c.43,0,.72.11.88.34.02,1.41.02,3.2,0,5.37v5.37c0,6.16,2.88,9.24,8.65,9.24,3.59,0,6.04-1.16,7.35-3.47.88-1.62,1.32-4.2,1.32-7.74v-3.59c0-1.56.02-3.22.09-5,.08-.35.41-.52.99-.52h.31v-.98h-5.02v.98Z"/>
        <path class="cls-2" d="m186.14,74.68h.31c.45,0,.75.13.91.4.15.27.23,4.15.23,11.64,0,.51-.02,1.2-.06,2.06-4.6-4.62-9.24-9.62-13.93-15.02h-1.32v3.09c0,5.81-.11,11.31-.34,16.52-.14.25-.44.37-.89.37h-.31v.92h4.96v-.92h-.31c-.47,0-.77-.12-.92-.37-.1-4.38-.15-7.98-.15-10.81,0-.9.02-2.01.06-3.32l6.72,7.22c3.57,3.83,6.06,6.59,7.43,8.29h1.14v-6.72c0-4.33.06-8.64.18-12.96.14-.27.43-.4.88-.4h.26v-.92h-4.83v.92Z"/>
        <path class="cls-2" d="m212.86,93.22c-.04-1.17-.06-4.4-.06-9.71,0-3.62.07-6.88.21-9.76h-4.53v.95h.27c.58,0,.91.16.99.49.06,1.79.09,4.53.09,8.24,0,4.61-.08,8.35-.25,11.24h4.56v-.92h-.22c-.62,0-.98-.17-1.08-.52"/>
        <path class="cls-2" d="m245.71,74.68h.31c.43,0,.72.12.86.37-2.71,7.72-4.68,13.07-5.91,16.06-2.98-6.92-5.29-12.7-6.93-17.35h-4.05v.92h.31c.29,0,.5.05.65.15,2.65,5.88,5.39,12.52,8.23,19.93h2.34c2.43-6.3,5.27-13.3,8.54-21h-4.35v.92Z"/>
        <path class="cls-2" d="m277.58,92.82c-2.52.21-4.84.31-6.93.31h-.46c-.04-3.74-.06-6.29-.06-7.65v-1.08c2.14,0,4.64.06,7.49.19v-1.81l-7.49.15v-1.02c0-2.15.02-4.34.06-6.6h.41c2.29,0,4.45.08,6.49.24.23.14.34.53.34,1.17h.92v-2.98h-12.57v.95h.31c.45,0,.74.11.87.34.13.23.2,3.21.2,8.97,0,4.49-.08,8.05-.25,10.69h11.87v-3.01h-.92c0,.61-.09,1-.28,1.14"/>
        <path class="cls-2" d="m311.88,93.68c-.06-.04-.24-.09-.53-.15l-.55-.52c-2.8-3.86-4.8-6.72-6.01-8.58,3.52-.78,5.27-2.64,5.27-5.58,0-3.39-2.34-5.09-7.02-5.09-.68,0-1.5.01-2.47.04-.97.03-1.64.05-2,.05-.29,0-.72-.02-1.28-.05-.56-.03-1-.04-1.28-.04h-.31v.95h.31c.45,0,.75.11.89.32.15.22.22,3.29.22,9.23,0,4.46-.09,7.94-.25,10.44h4.57v-.95h-.31c-.41,0-.75-.07-1.01-.21-.06-1.31-.1-2.52-.1-3.62v-11.59c0-1.23.05-2.25.15-3.07.8-.04,1.42-.06,1.85-.06,1.62,0,2.85.38,3.69,1.13.76.69,1.14,1.65,1.14,2.87,0,2.92-1.84,4.38-5.52,4.38h-.47c.5.57,1.15,1.48,1.94,2.73.25.37.9,1.39,1.95,3.07,1.06,1.78,1.88,3.15,2.43,4.12.39.55.81.9,1.26,1.04.29.1.83.16,1.6.16h2.25v-.95h-.31s-.06-.02-.12-.06"/>
        <path class="cls-2" d="m338.2,84.1c-.64-.49-2.11-1.24-4.44-2.24-1.07-.45-1.81-.93-2.22-1.44-.47-.55-.71-1.3-.71-2.24s.31-1.69.94-2.36c.63-.68,1.43-1.01,2.42-1.01,1.56,0,2.94.65,4.13,1.93.16.31.24.61.24.89v.31h.93v-3.29c-1.62-.82-3.24-1.22-4.87-1.22-1.98,0-3.57.52-4.77,1.55-1.22,1.03-1.82,2.43-1.82,4.19s.72,3.2,2.16,4.33c.74.57,2.21,1.32,4.4,2.24,1.95.82,2.93,2.1,2.93,3.84,0,1.09-.39,2.04-1.17,2.86-.79.82-1.74,1.23-2.9,1.23-1.81,0-3.45-.78-4.93-2.36-.12-.28-.18-.54-.18-.77v-.27h-.93v3.19c1.42,1.09,3.25,1.62,5.49,1.62s4.03-.59,5.38-1.76c1.34-1.18,2.02-2.78,2.02-4.81,0-1.84-.7-3.31-2.09-4.39"/>
        <path class="cls-2" d="m361.84,93.22c-.04-1.17-.06-4.4-.06-9.71,0-3.62.07-6.88.21-9.76h-4.53v.95h.27c.58,0,.91.16.99.49.07,1.79.09,4.53.09,8.24,0,4.61-.08,8.35-.24,11.24h4.56v-.92h-.22c-.62,0-.98-.17-1.08-.52"/>
        <path class="cls-2" d="m379.65,76.85h.93v-.28c0-.59.11-.95.34-1.07,1.13-.13,2.64-.19,4.53-.19h.53l.03,7.88c0,1.35-.05,5.17-.15,11.47h4.41v-.92h-.31c-.39,0-.66-.07-.8-.21-.15-.15-.22-3.53-.22-10.15,0-3.8.05-6.49.16-8.06h.58c1.42,0,2.89.11,4.41.33.14.18.21.48.21.9v.3h.92v-3.1h-15.57v3.1Z"/>
        <path class="cls-2" d="m420.71,93.37c-.08-1.61-.12-3.16-.12-4.64,0-.51.02-1.43.06-2.76,2.69-4.87,5.06-8.94,7.09-12.22h-4.25v.95h.31c.26,0,.47.03.61.09-2.14,4.57-3.7,7.66-4.68,9.28-2.26-3.4-4.16-6.84-5.71-10.32h-4.07v.95h.31c.2,0,.37.02.49.06,1.95,3.24,4.19,7.03,6.72,11.4.1,1.45.15,2.77.15,3.96,0,.99-.06,2.5-.19,4.55h4.47v-.92h-.31c-.45,0-.75-.12-.89-.37"/>
      </g>
      <g>
        <g>
          <path class="cls-4" d="m64.15,42.47h0s0,0,0,0c2.49-3.28,4.02-7.54,4.32-11.97h0s0-.01,0-.01c-4.41.3-8.64,1.84-11.91,4.34h0c.26,3.06-.14,6.03-1.18,8.82v.02s.01,0,.01,0c2.77-1.05,5.76-1.46,8.77-1.19"/>
          <path class="cls-4" d="m34.64,56.86h0c-2.49,3.29-4.02,7.54-4.32,11.98h0s.02.01.02.01c4.41-.3,8.64-1.84,11.9-4.34h0c-.26-3.06.13-6.02,1.18-8.82v-.02s-.02,0-.02,0c-2.75,1.05-5.74,1.45-8.77,1.19"/>
          <path class="cls-4" d="m64.15,56.86c-3.01.27-6.01-.14-8.77-1.19h-.02s0,.01,0,.01c1.05,2.79,1.45,5.75,1.18,8.81h0s0,.02,0,.02c3.26,2.5,7.49,4.04,11.9,4.33h0c-.29-4.45-1.83-8.7-4.32-11.98h0Z"/>
          <path class="cls-4" d="m76.36,49.66c-3.33-2.93-7.4-4.85-11.47-5.4h-.01c-1.95,2.34-4.32,4.16-7.03,5.4h-.02s.02.02.02.02c2.72,1.24,5.08,3.05,7.03,5.39h0c4.07-.55,8.14-2.47,11.47-5.4h0s0-.01,0-.01Z"/>
          <path class="cls-4" d="m49.4,58.17v-.02s-.01.02-.01.02c-1.23,2.73-3.03,5.11-5.37,7.08h0c.55,4.1,2.45,8.19,5.37,11.54h0s0,0,0,0c2.91-3.35,4.82-7.45,5.37-11.53h0s0,0,0,0c-2.33-1.97-4.14-4.35-5.36-7.07"/>
          <path class="cls-4" d="m42.24,34.83h0s0-.01,0-.01c-3.27-2.5-7.5-4.04-11.91-4.34h-.01c.3,4.45,1.83,8.7,4.32,11.98h0c.59-.05,1.2-.07,1.81-.07,2.41,0,4.75.43,6.96,1.27h.02s-.01-.01-.01-.01c-1.05-2.8-1.45-5.76-1.18-8.81"/>
          <path class="cls-4" d="m49.4,22.55h0s0,0,0,0c-2.91,3.35-4.82,7.44-5.37,11.53h0s0,0,0,0c2.33,1.97,4.14,4.35,5.37,7.08v.02s.01-.02.01-.02c1.23-2.73,3.04-5.11,5.36-7.07h0c-.55-4.1-2.46-8.2-5.37-11.54"/>
          <path class="cls-4" d="m33.9,55.07h0c1.95-2.35,4.32-4.16,7.04-5.4h.02s-.02-.02-.02-.02c-2.72-1.24-5.08-3.05-7.04-5.39h0s0,0,0,0c-4.07.56-8.14,2.47-11.47,5.4h0s0,.01,0,.01c3.33,2.93,7.4,4.85,11.47,5.4h0Z"/>
        </g>
        <g>
          <path class="cls-1" d="m49.38,20.05h0s0,0,0,0c3.62-3.61,8.37-6.25,13.73-7.64h.02s-.01-.01-.01-.01C59.85,7.6,55.23,3.43,49.4,0h0s0,0,0,0c-5.83,3.43-10.45,7.6-13.74,12.4h0s.02.01.02.01c5.36,1.39,10.11,4.03,13.73,7.64"/>
          <path class="cls-1" d="m49.4,79.28h0s0,0,0,0c-3.62,3.61-8.37,6.25-13.73,7.64h-.02s0,.02,0,.02c3.29,4.8,7.91,8.96,13.74,12.4h0c5.83-3.43,10.45-7.6,13.75-12.4h0s-.02-.02-.02-.02c-5.36-1.39-10.11-4.03-13.73-7.64"/>
          <path class="cls-1" d="m98.79,49.66c-3.41-5.86-7.56-10.51-12.33-13.82h-.01s0,0,0,0c-1.38,5.39-4.01,10.16-7.6,13.81h0s0,.02,0,.02c3.59,3.64,6.22,8.42,7.6,13.81v.02h.01c4.77-3.31,8.92-7.96,12.33-13.82h0s0,0,0,0Z"/>
          <path class="cls-1" d="m19.95,49.67h0c-3.59-3.65-6.22-8.43-7.6-13.82h0s-.01,0-.01,0c-4.77,3.31-8.91,7.95-12.33,13.82h0c3.42,5.87,7.56,10.52,12.33,13.82h.01s0,0,0,0c1.38-5.39,4.01-10.17,7.6-13.81h0Z"/>
          <path class="cls-1" d="m70.21,28.72h0s.01,0,.01,0c5.1.02,10.31,1.53,15.08,4.36h.01s0,0,0,0c1.05-5.73.71-11.97-1-18.53h0c-6.44-1.7-12.8-2.05-18.43-1.01h-.02s0,.02,0,.02c2.81,4.8,4.32,10.04,4.34,15.17"/>
          <path class="cls-1" d="m28.57,70.61h0c-5.1-.04-10.32-1.54-15.09-4.37h-.01s0,0,0,0c-1.05,5.73-.72,11.96,1,18.54h0s0,0,0,0c6.47,1.71,12.78,2.05,18.43,1.01h.01s0-.01,0-.01c-2.81-4.79-4.31-10.04-4.33-15.17"/>
          <path class="cls-1" d="m85.32,66.23h-.01c-4.77,2.84-9.98,4.34-15.08,4.37h-.01c-.02,5.14-1.52,10.38-4.34,15.17h0s.01.02.01.02c2.12.39,4.36.59,6.65.59,3.79,0,7.75-.53,11.78-1.59h0c1.71-6.57,2.05-12.8,1-18.54h0Z"/>
          <path class="cls-1" d="m13.47,33.1h.01c4.77-2.83,9.98-4.34,15.08-4.37h.01c.02-5.14,1.52-10.38,4.33-15.18h0s-.02-.02-.02-.02c-5.63-1.03-11.98-.69-18.43,1.01h0c-1.71,6.58-2.05,12.81-1,18.54h0Z"/>
          <path class="cls-1" d="m50.55,21.29h0c2.99,3.4,4.97,7.41,5.73,11.6v.02h.01c3.48-2.44,7.71-3.86,12.21-4.13h0c-.01-5.04-1.54-10.17-4.4-14.86h0s0,0,0,0c-5.32,1.28-10.01,3.83-13.56,7.37h0Z"/>
          <path class="cls-1" d="m84.95,34.86h0c-4.66-2.88-9.77-4.41-14.76-4.43h0c-.28,4.54-1.7,8.79-4.11,12.29h0s.01.01.01.01c4.18.76,8.16,2.76,11.54,5.76h0s0,0,0,0c3.52-3.56,6.06-8.27,7.33-13.63h0Z"/>
          <path class="cls-1" d="m48.23,78.04h0c-2.99-3.41-4.97-7.42-5.73-11.61v-.02s-.02,0-.02,0c-3.49,2.43-7.71,3.85-12.21,4.13h0c.01,5.03,1.53,10.17,4.4,14.86h0s0,0,0,0c5.32-1.28,10.01-3.83,13.55-7.37h0Z"/>
          <path class="cls-1" d="m21.18,50.84h0s0,0,0,0c-3.53,3.57-6.06,8.28-7.33,13.63h0s.01.01.01.01c4.66,2.88,9.77,4.41,14.76,4.42h.01c.27-4.54,1.69-8.78,4.1-12.29h0s-.01-.01-.01-.01c-4.17-.77-8.16-2.76-11.53-5.76"/>
          <path class="cls-1" d="m68.52,70.56c-4.51-.28-8.73-1.7-12.21-4.13h-.01s0,0,0,0c-.76,4.19-2.74,8.2-5.73,11.6h0s0,.01,0,.01c3.55,3.54,8.23,6.09,13.56,7.37h0s0,0,0,0c2.86-4.69,4.38-9.82,4.4-14.85h-.01Z"/>
          <path class="cls-1" d="m77.6,50.84c-3.38,3.01-7.36,5-11.53,5.76h-.02s0,.02,0,.02c2.41,3.5,3.83,7.75,4.11,12.28h0c5,0,10.1-1.54,14.76-4.41h0s0-.01,0-.01c-1.27-5.35-3.8-10.06-7.33-13.63h0s0,0,0,0Z"/>
          <path class="cls-1" d="m30.27,28.78h0c4.5.27,8.72,1.7,12.21,4.13h.01s0,0,0,0c.76-4.19,2.74-8.2,5.73-11.6h0s0-.01,0-.01c-3.54-3.54-8.23-6.09-13.56-7.37h0c-2.86,4.7-4.38,9.83-4.4,14.85h0Z"/>
          <path class="cls-1" d="m32.73,42.72c-2.41-3.5-3.83-7.75-4.1-12.28h-.01c-5,0-10.1,1.54-14.77,4.42h0c1.28,5.36,3.81,10.07,7.34,13.64h0s0,0,0,0c3.37-3.01,7.36-5,11.53-5.76h.01s0-.01,0-.01Z"/>
        </g>
        <path class="cls-3" d="m54.31,45.98c-.4.77-.86,1.51-1.34,2.19h0s.02.02.02.02c.84.14,1.68.34,2.49.59h0s0,0,0,0c2.73-.91,5.25-2.53,7.29-4.66l.02-.02h-.02c-2.98-.05-5.81.57-8.44,1.88h0Z"/>
        <path class="cls-3" d="m55.47,50.56h0s0,0,0,0c-.81.25-1.65.45-2.48.59h-.02s0,.02,0,.02c.49.69.94,1.43,1.34,2.18h0s0,0,0,0c2.59,1.3,5.44,1.93,8.43,1.88h.02l-.02-.02c-2.03-2.13-4.55-3.74-7.29-4.66"/>
        <path class="cls-3" d="m53.06,54.62c-.75-.41-1.48-.86-2.17-1.35h-.02s0,0,0,0c-.15.84-.34,1.68-.59,2.5h0c.91,2.76,2.52,5.29,4.64,7.33h.02s0,0,0,0c.06-2.95-.59-5.88-1.87-8.48h0Z"/>
        <path class="cls-3" d="m47.92,53.27h0s-.02,0-.02,0c-.69.49-1.42.94-2.17,1.35h0s0,0,0,0c-1.28,2.59-1.93,5.53-1.87,8.48v.02h.01c2.12-2.06,3.73-4.59,4.64-7.34h0s0,0,0,0c-.25-.82-.45-1.66-.59-2.5"/>
        <path class="cls-3" d="m50.87,46.08h.01c.7-.5,1.43-.96,2.17-1.36h0c1.29-2.6,1.93-5.53,1.87-8.48v-.02h-.02c-2.12,2.06-3.73,4.59-4.64,7.34h0c.25.83.45,1.67.59,2.51h0Z"/>
        <path class="cls-3" d="m45.73,44.72h0c.77.41,1.5.87,2.17,1.35h.02s0,0,0,0c.14-.84.34-1.68.59-2.5h0c-.92-2.76-2.52-5.29-4.64-7.33v-.02s-.01.02-.01.02c-.06,2.95.58,5.88,1.87,8.48h0Z"/>
        <path class="cls-3" d="m43.32,48.77h0s0,0,0,0c.81-.25,1.64-.45,2.48-.59h.02s0-.02,0-.02c-.49-.69-.94-1.43-1.34-2.18h0c-2.5-1.26-5.2-1.89-8.05-1.89-.13,0-.26,0-.39,0h-.03l.02.02c2.04,2.13,4.55,3.75,7.29,4.66"/>
        <path class="cls-3" d="m44.47,53.35c.4-.75.85-1.48,1.34-2.18h0s-.02-.02-.02-.02c-.83-.15-1.67-.35-2.48-.59h0s0,0,0,0c-2.73.92-5.25,2.53-7.28,4.66l-.02.02h.02c2.94.09,5.78-.55,8.44-1.88h0Z"/>
      </g>
    </g>
  </g>
</svg>