<?xml version="1.0" encoding="UTF-8"?>
<svg id="Layer_1" xmlns="http://www.w3.org/2000/svg" version="1.1" viewBox="0 0 269 88">
  <!-- Generator: Adobe Illustrator 29.1.0, SVG Export Plug-In . SVG Version: 2.1.0 Build 142)  -->
  <defs>
    <style>
      .st0 {
        fill: #fff;
      }

      .st1 {
        fill: #f47521;
      }

      .st1, .st2 {
        fill-rule: evenodd;
      }

      .st3, .st2 {
        fill: #58585a;
      }
    </style>
  </defs>
  <rect class="st0" x="-.1" y="0" width="269.3" height="87.8"/>
  <g>
    <path class="st1" d="M12.8,26.9l6.3,19.5,1.8,7.3,1.7-7.3,6.1-19.5h6.7l4.1,34.2h-5l-2.1-21.3-.7-9.2-2.3,9.1-7.1,21.4h-2.7l-7.5-21.4-2.5-9.1-.6,9.2-1.9,21.3H2.3l3.5-34.2s7.1,0,7.1,0ZM52.2,26.9v34.2h-5.1V26.9h5.1ZM58.3,30.8v-3.9h26.4v3.9h-10.7v30.4h-5.1v-30.4h-10.7Z"/>
    <path class="st2" d="M110.4,38.3c.4.2.8.4,1.4.6.6.2,1.2.2,1.8.2.9,0,1.6-.2,2.1-.5.5-.3.8-.9.8-1.5s-.1-.8-.4-1.2c-.2-.3-.6-.6-1-.8-.4-.2-1-.5-1.7-.8-2.2-1-3.4-2.3-3.4-3.8s.2-1.3.6-1.8c.4-.5.9-.8,1.5-1,.6-.2,1.3-.3,2-.3s1.3,0,1.9.2c.5.1.9.3,1.2.5l-.3,1.2c-.3-.2-.7-.4-1.2-.6-.4-.1-1-.2-1.6-.2s-.9,0-1.3.2c-.4.1-.8.3-1,.6-.3.3-.4.6-.4,1s.1.8.3,1.2c.2.3.5.6.9.8.4.2.9.5,1.6.9.7.4,1.4.7,1.9,1,.5.3.9.7,1.2,1.1.3.5.5,1,.5,1.6s-.2,1.3-.5,1.8c-.4.5-.8.9-1.5,1.1-.6.2-1.4.4-2.2.4s-1,0-1.5-.1c-.5,0-.9-.2-1.3-.3-.4-.1-.6-.2-.8-.3,0,0,.3-1.2.3-1.2ZM124.1,30.6c.5,0,1,0,1.4.2.4.1.7.2.9.4l-.2,1.2c-.2-.2-.5-.4-.9-.5-.4-.1-.8-.2-1.3-.2s-1.1.1-1.5.4c-.5.3-.8.7-1.1,1.3-.3.6-.4,1.3-.4,2.1s.1,1.5.4,2,.6,1,1.1,1.3c.5.3,1,.4,1.5.4s1,0,1.4-.2c.4-.1.8-.3,1-.4l.3.8c-.3.3-.7.5-1.2.7-.5.2-1.1.2-1.7.2-.9,0-1.6-.2-2.2-.6-.6-.4-1.1-1-1.4-1.7s-.5-1.5-.5-2.4c0-1,.2-1.8.5-2.6.4-.8.9-1.3,1.6-1.8.7-.4,1.5-.6,2.5-.6ZM133.7,30.6c.7,0,1.2.1,1.7.4.4.3.7.7.9,1.3.2.6.3,1.4.3,2.3v5.6h-1.4v-5.7c0-.7,0-1.2-.2-1.6-.1-.4-.4-.7-.7-.8-.3-.2-.7-.3-1.3-.3s-.9.1-1.5.3c-.5.2-1,.5-1.4.8v7.3h-1.4v-13.9h1.4v5.6c.4-.3.9-.6,1.6-.9.7-.3,1.3-.4,2-.4h0ZM139.1,35.4c0-1,.2-1.8.6-2.6s.9-1.3,1.6-1.6c.7-.4,1.4-.6,2.2-.6s1.7.2,2.4.6c.6.4,1.1,1,1.4,1.7.3.7.4,1.5.4,2.5s-.2,1.8-.6,2.6-.9,1.3-1.5,1.7c-.7.4-1.4.6-2.2.6s-1.8-.2-2.4-.7-1.1-1-1.4-1.8c-.3-.7-.4-1.6-.4-2.5h0ZM146.2,35.5c0-.7-.1-1.4-.3-2-.2-.6-.5-1-.9-1.4-.4-.3-.9-.5-1.6-.5s-1.1.1-1.5.4c-.4.3-.8.7-1,1.3-.2.6-.3,1.2-.3,2s0,1.4.3,2c.2.6.5,1.1.9,1.4.4.4.9.5,1.6.5s1.1-.2,1.5-.5c.4-.3.7-.7,1-1.3.2-.6.3-1.2.3-2ZM149.4,35.4c0-1,.2-1.8.6-2.6s.9-1.3,1.6-1.6c.7-.4,1.4-.6,2.2-.6s1.7.2,2.4.6c.6.4,1.1,1,1.4,1.7.3.7.4,1.5.4,2.5s-.2,1.8-.6,2.6-.9,1.3-1.5,1.7c-.7.4-1.4.6-2.2.6s-1.8-.2-2.4-.7-1.1-1-1.4-1.8c-.3-.7-.4-1.6-.4-2.5h0ZM156.5,35.5c0-.7-.1-1.4-.3-2-.2-.6-.5-1-.9-1.4-.4-.3-.9-.5-1.6-.5s-1.1.1-1.5.4c-.4.3-.8.7-1,1.3-.2.6-.3,1.2-.3,2s.1,1.4.3,2c.2.6.5,1.1.9,1.4.4.4.9.5,1.6.5s1.1-.2,1.5-.5c.4-.3.7-.7,1-1.3.2-.6.3-1.2.3-2ZM162,26.4v13.9h-1.4v-13.9s1.4,0,1.4,0ZM170.2,35.4c0-1,.2-1.8.6-2.6s.9-1.3,1.6-1.6c.7-.4,1.4-.6,2.2-.6s1.7.2,2.4.6c.6.4,1.1,1,1.4,1.7.3.7.4,1.5.4,2.5s-.2,1.8-.6,2.6-.9,1.3-1.5,1.7c-.7.4-1.4.6-2.2.6s-1.8-.2-2.4-.7-1.1-1-1.4-1.8c-.3-.7-.4-1.6-.4-2.5ZM177.3,35.5c0-.7,0-1.4-.3-2-.2-.6-.5-1-.9-1.4-.4-.3-.9-.5-1.6-.5s-1.1.1-1.5.4c-.4.3-.8.7-1,1.3-.2.6-.3,1.2-.3,2s.1,1.4.3,2c.2.6.5,1.1.9,1.4.4.4.9.5,1.6.5s1.1-.2,1.5-.5c.4-.3.7-.7,1-1.3.2-.6.3-1.2.3-2ZM180.2,31.7v-.8l1.7-.3v-.8c0-.9.2-1.6.5-2.2.3-.6.7-1,1.2-1.2s1-.4,1.6-.4.5,0,.7,0c.2,0,.4,0,.5.1v1.2c-.2,0-.3-.1-.5-.2-.2,0-.5,0-.8,0-.5,0-.9.2-1.2.6-.3.4-.5,1-.5,1.7v1.1h2.6v1.1h-2.6v8.5h-1.4v-8.5h-1.7s0,0,0,0ZM110.6,49.1h3.9c1.3,0,2.5.2,3.4.7.9.5,1.6,1.2,2,2.1.4.9.7,2,.7,3.3,0,1.4-.2,2.6-.7,3.6-.5,1-1.2,1.8-2.1,2.4-.9.6-2,.8-3.3.8h-3.8v-12.8s0,0,0,0ZM114.5,60.9c.9,0,1.7-.2,2.4-.6.7-.4,1.2-1,1.6-1.9s.6-1.9.6-3.1c0-1.8-.4-3.1-1.2-4-.8-.8-2-1.2-3.7-1.2s-1.3,0-2.1.2v10.5c.3,0,.7.1,1.2.1.5,0,.9,0,1.3,0ZM124.5,52.3v9.6h-1.4v-9.6h1.4ZM122.9,49.3c0-.2,0-.4.1-.5,0-.2.2-.3.4-.4.2,0,.3-.1.5-.1.3,0,.5,0,.7.3.2.2.2.4.2.7s0,.4-.1.6c0,.2-.2.3-.4.4-.2,0-.3.1-.5.1-.3,0-.5,0-.6-.3-.2-.2-.3-.4-.3-.7ZM127.6,60.2c.1,0,.3.2.6.3.3.1.6.2,1,.3.4,0,.7.1,1.1.1.6,0,1.1-.1,1.5-.4.4-.2.6-.6.6-1.1s-.1-.6-.3-.8c-.2-.2-.5-.4-.8-.5-.3-.1-.7-.3-1.2-.5-.8-.3-1.5-.7-2-1.2-.5-.4-.7-1-.7-1.7s.2-1,.5-1.3c.3-.4.7-.6,1.2-.8s1.1-.3,1.7-.3,1,0,1.4.2c.5.1.8.2,1,.3l-.2,1.2c-.2-.2-.5-.3-.9-.4-.4-.1-.8-.2-1.3-.2-.7,0-1.2.1-1.6.4-.4.2-.5.6-.5.9s0,.6.3.8c.2.2.4.4.7.6.3.2.7.3,1.1.5.5.2,1,.4,1.4.7.4.2.8.5,1.1.9.3.4.4.8.4,1.3s-.1,1-.4,1.4c-.3.4-.7.7-1.2.9-.5.2-1.1.3-1.8.3s-1.2,0-1.8-.2c-.6-.1-1-.3-1.3-.5l.2-1ZM136.6,53.4h-1.3v-.8c0,0,.3,0,.5-.1.3,0,.5-.2.7-.2.1,0,.2-.2.3-.3,0,0,0-.4.2-.8,0-.5.2-.9.2-1.2h.8v2.3h3v1.1h-3v5.4c0,.6,0,1.1.1,1.4,0,.3.2.5.4.6.2,0,.4.1.8.1s.6,0,1-.2c.4-.1.6-.2.8-.3l.2.8c-.3.2-.6.4-1.1.5-.5.2-1,.2-1.4.2s-.8,0-1.1-.2c-.3-.1-.6-.4-.8-.7-.2-.3-.3-.8-.3-1.5v-6.2h0ZM146.6,52.3c.7,0,1.3,0,1.8.2.5.2.8.5,1.1.9.3.4.4,1,.4,1.8v6.8h-.6c-.2,0-.3,0-.4,0-.1,0-.2,0-.2-.2,0,0,0-.2,0-.4v-.3c-.3.3-.7.5-1.2.7-.5.2-1.1.3-1.7.3s-1.1-.1-1.5-.3c-.4-.2-.8-.5-1-.9-.2-.4-.4-.9-.4-1.4s.2-1.2.5-1.6c.4-.4.9-.8,1.5-1,.5-.2,1.1-.3,1.8-.4.7,0,1.3-.1,1.9-.1v-1c0-.5,0-.8-.3-1.1-.2-.2-.4-.4-.7-.5-.3,0-.7-.1-1.3-.1s-.7,0-1,.1c-.4,0-.7.2-1,.3-.3.1-.6.2-.8.4l-.3-.9c.1,0,.4-.2.8-.4.4-.2.8-.3,1.3-.4.5-.1,1-.2,1.4-.2h0ZM146,60.9c.4,0,.7,0,1.1-.1.4,0,.6-.2.9-.3.3-.1.4-.2.5-.3v-3.1c-.4,0-1,0-1.5.1-.6,0-1.1.2-1.4.3-.5.2-.9.4-1.1.7s-.4.6-.4,1,.2,1,.5,1.3c.3.3.8.5,1.5.5h0ZM154.3,52.3v1.4c.5-.3,1-.7,1.7-1,.7-.3,1.3-.4,2-.4s1.2.1,1.6.4c.4.2.7.6.9,1.2.2.5.3,1.3.3,2.2v5.9h-1.4v-5.8c0-.7,0-1.2-.2-1.5-.1-.4-.3-.6-.6-.8-.3-.2-.7-.3-1.3-.3s-.9.1-1.4.4c-.5.2-1,.5-1.4.8v7.3h-1.4v-9.6h1.3,0ZM167.7,52.3c.5,0,1,0,1.4.2.4.1.7.2.9.4l-.2,1.2c-.2-.2-.5-.4-.9-.5s-.8-.2-1.3-.2-1.1.1-1.5.4c-.5.3-.8.7-1.1,1.3-.3.6-.4,1.3-.4,2.1s.1,1.5.4,2c.3.6.6,1,1.1,1.3.5.3,1,.4,1.5.4s1,0,1.4-.2c.4-.1.8-.3,1-.4l.3.8c-.3.3-.7.5-1.2.7-.5.2-1.1.2-1.7.2-.9,0-1.6-.2-2.2-.6-.6-.4-1.1-1-1.4-1.7s-.5-1.5-.5-2.4c0-1,.2-1.8.5-2.6.4-.8.9-1.3,1.6-1.8.7-.4,1.5-.6,2.5-.6h0ZM173,57.1v.3c0,1.2.3,2,.9,2.6.6.5,1.3.8,2.3.8s.9,0,1.4-.2c.5-.1.9-.3,1.2-.4l.3.8c-.3.3-.8.5-1.4.6-.6.2-1.2.2-1.8.2-.9,0-1.7-.2-2.3-.6-.6-.4-1.1-.9-1.4-1.6s-.5-1.6-.5-2.6.2-1.8.5-2.5c.3-.7.8-1.3,1.5-1.7.7-.4,1.4-.6,2.3-.6s1.2.1,1.8.4.9.7,1.2,1.2c.3.5.4,1.1.5,1.8,0,.4,0,.6,0,.8,0,.2,0,.4,0,.6,0,0-6.3,0-6.3,0ZM175.9,53.3c-.8,0-1.4.2-1.9.7-.5.5-.8,1.2-.9,2.2h5c0,0,0-.2,0-.4,0-.8-.2-1.4-.5-1.8-.4-.5-.9-.7-1.7-.7h0ZM194.7,49.1v1.1h-5.8v4.6h4.2v1.1h-4.2v4.9h6.4v1.1h-7.8v-12.8h7.2ZM204.8,48v13.9h-.6c-.2,0-.4,0-.5-.1-.1,0-.2-.2-.2-.5v-.6c-.3.3-.7.6-1.2.8-.5.2-1,.3-1.7.3s-1.3-.2-1.9-.5c-.6-.3-1-.8-1.4-1.5-.4-.7-.5-1.5-.5-2.5s.2-1.9.6-2.7c.4-.8,1-1.4,1.7-1.8.7-.4,1.6-.7,2.5-.7s1.3.1,1.9.3v-.6s0-4,0-4h1.4ZM198.2,57.3c0,1.2.2,2.1.7,2.7.5.6,1.2.9,2,.9s1,0,1.4-.3c.4-.2.8-.4,1.1-.6v-6.1c-.2-.1-.4-.3-.7-.4-.3,0-.7-.1-1.2-.1s-1.2.2-1.7.5c-.5.3-.9.8-1.2,1.4-.3.6-.4,1.3-.4,2.1ZM215.3,52.3v9.6h-.5c-.3,0-.4,0-.5-.1-.1,0-.2-.2-.2-.5v-.5c-.5.3-1,.6-1.6.8-.6.2-1.2.3-1.7.3-.8,0-1.4-.2-1.8-.5-.4-.3-.7-.8-.8-1.3-.1-.6-.2-1.3-.2-2.2v-5.6h1.4v5.6c0,.8,0,1.4.2,1.8.1.4.3.7.6.8.3.2.7.2,1.2.2s.9,0,1.4-.3c.5-.2.9-.4,1.2-.6v-7.6h1.4ZM222.3,52.3c.5,0,1,0,1.4.2.4.1.7.2.9.4l-.2,1.2c-.2-.2-.5-.4-.9-.5-.4-.1-.8-.2-1.3-.2s-1.1.1-1.5.4c-.5.3-.8.7-1.1,1.3s-.4,1.3-.4,2.1.1,1.5.4,2,.6,1,1.1,1.3c.5.3,1,.4,1.5.4s1,0,1.4-.2c.4-.1.8-.3,1-.4l.3.8c-.3.3-.7.5-1.2.7-.5.2-1.1.2-1.7.2-.9,0-1.6-.2-2.2-.6-.6-.4-1.1-1-1.4-1.7s-.5-1.5-.5-2.4c0-1,.2-1.8.5-2.6.4-.8.9-1.3,1.6-1.8.7-.4,1.5-.6,2.5-.6h0ZM230.3,52.3c.7,0,1.3,0,1.8.2.5.2.8.5,1.1.9.3.4.4,1,.4,1.8v6.8h-.6c-.2,0-.3,0-.4,0-.1,0-.2,0-.2-.2,0,0,0-.2,0-.4v-.3c-.3.3-.7.5-1.2.7-.5.2-1.1.3-1.7.3s-1.1-.1-1.5-.3c-.4-.2-.8-.5-1-.9-.2-.4-.4-.9-.4-1.4s.2-1.2.5-1.6c.4-.4.9-.8,1.5-1,.5-.2,1.1-.3,1.8-.4.7,0,1.3-.1,1.9-.1v-1c0-.5,0-.8-.3-1.1-.2-.2-.4-.4-.7-.5-.3,0-.7-.1-1.3-.1s-.7,0-1,.1c-.4,0-.7.2-1,.3-.3.1-.6.2-.8.4l-.3-.9c.1,0,.4-.2.8-.4.4-.2.8-.3,1.3-.4.5-.1,1-.2,1.4-.2ZM229.6,60.9c.4,0,.7,0,1.1-.1.4,0,.6-.2.9-.3.3-.1.4-.2.5-.3v-3.1c-.4,0-1,0-1.5.1-.6,0-1.1.2-1.4.3-.5.2-.9.4-1.1.7s-.4.6-.4,1,.2,1,.5,1.3c.3.3.8.5,1.5.5ZM237,53.4h-1.3v-.8c0,0,.3,0,.5-.1.3,0,.5-.2.7-.2.1,0,.2-.2.3-.3,0,0,0-.4.2-.8,0-.5.2-.9.2-1.2h.8v2.3h3v1.1h-3v5.4c0,.6,0,1.1.1,1.4,0,.3.2.5.4.6.2,0,.4.1.8.1s.6,0,1-.2c.4-.1.6-.2.8-.3l.2.8c-.3.2-.6.4-1.1.5-.5.2-1,.2-1.4.2s-.8,0-1.1-.2c-.3-.1-.6-.4-.8-.7-.2-.3-.3-.8-.3-1.5v-6.2h0,0ZM245.3,52.3v9.6h-1.4v-9.6h1.4ZM243.7,49.3c0-.2,0-.4.1-.5,0-.2.2-.3.4-.4.2,0,.3-.1.5-.1.3,0,.5,0,.7.3.2.2.2.4.2.7s0,.4-.1.6c0,.2-.2.3-.4.4-.2,0-.3.1-.5.1-.3,0-.5,0-.6-.3-.2-.2-.3-.4-.3-.7h0ZM248,57c0-1,.2-1.8.6-2.6s.9-1.3,1.6-1.6c.7-.4,1.4-.6,2.2-.6s1.7.2,2.4.6c.6.4,1.1,1,1.4,1.7.3.7.4,1.5.4,2.5s-.2,1.8-.6,2.6-.9,1.3-1.5,1.7c-.7.4-1.4.6-2.2.6s-1.8-.2-2.4-.7-1.1-1-1.4-1.8c-.3-.7-.4-1.6-.4-2.5ZM255.1,57.1c0-.7,0-1.4-.3-2-.2-.6-.5-1-.9-1.4-.4-.3-.9-.5-1.6-.5s-1.1.1-1.5.4c-.4.3-.8.7-1,1.3-.2.6-.3,1.2-.3,2s.1,1.4.3,2c.2.6.5,1.1.9,1.4.4.4.9.5,1.6.5s1.1-.2,1.5-.5c.4-.3.7-.7,1-1.3.2-.6.3-1.2.3-2ZM260.3,52.3v1.4c.5-.3,1-.7,1.7-1,.7-.3,1.3-.4,2-.4s1.2.1,1.6.4c.4.2.7.6.9,1.2.2.5.3,1.3.3,2.2v5.9h-1.4v-5.8c0-.7,0-1.2-.2-1.5-.1-.4-.3-.6-.6-.8-.3-.2-.7-.3-1.3-.3s-.9.1-1.4.4c-.5.2-1,.5-1.4.8v7.3h-1.4v-9.6h1.3Z"/>
    <rect class="st3" x="96.2" y="26.8" width="2.3" height="34.5"/>
  </g>
</svg>